STARTFONT 2.1
COMMENT
COMMENT Converted from OpenType font "RuthlessSketch_Italic.ttf" by "otf2bdf 3.0".
COMMENT
FONT -FreeType-Ruthless Sketch-Medium-I-Normal--89-640-100-100-P-476-ISO10646-1
SIZE 64 100 100
FONTBOUNDINGBOX 117 98 -40 -17
STARTPROPERTIES 19
FOUNDRY "FreeType"
FAMILY_NAME "Ruthless Sketch"
WEIGHT_NAME "Medium"
SLANT "I"
SETWIDTH_NAME "Normal"
ADD_STYLE_NAME ""
PIXEL_SIZE 89
POINT_SIZE 640
RESOLUTION_X 100
RESOLUTION_Y 100
SPACING "P"
AVERAGE_WIDTH 476
CHARSET_REGISTRY "ISO10646"
CHARSET_ENCODING "1"
FONT_ASCENT 83
FONT_DESCENT 18
COPYRIGHT "© 2024 GGBotNet. All Rights Reserved."
_OTF_FONTFILE "RuthlessSketch_Italic.ttf"
_OTF_PSNAME "RuthlessSketch-Italic"
ENDPROPERTIES
CHARS 1105
STARTCHAR 0020
ENCODING 32
SWIDTH 303 0
DWIDTH 27 0
BBX 0 0 0 0
BITMAP
ENDCHAR
STARTCHAR 0021
ENCODING 33
SWIDTH 292 0
DWIDTH 26 0
BBX 32 67 7 -1
BITMAP
00003FFE
007FFFFE
00FFFFFF
00FFFFFE
01FFFFFC
01FFFFFC
01FFFFFC
01FFFFF8
01FFFFF8
01FFFFF0
01FFFFF0
03FFFFE0
03FFFFE0
03FFFFC0
03FFFFC0
03FFFFC0
03FFFF80
03FFFF80
03FFFF80
03FFFF00
03FFFF00
03FFFF00
03FFFE00
07FFFE00
07FFFC00
07FFFC00
07FFFC00
07FFFC00
07FFF800
07FFF800
07FFF800
07FFF000
07FFF000
07FFF000
07FFF000
07FFE000
07FFE000
0FFFE000
0FFFC000
0FFFC000
0FFFC000
0FFFC000
0FFF8000
0FFE0000
07F80000
00000000
00000000
00000000
00000000
00000000
00000000
01FC0000
0FFE0000
1FFF0000
7FFF0000
7FFF0000
FFFF0000
FFFF0000
FFFF0000
FFFF0000
FFFE0000
FFFE0000
FFFE0000
7FFE0000
7FFC0000
3FF00000
1F800000
ENDCHAR
STARTCHAR 0022
ENCODING 34
SWIDTH 393 0
DWIDTH 35 0
BBX 35 33 12 32
BITMAP
0000000C00
0FFE01FF80
0FFE01FFC0
1FFE03FFC0
1FFE03FFE0
1FFE07FFE0
3FFE07FFC0
3FFE0FFFC0
3FFC0FFFC0
7FFC0FFFC0
7FFC0FFF80
7FFC0FFF80
7FFC0FFF00
FFF80FFF00
FFF80FFF00
FFF80FFE00
FFF80FFE00
FFF00FFE00
FFF00FFC00
FFE00FFC00
7FE00FF800
7FC00FF800
7FC00FF800
7F800FF000
7F800FF000
7F000FE000
7F000FE000
7F000FE000
7E000FC000
7E000FC000
7C000F8000
7C000F8000
3C00080000
ENDCHAR
STARTCHAR 0023
ENCODING 35
SWIDTH 517 0
DWIDTH 46 0
BBX 53 62 3 1
BITMAP
00000018100180
0000003FF003C8
0000003FF007F8
0000007FF007F8
0000007FE00FF0
0000007FE00FF0
000000FFE01FE0
000000FFC03FE0
000001FFC03FC0
000001FF807FC0
000003FF807F80
000003FF80FF80
000007FF00FF00
000007FF01FF00
000007FE01FE00
00000FFFFFFFE0
007FFFFFFFFFE0
00FFFFFFFFFFE0
00FFFFFFFFFFE0
00FFFFFFFFFFE0
00FFFFFFFFFFE0
00FFFFFFFFFFC0
01FFFFFFFFFFC0
01FFFFFFFFFFC0
01FFFFFFFFFFC0
01FFFFFFFFFF80
03FFFFFFFFC000
001FFF80FF8000
0001FF01FF8000
0003FF01FF0000
0003FE03FF0000
0007FE03FF0000
0007FC07FE0000
000FFC07FFF800
01CFFFFFFFFE00
0FFFFFFFFFFE00
0FFFFFFFFFFE00
0FFFFFFFFFFE00
1FFFFFFFFFFC00
1FFFFFFFFFFC00
1FFFFFFFFFFC00
1FFFFFFFFFFC00
1FFFFFFFFFF800
1FFFFFFFFFF800
1FFFFFFFFFF000
01FFFDFFC00000
03FE03FF800000
03FC03FF800000
07FC03FF000000
07F807FF000000
07F807FE000000
0FF00FFE000000
0FF00FFC000000
1FE01FFC000000
1FE01FFC000000
3FC01FF8000000
3FC03FF8000000
7F803FF0000000
7F003FF0000000
FF003FE0000000
86003FE0000000
04000000000000
ENDCHAR
STARTCHAR 0024
ENCODING 36
SWIDTH 495 0
DWIDTH 44 0
BBX 53 83 2 -10
BITMAP
00000000038000
00000003FF8000
00000007FF8000
00000007FF8000
00000007FF8000
00000007FF0000
0000000FFF0000
0000000FFF0000
0000000FFF0000
0000000FFE0000
0000000FFE0000
0000001FFE0000
0000001FFFE000
0000007FFFFC00
000001FFFFFE00
000003FFFFFF80
00000FFFFFFFC0
00003FFFFFFFE0
0000FFFFFFFFF0
0001FFFFFFFFF0
0003FFFFFFFFF8
0007FFFFFFFFF8
0007FFFFFFFFF0
000FFFFFFFFFF0
000FFFFFFFFFF0
000FFFFFFFFFE0
001FFFFFFFFFE0
001FFFFFFC7FC0
001FFFFFF01F80
001FFFFFF00F00
003FFFFFE00000
003FFFFFE00000
001FFFFFE00000
001FFFFFE00000
001FFFFFE00000
001FFFFFC00000
001FFFFFC00000
001FFFFFF00000
000FFFFFFF0000
000FFFFFFF8000
0007FFFFFF8000
0000FFFFFFC000
00003FFFFFC000
00000FFFFFE000
00000FFFFFE000
00000FFFFFE000
00000FFFFFE000
00000FFFFFE000
00001FFFFFE000
00001FFFFFF000
01801FFFFFF000
01FC3FFFFFE000
01FFFFFFFFE000
03FFFFFFFFE000
03FFFFFFFFC000
07FFFFFFFFC000
07FFFFFFFF8000
07FFFFFFFF8000
0FFFFFFFFF0000
0FFFFFFFFF0000
1FFFFFFFFE0000
1FFFFFFFFC0000
1FFFFFFFFC0000
3FFFFFFFF80000
3FFFFFFFF00000
3FFFFFFFF00000
7FFFFFFFE00000
7FFFFFFFE00000
FFFFFFFF800000
FFFFFFFE000000
7FFFFFF8000000
01FFFFE0000000
0003FFE0000000
0003FFE0000000
0003FFC0000000
0003FFC0000000
0003FFC0000000
0007FF80000000
0007FF80000000
0007FF80000000
0007FF00000000
0007FF00000000
00000300000000
ENDCHAR
STARTCHAR 0025
ENCODING 37
SWIDTH 562 0
DWIDTH 50 0
BBX 52 61 5 1
BITMAP
00000000000600
00000000000FC0
00001800001FF0
0000FF00001FF0
0003FF80003FF0
0007FFC0007FE0
000FFFC000FFE0
001FFFE000FFC0
003FFFE001FF80
007FFFF003FF80
00FF0FF007FF00
00FE0FF007FE00
01FC07F00FFC00
01FC07F01FFC00
03FC07F01FF800
03F807F03FF000
03F80FE07FE000
03F80FE0FFE000
03F80FE1FFC000
03F81FC1FF8000
03F83FC3FF0000
03FC7F87FF0000
03FFFF8FFE0000
03FFFF1FFC0000
01FFFE1FF80000
00FFFC3FF00000
007FF87FF00000
003FE0FFE00000
000F01FFC00000
000001FF800000
000003FF000000
000007FF07C000
00000FFE1FF000
00001FFC7FF800
00001FF8FFFC00
00003FF1FFFC00
00007FE3FFFE00
0000FFE7FFFE00
0001FFC7F8FF00
0001FF8FF0FF00
0003FF0FE07F00
0007FE1FC07F00
000FFE1FC07F00
001FFC1FC07F00
001FF83F807F00
003FF03F80FE00
007FE03F80FE00
00FFC03F81FE00
01FFC03F81FC00
03FF803FC3FC00
03FF003FFFF800
07FE001FFFF800
0FFC001FFFF000
1FF8000FFFE000
3FF0000FFF8000
3FF00007FF0000
7FE00001FC0000
FFC00000000000
7F800000000000
7F000000000000
1E000000000000
ENDCHAR
STARTCHAR 0026
ENCODING 38
SWIDTH 506 0
DWIDTH 45 0
BBX 45 60 5 1
BITMAP
00000FFE0000
00003FFF8000
0001FFFFC000
0003FFFFC000
0007FFFFE000
000FFFFFE000
001FFFFFE000
001FFFFFE000
003FFFFFE000
003FFCFFE000
003FF07FE000
003FE03FE000
003FE07FE000
003FE07FC000
003FE0FFC000
003FF1FF8000
003FFBFF8000
003FFFFF0000
003FFFFE0000
001FFFFE0000
001FFFFC0000
001FFFF80000
001FFFF80FF8
003FFFF81FF8
007FFFFC1FF8
00FFFFFC1FF0
00FFFFFE3FF0
01FFFFFE3FE0
03FFFFFF7FE0
07FFFFFF7FE0
07FFFFFFFFC0
0FFF8FFFFFC0
0FFF07FFFF80
1FFE07FFFF80
1FFE03FFFF80
3FFC01FFFF00
3FFC01FFFF00
3FFC00FFFE00
7FFC007FFE00
7FF8007FFC00
7FF8003FFE00
7FF8001FFE00
FFF8003FFF00
FFF8007FFF80
FFFC00FFFF80
FFFF03FFFFC0
FFFFFFFFFFC0
FFFFFFFFFFC0
FFFFFFFFFFC0
FFFFFFFFFFC0
7FFFFFFFFF80
7FFFFFFF7F80
3FFFFFFF3F80
3FFFFFFE1F80
1FFFFFFC1F80
07FFFFF80F00
03FFFFE00700
007FFF800700
000FF8000200
000080000000
ENDCHAR
STARTCHAR 0027
ENCODING 39
SWIDTH 202 0
DWIDTH 18 0
BBX 18 33 12 32
BITMAP
00F800
0FFF00
1FFFC0
1FFFC0
3FFFC0
3FFFC0
3FFFC0
3FFFC0
3FFF80
7FFF80
7FFF80
7FFF80
7FFF80
FFFF00
FFFF00
FFFE00
FFFE00
FFFE00
FFFC00
FFFC00
FFF800
7FF800
7FF000
7FE000
7FE000
7FC000
7FC000
7F8000
7F8000
7F0000
7F0000
7E0000
7C0000
ENDCHAR
STARTCHAR 0028
ENCODING 40
SWIDTH 348 0
DWIDTH 31 0
BBX 38 85 6 -13
BITMAP
0000000400
0000000F00
0000001FC0
0000003FE0
0000007FF8
000000FFFC
000001FFFC
000003FFF8
000007FFE0
00000FFFC0
00001FFFC0
00003FFF00
00007FFE00
0000FFF800
0001FFF000
0003FFC000
0007FF8000
000FFF8000
000FFF0000
001FFE0000
003FFE0000
007FFC0000
007FF80000
007FF00000
00FFE00000
01FFC00000
01FFC00000
03FF800000
03FF800000
07FF000000
07FF000000
0FFE000000
0FFE000000
0FFE000000
1FFE000000
1FFE000000
1FFC000000
1FFC000000
1FFC000000
1FFC000000
3FFC000000
3FFC000000
3FF8000000
3FF8000000
3FF8000000
7FF8000000
7FF8000000
7FF8000000
7FF0000000
FFF0000000
FFF0000000
FFF0000000
FFF0000000
FFE0000000
FFE0000000
FFE0000000
FFE0000000
FFE0000000
FFE0000000
7FE0000000
7FE0000000
7FF0000000
7FF0000000
7FF8000000
3FF8000000
3FF8000000
3FFC000000
1FFC000000
1FFC000000
1FFE000000
0FFE000000
0FFE000000
0FFF800000
07FFC00000
07FFE00000
03FFE00000
01FFF00000
01FFF80000
00FFFC0000
00FFFC0000
007FF80000
003FC00000
003F800000
001E000000
0008000000
ENDCHAR
STARTCHAR 0029
ENCODING 41
SWIDTH 348 0
DWIDTH 31 0
BBX 38 85 0 -13
BITMAP
000000C000
000003E000
000007F000
00001FF000
00007FF800
0000FFFC00
0000FFFC00
00007FFE00
00003FFE00
00001FFF00
00001FFF00
00000FFF80
000003FF80
000001FFC0
000001FFC0
000001FFC0
000000FFE0
000000FFE0
000000FFE0
000000FFF0
000000FFF0
0000007FF0
0000003FF0
0000003FF0
0000001FF8
0000001FF8
0000001FFC
0000001FFC
0000001FFC
0000001FFC
0000001FFC
0000001FFC
0000003FFC
0000003FFC
0000003FF8
0000003FF8
0000003FF8
0000007FF0
0000007FF0
0000007FF0
0000007FF0
0000007FF0
000000FFF0
000000FFF0
000000FFE0
000000FFE0
000000FFE0
000000FFE0
000000FFE0
000001FFE0
000001FFC0
000001FFC0
000001FFC0
000001FF80
000003FF80
000003FF00
000007FF00
000007FE00
00000FFE00
00001FFC00
00001FF800
00003FF800
00007FF800
0000FFF000
0001FFE000
0003FFC000
0003FFC000
0007FF8000
0007FF0000
000FFE0000
001FFC0000
007FFC0000
01FFF80000
03FFF00000
0FFFE00000
0FFFC00000
1FFF800000
7FFF000000
FFFE000000
FFFC000000
7FF8000000
1FF0000000
0FE0000000
03C0000000
0080000000
ENDCHAR
STARTCHAR 002A
ENCODING 42
SWIDTH 326 0
DWIDTH 29 0
BBX 29 26 11 39
BITMAP
0003E000
0003E000
0003E000
0103E040
0783E1E0
0FC7C3F0
1FE7CFF8
0FF7DFE0
07FFFFC0
03FFFF00
01FFFE00
00FFF800
003FE000
007FE000
00FFF000
01FFF800
07FFFE00
1FFFFF00
3FDE7F80
FFBE3FC0
7E3E1F80
383E0E00
103C0000
007C0000
007C0000
007C0000
ENDCHAR
STARTCHAR 002B
ENCODING 43
SWIDTH 472 0
DWIDTH 42 0
BBX 42 40 7 11
BITMAP
00001FFE0000
00001FFE0000
00001FFE0000
00001FFE0000
00003FFE0000
00003FFE0000
00003FFC0000
00003FFC0000
00003FFC0000
00007FFC0000
00007FF80000
00007FF80000
0000FFF80000
0FFFFFFFFFC0
3FFFFFFFFFC0
3FFFFFFFFFC0
3FFFFFFFFF80
3FFFFFFFFF80
3FFFFFFFFF80
7FFFFFFFFF80
7FFFFFFFFF80
7FFFFFFFFF00
7FFFFFFFFF00
FFFFFFFFFF00
FFFFFFFFFF00
7FFFFFF87E00
0007FFC00000
0007FFC00000
0007FFC00000
0007FF800000
0007FF800000
000FFF800000
000FFF800000
000FFF000000
001FFF000000
001FFF000000
001FFF000000
001FFE000000
001FFE000000
001E00000000
ENDCHAR
STARTCHAR 002C
ENCODING 44
SWIDTH 202 0
DWIDTH 18 0
BBX 24 31 -5 -15
BITMAP
000070
0003FC
000FFE
003FFE
003FFF
007FFF
007FFF
007FFF
007FFF
007FFF
007FFF
007FFE
007FFE
007FFC
003FF8
003FF0
001FE0
003FC0
007F80
03FF80
0FFF00
3FFE00
FFFE00
7FFC00
3FF800
1FF800
1FF000
0FE000
07C000
03C000
018000
ENDCHAR
STARTCHAR 002D
ENCODING 45
SWIDTH 382 0
DWIDTH 34 0
BBX 34 14 7 24
BITMAP
1FFFFFFFC0
3FFFFFFFC0
3FFFFFFF80
3FFFFFFF80
3FFFFFFF80
7FFFFFFF80
7FFFFFFF80
7FFFFFFF00
7FFFFFFF00
FFFFFFFF00
FFFFFFFF00
FFFFFFFF00
F7FFFFFE00
0000003000
ENDCHAR
STARTCHAR 002E
ENCODING 46
SWIDTH 202 0
DWIDTH 18 0
BBX 17 17 3 -1
BITMAP
006000
03FC00
0FFF00
1FFF80
3FFF80
3FFF80
7FFF00
FFFF00
FFFF00
FFFF00
FFFE00
FFFE00
FFFC00
7FFC00
3FF000
1FE000
038000
ENDCHAR
STARTCHAR 002F
ENCODING 47
SWIDTH 450 0
DWIDTH 40 0
BBX 51 72 1 -5
BITMAP
00000000001000
00000000007000
0000000000F820
0000000000FFE0
0000000001FFE0
0000000003FFE0
0000000007FFC0
0000000007FF80
000000000FFF80
000000001FFF00
000000001FFF00
000000003FFE00
000000007FFC00
000000007FFC00
00000000FFF800
00000001FFF800
00000001FFF000
00000003FFE000
00000007FFE000
00000007FFC000
0000000FFFC000
0000001FFF8000
0000001FFF8000
0000003FFF0000
0000007FFF0000
0000007FFE0000
000000FFFC0000
000000FFFC0000
000001FFF80000
000003FFF80000
000003FFF00000
000007FFF00000
00000FFFE00000
00000FFFE00000
00001FFFC00000
00001FFFC00000
00003FFF800000
00007FFF000000
00007FFF000000
0000FFFE000000
0001FFFE000000
0001FFFC000000
0003FFFC000000
0007FFF8000000
0007FFF8000000
000FFFF0000000
000FFFF0000000
001FFFE0000000
003FFFE0000000
003FFFC0000000
007FFFC0000000
007FFF80000000
00FFFF80000000
00FFFF00000000
01FFFF00000000
03FFFE00000000
03FFFE00000000
07FFFC00000000
07FFFC00000000
0FFFF800000000
0FFFF800000000
1FFFF000000000
1FFFF000000000
3FFFE000000000
3FFFE000000000
7FFFC000000000
7FFF8000000000
7FFF8000000000
FFFF0000000000
FFFF0000000000
FFFE0000000000
E00E0000000000
ENDCHAR
STARTCHAR 0030
ENCODING 48
SWIDTH 393 0
DWIDTH 35 0
BBX 35 62 7 1
BITMAP
00001F0000
0000FF8000
0003FFC000
0007FFE000
000FFFF000
001FFFF000
001FFFF800
003FFFF800
007FFFFC00
007FFFFE00
00FFFFFF00
00FFFFFF80
00FFFFFF80
00FFFFFFC0
01FFFFFFC0
01FFFFFFC0
03FFFFFFC0
03FFFFFFC0
07FFFFFFC0
07FFFBFFC0
0FFFE3FFE0
0FFF81FFE0
0FFF81FFE0
1FFF01FFE0
1FFF01FFE0
1FFE01FFE0
3FFE01FFE0
3FFE01FFE0
3FFE01FFC0
7FFC01FFC0
7FFC01FFC0
7FFC01FF80
7FFC03FF80
FFFC03FF80
FFFC07FF80
FFFC07FF80
FFFC0FFF80
FFFE1FFF00
FFFF3FFF00
FFFFFFFF00
FFFFFFFE00
FFFFFFFE00
FFFFFFFE00
7FFFFFFC00
7FFFFFFC00
7FFFFFF800
7FFFFFF800
7FFFFFF800
3FFFFFF000
3FFFFFF000
3FFFFFE000
3FFFFFE000
1FFFFFC000
1FFFFFC000
1FFFFF8000
0FFFFF0000
0FFFFF0000
07FFFE0000
03FFFC0000
01FFF80000
007FF00000
001FC00000
ENDCHAR
STARTCHAR 0031
ENCODING 49
SWIDTH 427 0
DWIDTH 38 0
BBX 32 59 12 2
BITMAP
00000380
00001FF0
00007FFC
0000FFFE
0001FFFE
0007FFFF
001FFFFF
007FFFFE
01FFFFFE
07FFFFFE
0FFFFFFE
3FFFFFFE
7FFFFFFC
FFFFFFFC
FFFFFFFC
7FF9FFFC
7FFBFFFC
3FF3FFF8
1FF3FFF8
0FE7FFF8
07C7FFF8
0787FFF8
030FFFF8
010FFFF8
001FFFF0
001FFFF0
001FFFF0
003FFFF0
003FFFE0
003FFFE0
007FFFE0
007FFFE0
007FFFE0
00FFFFE0
00FFFFE0
01FFFFE0
01FFFFC0
01FFFFC0
03FFFFC0
03FFFFC0
03FFFFC0
07FFFFC0
07FFFFC0
07FFFFC0
0FFFFF80
0FFFFF80
0FFFFF80
1FFFFF80
1FFFFF80
1FFFFF80
3FFFFF80
3FFFFF80
3FFFFF80
3FFFFF80
7FFFFF80
7FFFFF80
0FFFFFC0
003FFF80
00003E00
ENDCHAR
STARTCHAR 0032
ENCODING 50
SWIDTH 506 0
DWIDTH 45 0
BBX 45 61 5 1
BITMAP
000001C00000
000007FC0000
00001FFF8000
00007FFFE000
0000FFFFF000
0001FFFFFC00
0003FFFFFE00
0007FFFFFF00
001FFFFFFF80
007FFFFFFF80
00FFFFFFFF00
01FFFFFFFF00
01FFFFFFFF00
01FFFFFFFF00
00FFFFFFFE00
00FFFCFFFE00
007FF0DFFE00
007FE01FFE00
003F801FFE00
003F001FFE00
001C003FFC00
0008003FFC00
0000003FFC00
0000007FF800
0000007FF000
000000FFF000
000001FFE000
000001FFE000
000003FFC000
000003FF8000
000007FF8000
00000FFF0000
00000FFF0000
00001FFE0000
00003FFC0000
00003FF80000
00007FF801F8
0000FFFFFFF8
0001FFFFFFF0
0001FFFFFFF0
0003FFFFFFE0
0007FFFFFFE0
000FFFFFFFC0
000FFFFFFFC0
001FFFFFFFC0
003FFFFFFF80
007FFFFFFF80
00FFFFFFFF00
00FFFFFFFF00
01FFFFFFFE00
03FFFFFFFE00
07FFFFFFFC00
3FFFFFFFFC00
7FFFFFFFFC00
FFFFFFFFF800
FFFFFFFFF800
FFFFFFFFC000
3FFFFFFC0000
0FFFFFE00000
01FFFE000000
000FE0000000
ENDCHAR
STARTCHAR 0033
ENCODING 51
SWIDTH 472 0
DWIDTH 42 0
BBX 41 60 4 0
BITMAP
00001FFFC000
0000FFFFE000
0007FFFFE000
000FFFFFE000
000FFFFFF000
001FFFFFE000
001FFFFFE000
001FFFFFE000
000FFFFFC000
000FFBFF8000
0003C1FF8000
000003FF0000
000007FF0000
00000FFE0000
00001FFE0000
00003FFC0000
00003FF80000
00007FF80000
0000FFF00000
0001FFF80000
0003FFFF8000
0007FFFFE000
000FFFFFF800
001FFFFFFC00
001FFFFFFE00
003FFFFFFF00
007FFFFFFF00
007FFFFFFF00
007FFFFFFF00
003FFFFFFF00
000FFFFFFF80
0001003FFF80
0000000FFF80
00000007FF80
00000007FF80
00000003FF80
00000003FF80
00000003FF80
00000003FF80
00000003FF80
00000003FF80
00000007FF80
00000007FF00
0000000FFF00
0000001FFF00
0000007FFE00
700001FFFE00
FF0007FFFC00
FFE1FFFFF800
FFFFFFFFF800
FFFFFFFFF000
FFFFFFFFE000
7FFFFFFFC000
7FFFFFFF8000
1FFFFFFF0000
07FFFFFC0000
01FFFFF80000
00FFFFE00000
003FFF800000
0003FC000000
ENDCHAR
STARTCHAR 0034
ENCODING 52
SWIDTH 438 0
DWIDTH 39 0
BBX 39 61 6 -1
BITMAP
00000FF800
00003FF800
0000FFF800
0001FFF000
0001FFF000
0001FFE000
0001FFE000
0003FFC000
0003FFC000
0007FFC000
0007FF8000
000FFF8000
000FFF0000
001FFF0000
001FFE0000
003FFE0000
003FFC0000
003FFC0000
007FF80000
007FF80000
00FFF00000
00FFF0000E
01FFE1FFFE
01FFFFFFFE
03FFFFFFFE
03FFFFFFFE
07FFFFFFFE
07FFFFFFFE
0FFFFFFFFE
0FFFFFFFFE
1FFFFFFFFC
1FFFFFFFFC
3FFFFFFFFC
3FFFFFFFE0
7FFFFFFF80
7FFFFFF800
FF003FF000
70007FF000
00007FE000
0000FFE000
0000FFE000
0001FFE000
0001FFE000
0003FFE000
0007FFE000
0007FFC000
000FFFC000
000FFFC000
001FFFC000
001FFFC000
003FFFC000
003FFFC000
007FFFC000
007FFFC000
00FFFFC000
00FFFFC000
01FFFFC000
01FFFFC000
03FFFF8000
03FFFF0000
03C0000000
ENDCHAR
STARTCHAR 0035
ENCODING 53
SWIDTH 483 0
DWIDTH 43 0
BBX 45 61 5 0
BITMAP
000000009FF8
00000007FFF8
00003FFFFFF8
00007FFFFFF8
00007FFFFFF8
00007FFFFFF8
00007FFFFFF0
0000FFFFFFE0
0000FFFFFFC0
0000FFFFFE00
0001FFF80000
0001FFF00000
0001FFE00000
0003FFE00000
0003FFE00000
0007FFE00000
0007FFC00000
0007FFFC0000
000FFFFF0000
000FFFFFC000
001FFFFFE000
001FFFFFF000
003FFFFFF000
003FFFFFF800
007FFFFFFC00
007FFFFFFC00
00FFFFFFFE00
01F9FFFFFE00
01E007FFFF00
000003FFFF00
000001FFFF00
000000FFFF80
000000FFFF80
0000007FFF80
0000007FFFC0
0000003FFFC0
0000003FFF80
0000003FFF80
0000003FFF80
0000003FFF80
0000003FFF80
0000003FFF80
0000003FFF80
0000007FFF80
E00000FFFF00
E00000FFFF00
F00001FFFE00
F80003FFFE00
FE000FFFFC00
FFC01FFFF800
FFFFFFFFF800
FFFFFFFFF000
FFFFFFFFE000
FFFFFFFFC000
FFFFFFFF8000
FFFFFFFF8000
3FFFFFFE0000
0FFFFFFC0000
03FFFFF80000
00FFFFE00000
000FFF800000
ENDCHAR
STARTCHAR 0036
ENCODING 54
SWIDTH 495 0
DWIDTH 44 0
BBX 45 64 6 -2
BITMAP
000000000C00
000000007F00
0000000FFF80
0000001FFFC0
0000007FFFE0
000001FFFFF0
000003FFFFF0
00000FFFFFF8
00001FFFFFF0
00003FFFFFF0
0000FFFFFFE0
0001FFFFFFC0
0003FFFC0400
0007FFE00000
000FFF800000
001FFF000000
003FFE000000
003FFC000000
00FFF8000000
01FFF8000000
01FFF0000000
03FFF0000000
03FFF8000000
07FFF8000000
07FFFFFC0000
0FFFFFFF0000
0FFFFFFFC000
0FFFFFFFE000
1FFFFFFFF000
1FFFFFFFF800
1FFFFFFFFC00
3FFFFFFFFC00
3FFFFFFFFE00
3FFFFFFFFF00
7FFFFFFFFF80
7FFFE0FFFF80
7FFFC07FFF80
7FFF803FFF80
FFFF001FFF80
FFFE001FFF80
FFFE001FFF80
FFFC001FFF80
FFFC001FFF80
FFFC001FFF80
FFF8001FFF80
FFF8001FFF00
FFF8003FFF00
FFF0003FFF00
7FF8007FFE00
FFF8007FFE00
FFF800FFFE00
FFFC01FFFC00
FFFE03FFF800
FFFF0FFFF800
7FFFFFFFF000
7FFFFFFFE000
3FFFFFFFC000
3FFFFFFF8000
1FFFFFFF0000
07FFFFFE0000
03FFFFF80000
01FFFFE00000
007FFF000000
001FF8000000
ENDCHAR
STARTCHAR 0037
ENCODING 55
SWIDTH 416 0
DWIDTH 37 0
BBX 47 58 2 2
BITMAP
0000000FFFFE
0003FFFFFFFC
000FFFFFFFFC
000FFFFFFFFC
000FFFFFFFFC
000FFFFFFFF8
000FFFFFFFF8
001FFFFFFFF8
001FFFFFFFF0
001FFFFFFFF0
003FFFFFFFF0
003FFFFFFFE0
003FFFFFFFE0
003FFFFFFFE0
007FFFFFFFE0
007F000FFFC0
00780007FFC0
0070000FFFC0
0000001FFFC0
0000003FFF80
0000007FFF80
0000007FFF00
000000FFFF00
000001FFFE00
000003FFFE00
000007FFFC00
000007FFFC00
00000FFFF800
00001FFFF800
00001FFFF000
00003FFFF000
00007FFFF000
0000FFFFE000
0000FFFFC000
0001FFFFC000
0003FFFFC000
0007FFFF8000
000FFFFF8000
000FFFFF0000
001FFFFF0000
003FFFFE0000
007FFFFE0000
007FFFFC0000
00FFFFFC0000
01FFFFF80000
01FFFFF80000
03FFFFF00000
07FFFFF00000
07FFFFE00000
0FFFFFE00000
1FFFFFE00000
1FFFFFC00000
3FFFFFE00000
3FFFFFC00000
7FFFFE800000
7FFF80000000
FFF000000000
FC0000000000
ENDCHAR
STARTCHAR 0038
ENCODING 56
SWIDTH 495 0
DWIDTH 44 0
BBX 41 63 6 0
BITMAP
0000000E0000
000000FFE000
000007FFF800
00001FFFFC00
00007FFFFE00
0000FFFFFE00
0001FFFFFE00
0003FFFFFE00
0007FFFFFE00
0007FFFFFE00
000FFFFFFE00
000FFF03FE00
000FFF03FE00
000FFF07FE00
000FFE07FE00
000FFE0FFC00
000FFE1FFC00
000FFF3FF800
000FFFFFF000
0007FFFFE000
0007FFFFC000
0007FFFFC000
000FFFFFC000
001FFFFFE000
003FFFFFE000
007FFFFFF000
00FFFFFFF800
00FFFFFFFC00
01FFFFFFFC00
03FFFFFFFC00
03FFFFFFFE00
07FFFFFFFE00
0FFFFFFFFF00
0FFFE1FFFF00
1FFFC07FFF00
1FFF803FFF80
3FFF001FFF80
3FFF001FFF80
7FFE000FFF80
7FFE000FFF80
FFFE000FFF80
FFFC000FFF80
FFFE000FFF80
FFFE000FFF80
FFFF001FFF80
FFFF001FFF80
FFFF803FFF80
FFFFC0FFFF00
FFFFFFFFFF00
FFFFFFFFFF00
FFFFFFFFFE00
FFFFFFFFFC00
FFFFFFFFFC00
7FFFFFFFF800
7FFFFFFFF000
3FFFFFFFE000
1FFFFFFFC000
0FFFFFFF8000
07FFFFFF0000
01FFFFFE0000
007FFFF80000
000FFF800000
0001FE000000
ENDCHAR
STARTCHAR 0039
ENCODING 57
SWIDTH 461 0
DWIDTH 41 0
BBX 42 59 7 1
BITMAP
000003FE0000
0007FFFFE000
000FFFFFF800
001FFFFFFE00
007FFFFFFF00
007FFFFFFF80
00FFFFFFFF80
01FFFFFFFF80
01FFFFFFFFC0
01FFFFFFFFC0
03FFF87FFFC0
03FFC03FFFC0
03FFC00FFFC0
07FFC007FFC0
07FF8007FFC0
07FF8007FFC0
0FFF800FFFC0
0FFF800FFFC0
1FFF000FFF80
1FFF000FFF80
1FFF001FFF80
1FFF803FFF80
1FFF807FFF80
1FFFC1FFFF80
1FFFFFFFFF00
1FFFFFFFFF00
1FFFFFFFFF00
1FFFFFFFFF00
0FFFFFFFFF00
0FFFFFFFFE00
07FFFFFFFE00
01FFFFFFFE00
007FFFFFFC00
0000FFFFFC00
000000FFFC00
0000003FFC00
0000003FF800
0000007FF800
0000007FF800
0000007FF800
000000FFF000
000000FFF000
F00001FFF000
FC0003FFF000
FE000FFFE000
FF803FFFE000
FFF9FFFFC000
FFFFFFFFC000
FFFFFFFF8000
FFFFFFFF8000
FFFFFFFF0000
FFFFFFFF0000
FFFFFFFE0000
FFFFFFFC0000
FFFFFFF80000
7FFFFFF80000
1FFFFFF00000
07FFFFC00000
01FFFF000000
ENDCHAR
STARTCHAR 003A
ENCODING 58
SWIDTH 202 0
DWIDTH 18 0
BBX 22 45 3 -1
BITMAP
000180
001FF0
007FF0
00FFF8
01FFF8
01FFFC
03FFFC
03FFFC
03FFFC
03FFFC
03FFFC
03FFF8
03FFF0
03FFE0
01FFC0
00FF00
002000
000000
000000
000000
000000
000000
000000
000000
000000
000000
000000
000000
003000
03FC00
0FFE00
1FFF00
3FFF00
7FFF00
FFFF00
FFFF00
FFFF00
FFFF00
FFFF00
FFFE00
7FFE00
7FFC00
3FF800
1FE000
020000
ENDCHAR
STARTCHAR 003B
ENCODING 59
SWIDTH 202 0
DWIDTH 18 0
BBX 30 59 -5 -15
BITMAP
00000380
00001FF0
00003FFC
00007FFC
0000FFFC
0001FFFC
0001FFFC
0003FFFC
0003FFFC
0003FFFC
0003FFF8
0007FFF8
0003FFF0
0001FFF0
0000FFC0
00007F80
00000600
00000000
00000000
00000000
00000000
00000000
00000000
00000000
00000000
00000000
00000000
00000000
00007000
0003FC00
000FFE00
003FFE00
003FFF00
007FFF00
007FFF00
007FFF00
007FFF00
007FFF00
007FFF00
007FFE00
007FFE00
007FFC00
003FF800
003FF000
001FE000
003FC000
007F8000
03FF8000
0FFF0000
3FFE0000
FFFE0000
7FFC0000
3FF80000
1FF80000
1FF00000
0FE00000
07C00000
03C00000
01800000
ENDCHAR
STARTCHAR 003C
ENCODING 60
SWIDTH 472 0
DWIDTH 42 0
BBX 44 50 8 6
BITMAP
000000000060
0000000000F0
0000000007F0
000000001FF0
000000007FF0
00000001FFF0
00000007FFE0
0000001FFFE0
0000007FFFE0
000001FFFFE0
00000FFFFFE0
00003FFFFFC0
0000FFFFFFC0
0003FFFFFFC0
001FFFFFFFC0
007FFFFFFF80
03FFFFFFFF80
0FFFFFFFFF80
3FFFFFFFFF00
7FFFFFFFF000
7FFFFFFE0000
7FFFFFC00000
FFFFFC000000
FFFFE0000000
FFFF80000000
FFFFE0000000
FFFFFC000000
FFFFFF800000
FFFFFFF00000
3FFFFFFE0000
1FFFFFFFC000
0FFFFFFFF000
07FFFFFFF800
03FFFFFFF800
01FFFFFFF800
007FFFFFF000
003FFFFFF000
001FFFFFF000
000FFFFFF000
0003FFFFE000
0001FFFFE000
0000FFFFE000
00003FFFE000
00001FFFE000
00000FFFE000
000003FFE000
000000FFE000
0000003FE000
0000000FC000
000000004000
ENDCHAR
STARTCHAR 003D
ENCODING 61
SWIDTH 472 0
DWIDTH 42 0
BBX 46 32 5 15
BITMAP
000041FFFFFC
01FFFFFFFFFC
03FFFFFFFFFC
03FFFFFFFFFC
03FFFFFFFFFC
03FFFFFFFFF8
03FFFFFFFFF8
07FFFFFFFFF8
07FFFFFFFFF8
07FFFFFFFFF8
07FFFFFFFFF0
0FFFFFFFFCE0
01FFC0000000
000000000000
000000000000
000000000000
000000000000
000000000000
000000000C00
00000FFFFFC0
3FFFFFFFFFC0
3FFFFFFFFFC0
3FFFFFFFFF80
7FFFFFFFFF80
7FFFFFFFFF80
7FFFFFFFFF80
7FFFFFFFFF00
7FFFFFFFFF00
7FFFFFFFFF00
7FFFFFFFFF00
FFFFFFFFFE00
3FFFE0000000
ENDCHAR
STARTCHAR 003E
ENCODING 62
SWIDTH 472 0
DWIDTH 42 0
BBX 44 50 4 6
BITMAP
003000000000
007F00000000
007FC0000000
007FF0000000
007FFC000000
007FFE000000
007FFF800000
007FFFC00000
007FFFE00000
00FFFFF80000
00FFFFFC0000
00FFFFFE0000
00FFFFFF8000
00FFFFFFC000
01FFFFFFE000
01FFFFFFF000
01FFFFFFF800
01FFFFFFFE00
00FFFFFFFF00
003FFFFFFF80
0007FFFFFFC0
0000FFFFFFE0
00001FFFFFF0
000003FFFFF0
0000007FFFF0
0000001FFFF0
0000007FFFE0
000003FFFFE0
00003FFFFFE0
0007FFFFFFE0
01FFFFFFFFC0
1FFFFFFFFFC0
1FFFFFFFFF00
1FFFFFFFF800
3FFFFFFFE000
3FFFFFFF0000
3FFFFFFC0000
7FFFFFF00000
7FFFFF800000
7FFFFE000000
7FFFF8000000
7FFFE0000000
FFFF80000000
FFFE00000000
FFF800000000
FFE000000000
FF0000000000
FC0000000000
F00000000000
400000000000
ENDCHAR
STARTCHAR 003F
ENCODING 63
SWIDTH 461 0
DWIDTH 41 0
BBX 40 65 11 -1
BITMAP
0000F80000
000FFFFE00
003FFFFFE0
00FFFFFFFC
01FFFFFFFE
03FFFFFFFE
07FFFFFFFE
0FFFFFFFFF
0FFFFFFFFF
1FFFFFFFFF
1FFFFFFFFF
3FFFFFFFFF
3FFFFFFFFF
7FFFFFFFFF
7FFE01FFFE
7FF800FFFE
3FE000FFFE
1F8000FFFE
0E0000FFFE
000000FFFC
000000FFFC
000001FFFC
000001FFF8
000003FFF8
000007FFF0
00000FFFF0
00003FFFE0
0001FFFFE0
001FFFFFC0
003FFFFF80
007FFFFF00
00FFFFFE00
01FFFFF800
01FFFFE000
03FFFF8000
03FFFF0000
03FFFC0000
03FFF80000
07FFF00000
07FFE00000
07FFE00000
07FFC00000
07FFC00000
07FFC00000
01FC000000
0000000000
0000000000
0000000000
0000000000
0000000000
00FC000000
07FE000000
0FFF000000
3FFF000000
3FFF000000
7FFF800000
7FFF800000
FFFF800000
FFFF000000
7FFF000000
7FFE000000
7FFC000000
3FF8000000
1FE0000000
0700000000
ENDCHAR
STARTCHAR 0040
ENCODING 64
SWIDTH 663 0
DWIDTH 59 0
BBX 60 77 5 -13
BITMAP
000000003FFE0000
00000007FFFFC000
0000003FFFFFF000
000000FFFFFFF800
000007FFFFFFFE00
00000FFFFFFFFF00
00003FFFFFFFFF80
00007FFFFFFFFF80
0000FFFFFFFFFFC0
0001FFFFFFFFFFC0
0003FFFFFFFFFFC0
0007FFFFFFFFFFE0
000FFFFFFFFFFFE0
001FFFFFFFFFFFE0
001FFFFFFFFFFFE0
003FFFFFFFFFFFE0
007FFFFFFFFFFFF0
007FFFFE003FFFF0
00FFFFF0000FFFF0
00FFFFC0000FFFF0
01FFFF800007FFF0
01FFFF000007FFF0
03FFFE0000FFFFF0
03FFFC000FFFFFF0
03FFF8007FFFFFF0
07FFF001FFFFFFF0
07FFE003FFFFFFF0
07FFE007FFFFFFF0
0FFFE00FFFFFFFF0
0FFFC01FFFFFFFF0
0FFFC03FFE0FFFF0
1FFFC07FFC07FFF0
1FFFC0FFF007FFE0
1FFF80FFF003FFE0
1FFF80FFE003FFE0
3FFF81FFC003FFE0
3FFF81FFC003FFE0
3FFF83FF8007FFC0
3FFF03FF8007FFC0
3FFF03FF8007FFC0
3FFF03FF800FFF80
7FFF07FF801FFF80
7FFF07FF803FFF00
7FFE07FFC0FFFF00
7FFE07FFC3FFFF00
7FFE03FFFFFFFE00
7FFE03FFFFFFFC00
FFFE03FFFFFFF800
FFFE01FFFFFFF000
FFFE01FFFFFFE000
FFFE00FFFFFF8000
FFFE00FFFFFE0000
FFFE007FFFF80000
FFFF001FFFE00000
FFFF0003FE000000
FFFF000000000000
FFFF000000000000
FFFF800000000000
FFFF800000300000
FFFFC00001F00000
FFFFC0001FF80000
FFFFF1FFFFFC0000
FFFFFFFFFFFE0000
FFFFFFFFFFFE0000
7FFFFFFFFFFF0000
7FFFFFFFFFFF0000
7FFFFFFFFFFF0000
7FFFFFFFFFFE0000
3FFFFFFFFFFC0000
3FFFFFFFFFF00000
1FFFFFFFFFE00000
1FFFFFFFFF800000
0FFFFFFFFE000000
03FFFFFFFC000000
00FFFFFFF0000000
001FFFFFC0000000
00007FFE00000000
ENDCHAR
STARTCHAR 0041
ENCODING 65
SWIDTH 630 0
DWIDTH 56 0
BBX 54 62 1 -2
BITMAP
00000000007C00
0000000007FC00
0000000007FC00
000000000FFE00
000000001FFE00
000000001FFE00
000000003FFE00
000000003FFE00
000000007FFE00
000000007FFE00
00000000FFFE00
00000001FFFE00
00000001FFFE00
00000003FFFE00
00000003FFFE00
00000007FFFE00
0000000FFFFE00
0000000FFFFE00
0000001FFFFE00
0000001FFFFE00
0000003FFFFE00
0000007FFFFF00
0000007FFFFF00
000000FFFFFF00
000000FFFFFF00
000001FFFFFF00
000003FFFFFF00
000003FFFFFF00
000007FFFFFF00
00000FFFFFFF00
00000FFFFFFF00
00001FFFFFFF00
00003FF0FFFF00
00003FF0FFFF80
00007FE0FFFF80
0000FFC0FFFF80
0000FF807FFF80
0001FF007FFF80
0003FF007FFF80
0003FE00FFFF80
0007FC07FFFFC0
000FFFFFFFFFC0
000FFFFFFFFFC0
001FFFFFFFFFC0
001FFFFFFFFFC0
003FFFFFFFFFC0
007FFFFFFFFFE0
007FFFFDFFFFE0
00FFFF81FFFFE0
01FFFE01FFFFE0
01FFF801FFFFE0
03FFF001FFFFF0
07FFF001FFFFF0
07FFE001FFFFF0
0FFFE001FFFFF0
1FFFC001FFFFF8
1FFFC001FFFFF8
3FFFC000FFFFF8
7FFFC000FFFFFC
7FFFC000FFFFFC
FFFF0000F80070
FE000000000000
ENDCHAR
STARTCHAR 0042
ENCODING 66
SWIDTH 517 0
DWIDTH 46 0
BBX 40 60 9 1
BITMAP
000FFF8000
003FFFFC00
01FFFFFF80
07FFFFFFE0
07FFFFFFF0
0FFFFFFFF0
0FFFFFFFF8
0FFFFFFFF0
0FFFFFFFF8
0FFFFFFFF8
0FFFFFFFFC
0FFFFFFFFC
1FFFFFFFFC
1FFFFFFFFC
1FFFE0FFFC
0FFFC07FFC
0FFFC03FFC
0FFFC03FFC
0FFFC03FF8
0FFFC03FF8
0FFFC03FF0
0FFFC07FF0
1FFFC07FE0
1FFFC0FFE0
1FFFE1FFE0
1FFFE7FFC0
1FFFFFFF00
1FFFFFFC00
1FFFFFFC00
1FFFFFFE00
3FFFFFFFC0
3FFFFFFFF0
3FFFFFFFF8
3FFFFFFFF8
3FFFFFFFFC
3FFFFFFFFC
3FFFE1FFFE
3FFFE03FFE
3FFFC03FFF
7FFFC03FFF
7FFFC03FFF
7FFFC07FFF
7FFFC07FFF
7FFFC0FFFF
7FFF81FFFE
7FFF83FFFE
7FFF8FFFFE
7FFF9FFFFC
7FFFBFFFFC
7FFFFFFFF8
FFFFFFFFF0
FFFFFFFFE0
FFFFFFFFC0
FFFFFFFF00
FFFFFFFE00
FFFFFFFC00
FFFFFFF800
FFFFFFC000
FFFFF80000
7FFE000000
ENDCHAR
STARTCHAR 0043
ENCODING 67
SWIDTH 483 0
DWIDTH 43 0
BBX 47 60 7 1
BITMAP
000000010000
0000001FFC00
000000FFFF80
000007FFFFC0
00003FFFFFF0
0000FFFFFFF8
0003FFFFFFFC
0007FFFFFFFC
000FFFFFFFFE
003FFFFFFFFC
007FFFFFFFFC
007FFFFFFFFC
00FFFFFFFFF8
01FFFFFFFFF8
01FFFFFFFFF8
03FFFFFFFFF0
07FFFFFFFFF0
07FFFFFFC660
0FFFFFF80000
0FFFFFC00000
1FFFFF000000
1FFFFE000000
1FFFFC000000
1FFFF8000000
1FFFF0000000
3FFFF0000000
3FFFF0000000
3FFFE0000000
7FFFE0000000
7FFFE0000000
7FFFE0000000
7FFFE0000000
7FFFF0000000
FFFFF8000200
FFFFFC00FF00
FFFFFEFFFF00
FFFFFFFFFF00
FFFFFFFFFF00
FFFFFFFFFE00
FFFFFFFFFE00
FFFFFFFFFE00
FFFFFFFFFE00
FFFFFFFFFC00
FFFFFFFFFC00
FFFFFFFFFC00
FFFFFFFFFC00
7FFFFFFFF800
7FFFFFFFF800
7FFFFFFFF800
7FFFFFFFF800
3FFFFFFFF000
3FFFFFFFE000
3FFFFFFFC000
1FFFFFFF0000
1FFFFFFF0000
1FFFFFFE0000
0FFFFFF80000
00FFFFE00000
007FFF800000
0000FC000000
ENDCHAR
STARTCHAR 0044
ENCODING 68
SWIDTH 461 0
DWIDTH 41 0
BBX 39 61 9 0
BITMAP
001F800000
00FFFE0000
03FFFF8000
07FFFFF000
0FFFFFFC00
0FFFFFFF00
0FFFFFFF00
0FFFFFFF80
0FFFFFFFC0
1FFFFFFFC0
1FFFFFFFE0
1FFFFFFFE0
1FFFFFFFF0
1FFFFFFFF0
3FFFFFFFF8
3FFFFFFFF8
3FFFFFFFFC
3FFFE1FFFC
3FFFC07FFC
3FFFC01FFC
3FFF801FFC
7FFF801FFE
7FFF801FFE
7FFF001FFE
7FFF801FFC
7FFF803FFC
7FFF803FFC
7FFF003FFC
7FFF007FFC
7FFF00FFF8
7FFF00FFF0
7FFF01FFF0
7FFF03FFE0
FFFF07FFE0
FFFF0FFFC0
FFFF1FFF80
FFFFFFFF80
FFFFFFFF00
FFFFFFFE00
FFFFFFFC00
FFFFFFFC00
FFFFFFF800
FFFFFFF000
FFFFFFE000
FFFFFFE000
FFFFFFC000
FFFFFF8000
FFFFFF0000
FFFFFE0000
FFFFFC0000
FFFFF80000
FFFFF00000
FFFFE00000
FFFFC00000
FFFF000000
7FFC000000
7FF0000000
7F80000000
7E00000000
7800000000
4000000000
ENDCHAR
STARTCHAR 0045
ENCODING 69
SWIDTH 495 0
DWIDTH 44 0
BBX 35 62 11 0
BITMAP
0007FFE000
003FFFFF80
01FFFFFFE0
0FFFFFFFE0
1FFFFFFFE0
3FFFFFFFC0
3FFFFFFFC0
1FFFFFFF80
1FFFFFFF80
1FFFFFFF00
1FFFFFFF00
1FFFFFFF00
1FFFFFFE00
1FFFFFFE00
1FFFFFFC00
1FFFFFFE00
1FFFFFFE00
1FFFFFFC00
1FFFFFF800
1FFFE00000
1FFFC00000
1FFF800000
1FFF800000
1FFFC00000
1FFFC00000
1FFFC1F000
1FFFFFF000
1FFFFFE000
1FFFFFE000
1FFFFFE000
1FFFFFE000
3FFFFFE000
3FFFFFE000
3FFFFFE000
3FFFFEE000
3FFF800000
3FFF800000
3FFF800000
3FFF800300
3FFFFFFF80
3FFFFFFF80
3FFFFFFF80
7FFFFFFF80
3FFFFFFF80
3FFFFFFF80
3FFFFFFF80
3FFFFFFF80
7FFFFFFF80
7FFFFFFF80
7FFFFFFF80
7FFFFFFF80
7FFFFFFF80
7FFFFFFF80
7FFFFFFF80
FFFFFFFF80
FFFFFFFF00
FFFFFFF800
FFFFFF0000
FFFFF00000
FFFF000000
7FE0000000
7000000000
ENDCHAR
STARTCHAR 0046
ENCODING 70
SWIDTH 506 0
DWIDTH 45 0
BBX 50 63 4 0
BITMAP
00000000010000
00000003FFFF80
000027FFFFFFC0
0001FFFFFFFFC0
000FFFFFFFFFC0
003FFFFFFFFFC0
007FFFFFFFFFC0
007FFFFFFFFFC0
007FFFFFFFFFC0
007FFFFFFFFFC0
007FFFFFFFFFC0
00FFFFFFFFFFC0
00FFFFFFFFFFC0
00FFFFFFFFFFC0
00FFFFFF800000
01FFFFF0000000
01FFFF80000000
01FFFF00000000
01FFFF00000000
01FFFE00000000
01FFFE00000000
03FFFE00000000
03FFFC00000000
03FFFC00000000
03FFFC7F000000
03FFFFFF000000
07FFFFFF000000
07FFFFFE000000
07FFFFFE000000
07FFFFFC000000
07FFFFFC000000
07FFFFFC000000
0FFFFFFC000000
0FFFFFFC000000
0FFFFFFC000000
1FFFFFF8000000
1FFFF838000000
1FFFE010000000
1FFFE000000000
1FFFC000000000
3FFFC000000000
3FFFC000000000
3FFF8000000000
3FFF8000000000
7FFF8000000000
7FFF8000000000
7FFF8000000000
7FFF0000000000
7FFF0000000000
7FFF0000000000
7FFF0000000000
FFFF0000000000
FFFF0000000000
FFFF0000000000
FFFF0000000000
FFFF0000000000
FFFF0000000000
FFFF0000000000
FFFF0000000000
FFFF0000000000
FFFF8000000000
FFF80000000000
F0000000000000
ENDCHAR
STARTCHAR 0047
ENCODING 71
SWIDTH 506 0
DWIDTH 45 0
BBX 48 60 5 1
BITMAP
0000001EF800
0000007FFF80
000000FFFFE0
000003FFFFF8
000007FFFFF8
00000FFFFFFC
00001FFFFFFE
00003FFFFFFF
00007FFFFFFF
0000FFFFFFFF
0001FFFFFFFF
0001FFFFFFFE
0003FFFFFFFC
0007FFFF7FF8
0007FFF80FE0
000FFFC00000
001FFF000000
001FFE000000
003FFC000000
003FF8000000
007FF8000000
007FF0000000
00FFF0000000
00FFE0000000
01FFE0000000
01FFC00000F0
03FFC000FFFC
03FF800FFFFC
03FF807FFFF8
07FF807FFFF8
07FF807FFFF0
0FFF007FFFF0
0FFF007FFFF0
1FFF007FFFF0
1FFF007FFFF0
1FFF007FFFE0
3FFF007FFFE0
3FFF007FFFE0
3FFF007FFFE0
7FFF007FFFC0
7FFF80FFFFC0
7FFFC3FFFFC0
FFFFFFFFFFC0
FFFFFFFFFF80
FFFFFFFFFF80
FFFFFFFFFF80
FFFFFFFFFF80
FFFFFFFFFF80
FFFFFFFFFE00
FFFFFFFFFC00
FFFFFFFFF800
FFFFFFFFE000
7FFFFFFF8000
7FFFFFFE0000
3FFFFFF80000
1FFFFFE00000
0FFFFF800000
07FFFE000000
03FFF0000000
01FE00000000
ENDCHAR
STARTCHAR 0048
ENCODING 72
SWIDTH 562 0
DWIDTH 50 0
BBX 59 59 2 1
BITMAP
0000003FF0000000
000007FFF8000000
00003FFFF007FFC0
00007FFFE00FFFE0
0000FFFFC01FFFC0
0000FFFFC01FFFC0
0000FFFF803FFFC0
0000FFFFE03FFFC0
0000FFFFE03FFF80
0000FFFFC03FFF80
0000FFFFC07FFF80
0000FFFF807FFF80
0001FFFF80FFFF00
0001FFFF80FFFF00
0001FFFF00FFFF00
0003FFFF01FFFE00
0003FFFF01FFFE00
0003FFFF01FFFE00
0007FFFF01FFFC00
0007FFFF01FFFC00
0007FFFE03FFFC00
000FFFFE07FFFC00
000FFFFF9FFFF800
000FFFFFFFFFF800
000FFFFFFFFFF800
001FFFFFFFFFF000
001FFFFFFFFFF000
001FFFFFFFFFF000
003FFFFFFFFFE000
003FFFFFFFFFE000
003FFFFFFFFFE000
007FFFFFFFFFE000
007FFFFFFFFFE000
007FFFFFFFFFE000
00FFFFFFFFFFE000
00FFFFFFFFFFE000
00FFFFFFFFFFE000
01FFFFFFFFFFE000
01FFFFFFFFFFC000
01FFFFDFFFFFC000
01FFFF80FFFFC000
03FFFF80FFFF8000
03FFFF81FFFF8000
03FFFF81FFFF8000
03FFFF81FFFF0000
07FFFF01FFFF0000
07FFFF01FFFF0000
07FFFF03FFFE0000
0FFFFE03FFFE0000
0FFFFE03FFFE0000
0FFFFE07FFFC0000
1FFFFE07FFFC0000
1FFFFE07FFFC0000
3FFFFE07FFF80000
3FFFFC07FFF80000
3FFFFC07FFF80000
7FFFF80FFE000000
FFFFF81FF0000000
001FE01C00000000
ENDCHAR
STARTCHAR 0049
ENCODING 73
SWIDTH 326 0
DWIDTH 29 0
BBX 39 60 2 0
BITMAP
000007FFC0
00001FFFFE
00003FFFFE
00003FFFFC
00003FFFF8
00003FFFF8
00003FFFF0
00003FFFF0
00007FFFF0
00007FFFE0
0000FFFFE0
0000FFFFE0
0000FFFFC0
0001FFFFC0
0001FFFFC0
0001FFFF80
0003FFFF80
0003FFFF80
0003FFFF00
0007FFFF00
0007FFFF00
0007FFFF00
000FFFFE00
000FFFFE00
000FFFFE00
001FFFFC00
001FFFFC00
001FFFFC00
001FFFFC00
003FFFF800
003FFFF800
003FFFF800
007FFFF800
007FFFF000
007FFFF000
007FFFF000
00FFFFF000
00FFFFF000
00FFFFE000
00FFFFE000
01FFFFE000
01FFFFE000
01FFFFE000
01FFFFE000
03FFFFC000
03FFFFC000
03FFFFC000
03FFFFC000
07FFFFC000
07FFFF0000
07FFFF0000
0FFFFE0000
0FFFFE0000
0FFFFE0000
1FFFFE0000
1FFFFE0000
3FFFF80000
7FFFE00000
FFF8000000
FC00000000
ENDCHAR
STARTCHAR 004A
ENCODING 74
SWIDTH 450 0
DWIDTH 40 0
BBX 46 61 4 -1
BITMAP
0000000FE03C
0000000FFFFC
0000001FFFFC
0000001FFFFC
0000003FFFFC
0000003FFFFC
0000007FFFFC
0000007FFFFC
000000FFFFF8
000000FFFFF8
000000FFFFF8
000001FFFFF8
000001FFFFF8
000003FFFFF0
000003FFFFF0
000003FFFFF0
000007FFFFF0
000007FFFFF0
000007FFFFF0
000007FFFFF0
000007FFFFF0
00000FFFFFE0
00000FFFFFE0
00000FFFFFE0
00000FFFFFE0
00000FFFFFE0
00001FFFFFE0
00000FFFFFC0
00001FFFFFC0
00001FFFFFC0
00001FFFFFC0
00000FFFFFC0
00000FFFFF80
00000FFFFF80
00000FFFFF80
00000FFFFF00
00000FFFFF00
00000FFFFF00
00000FFFFE00
00000FFFFE00
03FC0FFFFE00
3FFE0FFFFC00
7FFE0FFFFC00
7FFF0FFFFC00
7FFF0FFFF800
7FFF1FFFF800
FFFF9FFFF000
FFFF8FFFE000
FFFFFFFFC000
FFFFFFFFC000
7FFFFFFF8000
7FFFFFFF0000
3FFFFFFE0000
3FFFFFFC0000
3FFFFFF80000
1FFFFFF00000
07FFFFC00000
03FFFF000000
00FFFF000000
001FF8000000
000200000000
ENDCHAR
STARTCHAR 004B
ENCODING 75
SWIDTH 551 0
DWIDTH 49 0
BBX 57 62 2 -1
BITMAP
0000000000004000
000000001001C000
0007FFFFF003E000
000FFFFFF007E000
000FFFFFF00FF000
0007FFFFF01FF800
0007FFFFE03FFE80
0007FFFFE07FFF80
000FFFFFE0FFFF80
000FFFFFC1FFFF00
000FFFFFC3FFFE00
001FFFFFC7FFFC00
001FFFFFC7FFF800
001FFFFFCFFFF000
001FFFFF9FFFE000
003FFFFF9FFFC000
003FFFFFBFFF8000
003FFFFFBFFF0000
003FFFFFFFFE0000
007FFFFFFFFC0000
007FFFFFFFF80000
007FFFFFFFF00000
007FFFFFFFE00000
007FFFFFFFE00000
00FFFFFFFFC00000
00FFFFFFFF800000
00FFFFFFFF800000
00FFFFFFFF000000
01FFFFFFFE000000
01FFFFFFFC000000
01FFFFFFFC000000
03FFFFFFF8000000
03FFFFFFE0000000
03FFFFFFE0000000
07FFFFFFF0000000
07FFFFFFF8000000
07FFFFFFF8000000
07FFFFFFFC000000
0FFFFFFFFE000000
0FFFFFFFFE000000
0FFFFFFFFF000000
0FFFFFFFFF800000
0FFFFFFFFF800000
1FFFFFFFFFC00000
1FFFFFFFFFE00000
1FFFFFFFFFE00000
1FFFFFCFFFF00000
1FFFFFC7FFF00000
3FFFFF87FFF80000
3FFFFF87FFF80000
3FFFFF83FFF80000
3FFFFF03FFFC0000
3FFFFF01FFFC0000
7FFFFF01FFFC0000
7FFFFF01FFFC0000
7FFFFF00FFFE0000
7FFFFF00FFFE0000
7FFFFF007FFE0000
FFFFFF007F060000
FFFFFE007E000000
FFFFF800F8000000
0001000070000000
ENDCHAR
STARTCHAR 004C
ENCODING 76
SWIDTH 506 0
DWIDTH 45 0
BBX 46 62 1 -1
BITMAP
000000003E00
0000001FFFF0
000001FFFFF0
000003FFFFF0
000007FFFFE0
00000FFFFFE0
00000FFFFFC0
00001FFFFFC0
00001FFFFFC0
00003FFFFF80
00003FFFFF80
00003FFFFF80
00003FFFFF00
00007FFFFF00
00007FFFFE00
00007FFFFE00
0000FFFFFE00
0000FFFFFC00
0000FFFFFC00
0000FFFFFC00
0001FFFFF800
0001FFFFF800
0001FFFFF000
0001FFFFF000
0003FFFFF000
0003FFFFE000
0007FFFFE000
0007FFFFC000
0007FFFFC000
000FFFFFC000
000FFFFF8000
001FFFFF8000
001FFFFF8000
001FFFFF0000
003FFFFF0000
003FFFFE0000
007FFFFE0000
007FFFFE0000
007FFFFC0000
00FFFFFC0000
00FFFFFC0000
00FFFFFC0000
01FFFFFC02F0
01FFFFFFFFFC
01FFFFFFFFF8
03FFFFFFFFF8
03FFFFFFFFF8
03FFFFFFFFF0
07FFFFFFFFF0
07FFFFFFFFF0
07FFFFFFFFF0
07FFFFFFFFF0
07FFFFFFFFF0
0FFFFFFFFFF0
0FFFFFFFFFF0
0FFFFFFFFFF0
0FFFFFFFFFF0
1FFFFFFFFFE0
1FFFFFFFF000
1FFFFFFFF000
3FFF00000000
FF0000000000
ENDCHAR
STARTCHAR 004D
ENCODING 77
SWIDTH 652 0
DWIDTH 58 0
BBX 60 62 1 -1
BITMAP
0000038000000000
000007C000000070
000007C0000001F0
000007E0000003F0
00000FE000000FF0
00000FF000001FF0
00000FF000001FF0
00000FF800003FF0
00001FF800007FF0
00001FFC00007FF0
00001FFC0000FFF0
00003FFC0001FFF0
00003FFE0003FFF0
00007FFE0003FFF0
00007FFF0007FFF0
00007FFF000FFFE0
0000FFFF000FFFE0
0000FFFF801FFFF0
0001FFFF803FFFF0
0001FFFFC07FFFF0
0001FFFFC0FFFFF0
0003FFFFC0FFFFF0
0003FFFFE1FFFFF0
0003FFFFE3FFFFF0
0007FFFFE7FFFFF0
0007FFFFFFFFFFE0
0007FFFFFFFFFFE0
000FFFFFFFFFFFE0
000FFFFFFFFFFFC0
000FFFFFFFFFFFC0
001FFFFFFFFFFFC0
001FFFFFFFFFFFC0
001FFFFFFFFFFFC0
003FFFFFFFFFFFC0
003FFFFFFFFFFFC0
007FFFF9FEFFFFC0
007FFFF1FCFFFFC0
007FFFF0FDFFFFC0
00FFFFE0F9FFFF80
00FFFFC071FFFF80
00FFFFC001FFFF80
01FFFF8003FFFF80
01FFFF8003FFFF80
01FFFF0003FFFF80
03FFFE0007FFFF80
03FFFE0007FFFF80
07FFFC0007FFFF80
07FFFC000FFFFF80
07FFF8000FFFFF80
0FFFF8001FFFFF80
0FFFF0001FFFFF80
0FFFF0001FFFFF80
1FFFE0001FFFFF80
1FFFE0001FFFFF80
3FFFC0001FFFFF80
3FFFC0003FFFFF80
3FFF80003FFFFF80
7FFF80003FFFFF00
7FFF00003FFFE000
7FFF000000180000
7F3E000000000000
C000000000000000
ENDCHAR
STARTCHAR 004E
ENCODING 78
SWIDTH 562 0
DWIDTH 50 0
BBX 59 58 2 1
BITMAP
000007FC0001FF00
00003FFFC007FFC0
00007FFFE03FFFC0
00007FFFE07FFFE0
0000FFFFE07FFFE0
0000FFFFC07FFFC0
0000FFFFC07FFFC0
0001FFFFC07FFFC0
0001FFFFC0FFFF80
0001FFFFC0FFFF80
0003FFFF80FFFF80
0003FFFF80FFFF00
0003FFFF81FFFF00
0007FFFF81FFFF00
0007FFFF81FFFE00
000FFFFF83FFFE00
000FFFFF83FFFE00
000FFFFFC3FFFC00
001FFFFFC3FFFC00
001FFFFFC3FFFC00
001FFFFFC7FFF800
003FFFFFC7FFF800
003FFFFFC7FFF800
003FFFFFC7FFF000
007FFFFFCFFFF000
007FFFFFCFFFF000
007FFFFFCFFFE000
00FFFFFFCFFFE000
00FFFFFFDFFFE000
00FFFFFFDFFFC000
00FFFFFFDFFFC000
01FFFFFFFFFFC000
01FFFFFFFFFFC000
01FFFF7FFFFF8000
03FFFF7FFFFF8000
03FFFF7FFFFF8000
03FFFE7FFFFF0000
03FFFE7FFFFF0000
07FFFE7FFFFF0000
07FFFE7FFFFF0000
07FFFC3FFFFE0000
07FFFC3FFFFE0000
0FFFFC3FFFFE0000
0FFFFC3FFFFE0000
0FFFF83FFFFC0000
1FFFF83FFFFC0000
1FFFF83FFFFC0000
1FFFF01FFFFC0000
1FFFF01FFFF80000
3FFFF01FFFF80000
3FFFF01FFFF80000
3FFFE01FFFF80000
7FFFE03FFFF00000
7FFFE03FFFF00000
7FFFE03FFFF00000
FFFFC03FFFE00000
FFFF003FFFC00000
FFE00000F0000000
ENDCHAR
STARTCHAR 004F
ENCODING 79
SWIDTH 528 0
DWIDTH 47 0
BBX 46 63 7 -1
BITMAP
000007E00000
00000FF80000
00001FFE0000
00003FFF0000
00007FFFC000
0000FFFFE000
0001FFFFF800
0003FFFFFC00
0003FFFFFE00
0007FFFFFF00
000FFFFFFF80
000FFFFFFF80
001FFFFFFFC0
003FFFFFFFC0
003FFFFFFFE0
007FFFFFFFE0
00FFFFFFFFE0
00FFFFFFFFF0
01FFFFFFFFF0
03FFFFFFFFF0
03FFFFFFFFF8
07FFFFFFFFF8
07FFFFFFFFF8
0FFFFC1FFFF8
0FFFF807FFF8
1FFFF007FFFC
1FFFF007FFFC
3FFFE007FFFC
3FFFC007FFFC
7FFFC007FFFC
7FFFC007FFFC
7FFF8007FFFC
7FFF800FFFFC
7FFF800FFFF8
FFFF800FFFF8
FFFFC01FFFF8
FFFFC03FFFF8
FFFFE07FFFF8
FFFFF0FFFFF0
FFFFFFFFFFF0
FFFFFFFFFFE0
FFFFFFFFFFE0
FFFFFFFFFFE0
FFFFFFFFFFC0
FFFFFFFFFFC0
FFFFFFFFFF80
FFFFFFFFFF80
7FFFFFFFFF00
7FFFFFFFFF00
7FFFFFFFFE00
7FFFFFFFFE00
3FFFFFFFFC00
3FFFFFFFFC00
3FFFFFFFF800
1FFFFFFFF800
1FFFFFFFF000
0FFFFFFFE000
07FFFFFF8000
03FFFFFF0000
00FFFFFC0000
003FFFF00000
000FFFC00000
0000F8000000
ENDCHAR
STARTCHAR 0050
ENCODING 80
SWIDTH 495 0
DWIDTH 44 0
BBX 49 61 2 0
BITMAP
0000000FC00000
000007FFF80000
00007FFFFF8000
0001FFFFFFE000
0001FFFFFFF800
0001FFFFFFFC00
0003FFFFFFFC00
0003FFFFFFFE00
0003FFFFFFFE00
0003FFFFFFFF00
0007FFFFFFFF00
0007FFFFFFFF00
0007FFFFFFFF00
000FFFFFFFFF00
000FFFE03FFF80
000FFFE00FFF80
000FFFE007FF80
001FFFE007FF80
001FFFE007FF80
001FFFE007FF80
001FFFE007FF00
003FFFE00FFF00
003FFFE00FFF00
003FFFE01FFF00
007FFFE03FFF00
007FFFE03FFE00
007FFFE0FFFE00
007FFFF3FFFF00
00FFFFFFFFFF00
00FFFFFFFFFE00
00FFFFFFFFFC00
01FFFFFFFFF800
01FFFFFFFFF000
01FFFFFFFFC000
03FFFFFFFF8000
03FFFFFFFE0000
03FFFFFFFC0000
07FFFFE0000000
07FFFFC0000000
07FFFFC0000000
07FFFFC0000000
0FFFFF80000000
0FFFFF80000000
0FFFFF80000000
1FFFFF80000000
1FFFFF80000000
1FFFFF80000000
3FFFFF00000000
1FFFFF00000000
3FFFFF00000000
3FFFFF00000000
7FFFFF00000000
7FFFFF00000000
7FFFFF00000000
7FFFFE00000000
7FFFFE00000000
FFFFFE00000000
FFFFFE00000000
FFFFFE00000000
FFFFFE00000000
7FFFFC00000000
ENDCHAR
STARTCHAR 0051
ENCODING 81
SWIDTH 618 0
DWIDTH 55 0
BBX 48 66 6 -4
BITMAP
0000000F0000
000007FFE000
00001FFFF000
00007FFFF800
0000FFFFFC00
0001FFFFFE00
0001FFFFFF00
0003FFFFFF80
0007FFFFFFC0
000FFFFFFFE0
001FFFFFFFE0
001FFFFFFFF0
003FFFFFFFF8
003FFFFFFFF8
007FFFFFFFFC
007FFFFFFFFC
00FFFFFFFFFC
00FFFF0FFFFE
01FFFE07FFFE
01FFFC03FFFE
03FFF801FFFE
03FFF801FFFE
07FFF000FFFE
07FFF000FFFE
07FFF0007FFE
0FFFF0007FFE
0FFFF0007FFE
0FFFE0007FFE
1FFFE0007FFE
1FFFE0007FFC
3FFFE000FFFC
3FFFE000FFFC
3FFFE000FFFC
7FFFE001FFFC
7FFFF001FFF8
7FFFF803FFF8
7FFFFE0FFFF0
7FFFFFFFFFF0
7FFFFFFFFFF0
7FFFFFFFFFE0
FFFFFFFFFFE0
FFFFFFFFFFC0
FFFFFFFFFFC0
FFFFFFFFFF80
FFFFFFFFFF00
FFFFFFFFFF00
FFFFFFFFFF00
FFFFFFFFFF00
7FFFFFFFFF00
7FFFFFFFFF80
3FFFFFFFFF80
3FFFFFFFFFC0
1FFFFFFFFFE0
0FFFFFFFFFE0
0FFFFFFFFFF0
07FFFFFFFFF8
03FFFFFFFFF8
00FFFFFFFFFC
007FFFFFFFFC
000FFF7FFFFE
0000F07FFFFF
0000003FFFFF
0000003FFFFF
0000001FFFC8
0000000F8000
000000040000
ENDCHAR
STARTCHAR 0052
ENCODING 82
SWIDTH 585 0
DWIDTH 52 0
BBX 46 62 7 -1
BITMAP
000001FE0000
00001FFFC000
0007FFFFF000
003FFFFFFC00
00FFFFFFFF00
01FFFFFFFFC0
03FFFFFFFFE0
03FFFFFFFFF0
03FFFFFFFFF8
07FFFFFFFFF8
07FFFFC0FFF8
07FFFF803FF8
07FFFF801FF8
07FFFF800FF8
07FFFF800FFC
07FFFF800FFC
0FFFFF800FFC
0FFFFF800FFC
0FFFFF001FF8
0FFFFF001FF8
0FFFFF003FF8
0FFFFF003FF8
0FFFFF80FFF0
0FFFFF81FFF0
1FFFFFC7FFE0
1FFFFFCFFFE0
1FFFFFFFFFC0
1FFFFFFFFFC0
1FFFFFFFFF80
1FFFFFFFFF00
1FFFFFFFFC00
1FFFFFFFC000
3FFFFFFFC000
3FFFFFFFE000
3FFFFFFFE000
3FFFFFFFF000
3FFFFFFFF000
3FFFFFFFF000
3FFFFFFFF800
7FFFFFFFF800
7FFFFEFFFC00
7FFFFCFFFC00
7FFFFCFFFC00
7FFFFC7FFE00
FFFFFC7FFE00
FFFFFC3FFF00
FFFFFC3FFF00
FFFFFC3FFF00
FFFFF81FFF80
FFFFF81FFF80
FFFFF81FFF80
FFFFF81FFFC0
FFFFF80FFFC0
FFFFF80FFFE0
FFFFF80FFFE0
FFFFF80FFFE0
FFFFF80FFFF0
FFFFF807FFF0
FFFFF007FFF0
FFFFF007FF80
FFFFE007FC00
7FFF80030000
ENDCHAR
STARTCHAR 0053
ENCODING 83
SWIDTH 495 0
DWIDTH 44 0
BBX 53 62 3 -1
BITMAP
0000000FFFFC00
000000FFFFFFF0
000003FFFFFFF8
00000FFFFFFFF0
00001FFFFFFFF0
00003FFFFFFFE0
00007FFFFFFFC0
00007FFFFFFFC0
0000FFFFFFFF80
0000FFFFFFFF00
0001FFFFFFFF00
0003FFFFFFFE00
0003FFFFFFFC00
0007FFFFFFFC00
000FFFFFFFF800
000FFFFFFFF000
001FFFFFFFF000
001FFFFFFFE000
003FFFFFFFC000
003FFFFFFFC000
003FFFFFFF8000
007FFFFFFF8000
007FFFC07F0000
007FFF800F0000
003FFF80070000
003FFFA0000000
003FFFF0000000
003FFFFC000000
003FFFFF000000
001FFFFFC00000
001FFFFFF00000
001FFFFFFC0000
000FFFFFFF0000
0007FFFFFF8000
0003FFFFFF8000
00003FFFFFC000
000007FFFFC000
000001FFFFC000
0000007FFFC000
0000001FFFC000
0000001FFFC000
0000001FFFE000
0100003FFFE000
0F80007FFFC000
1FC000FFFFC000
3FF1FFFFFFC000
3FFFFFFFFFC000
7FFFFFFFFF8000
7FFFFFFFFF8000
7FFFFFFFFF0000
7FFFFFFFFF0000
FFFFFFFFFE0000
FFFFFFFFFE0000
7FFFFFFFFC0000
7FFFFFFFF80000
3FFFFFFFE00000
1FFFFFFF800000
0FFFFFFE000000
07FFFFFC000000
01FFFFF0000000
007FFF80000000
0007F800000000
ENDCHAR
STARTCHAR 0054
ENCODING 84
SWIDTH 573 0
DWIDTH 51 0
BBX 50 60 10 0
BITMAP
000003BB01F800
01FFFFFFFFFF00
0FFFFFFFFFFF80
0FFFFFFFFFFFC0
0FFFFFFFFFFFC0
0FFFFFFFFFFFC0
0FFFFFFFFFFFC0
1FFFFFFFFFFFC0
1FFFFFFFFFFFC0
1FFFFFFFFFFFC0
1FFFFFFFFFFFC0
3FFFFFFFFFFFC0
3FFFFFFFFFFFC0
3FFFFFFFFFFFC0
7FFFFFFFFFFF80
7FFFFFFFFFFF80
7FFFFFFFFFE700
FFFFFFFFFC0000
FFFF1FFFE00000
7FE01FFFC00000
7E001FFF800000
60003FFF000000
00003FFF000000
00003FFE000000
00007FFE000000
00007FFC000000
00007FFC000000
00007FFC000000
0000FFFC000000
0000FFF8000000
0000FFF8000000
0000FFF8000000
0001FFF8000000
0001FFF0000000
0001FFF0000000
0001FFF0000000
0003FFF0000000
0003FFF0000000
0003FFE0000000
0003FFE0000000
0003FFE0000000
0007FFE0000000
0007FFC0000000
0007FFC0000000
0007FFC0000000
000FFFC0000000
000FFF80000000
000FFF80000000
000FFF80000000
000FFF80000000
001FFF80000000
001FFF80000000
001FFF00000000
001FFF00000000
003FFF00000000
003FFF00000000
003FFE00000000
003FFE00000000
003FFE00000000
003FFE00000000
ENDCHAR
STARTCHAR 0055
ENCODING 85
SWIDTH 551 0
DWIDTH 49 0
BBX 52 59 7 2
BITMAP
0007C000000000
0007FE0001FFE0
000FFFC003FFF0
000FFFC003FFF0
001FFF8007FFF0
001FFF8007FFF0
003FFF0003FFF0
003FFE0003FFE0
003FFE0003FFE0
007FFE0003FFE0
007FFE0007FFE0
00FFFC0007FFC0
00FFFC0007FFC0
01FFFC000FFFC0
01FFF8000FFFC0
03FFF8000FFF80
03FFF8001FFF80
03FFF0001FFF80
07FFF0001FFF80
07FFF0003FFF80
0FFFE0003FFF00
0FFFE0003FFF00
0FFFE0007FFF00
1FFFE0007FFF00
1FFFE0007FFF00
1FFFC000FFFF00
3FFFC000FFFF00
3FFFC001FFFE00
3FFFC001FFFE00
7FFFE001FFFE00
7FFFE003FFFE00
7FFFE003FFFE00
7FFFF007FFFC00
7FFFF807FFFC00
7FFFFC0FFFF800
FFFFFFFFFFF800
FFFFFFFFFFF000
FFFFFFFFFFF000
FFFFFFFFFFE000
FFFFFFFFFFC000
FFFFFFFFFFC000
FFFFFFFFFF8000
FFFFFFFFFF8000
FFFFFFFFFF0000
FFFFFFFFFF0000
FFFFFFFFFE0000
7FFFFFFFFE0000
7FFFFFFFFC0000
7FFFFFFFF80000
3FFFFFFFF00000
3FFFFFFFE00000
3FFFFFFFC00000
3FFFFFFF800000
1FFFFFFE000000
1FFFFFFC000000
0FFFFFF8000000
03FFFFF0000000
00FFFFE0000000
001FFFC0000000
ENDCHAR
STARTCHAR 0056
ENCODING 86
SWIDTH 596 0
DWIDTH 53 0
BBX 51 57 13 2
BITMAP
0000000000FF80
7C0000000FFFC0
FFC000007FFFE0
FFFC0001FFFFC0
7FFFE001FFFFC0
7FFFF800FFFF80
1FFFFC01FFFF80
1FFFFE01FFFF80
1FFFFE01FFFF80
1FFFFE03FFFF80
1FFFFC03FFFF00
1FFFFC03FFFF00
1FFFFE03FFFE00
1FFFFE07FFFE00
1FFFFE07FFFC00
1FFFFE07FFFC00
1FFFFE0FFFF800
0FFFFE0FFFF800
0FFFFE0FFFF000
0FFFFE1FFFF000
0FFFFE1FFFE000
0FFFFE1FFFE000
07FFFE1FFFC000
07FFFE3FFFC000
07FFFE3FFFC000
07FFFE7FFF8000
03FFFE7FFF8000
03FFFE7FFF0000
03FFFEFFFF0000
01FFFFFFFE0000
01FFFFFFFE0000
01FFFFFFFC0000
00FFFFFFFC0000
00FFFFFFFC0000
007FFFFFF80000
007FFFFFF80000
007FFFFFF00000
003FFFFFF00000
003FFFFFE00000
001FFFFFE00000
001FFFFFE00000
001FFFFFC00000
000FFFFFC00000
000FFFFF800000
0007FFFF800000
0007FFFF000000
0003FFFF000000
0003FFFF000000
0001FFFE000000
0001FFFE000000
0000FFFE000000
0000FFFC000000
00007FFC000000
00007FFC000000
00003FF8000000
00003FF0000000
00001F00000000
ENDCHAR
STARTCHAR 0057
ENCODING 87
SWIDTH 720 0
DWIDTH 64 0
BBX 64 62 12 0
BITMAP
0000000000001000
0000000000003800
0FF8000000007C0E
1FFF800000007FFE
3FFFC000E000FFFF
3FFFC003F000FFFE
7FFFC003F001FFFC
7FFFC003F003FFFC
7FFFE007F003FFF8
7FFFE007F007FFF0
FFFFE007F807FFF0
FFFFE007F80FFFE0
FFFFE00FF80FFFE0
FFFFE00FF81FFFC0
FFFFF00FF83FFFC0
FFFFF01FF83FFF80
7FFFF01FF87FFF80
7FFFF01FF87FFF00
7FFFF03FF8FFFF00
7FFFF83FF8FFFF00
7FFFF83FF9FFFF00
7FFFF87FFDFFFF00
7FFFF87FFFFFFE00
3FFFFCFFFFFFFE00
3FFFFCFFFFFFFC00
3FFFFDFFFFFFFC00
3FFFFFFFFFFFFC00
1FFFFFFFFFFFF800
1FFFFFFFFFFFF800
1FFFFFFFFFFFF000
1FFFFFFFFFFFF000
1FFFFFFFFFFFF000
0FFFFFFFFFFFE000
0FFFFFFFFFFFE000
0FFFFFFFFFFFC000
0FFFFFFFFFFFC000
07FFFFFFFFFF8000
07FFFFF7FFFF8000
07FFFFF7FFFF8000
03FFFFE7FFFF0000
03FFFFC7FFFF0000
03FFFFC7FFFF0000
03FFFFC3FFFE0000
01FFFF83FFFE0000
01FFFF83FFFE0000
01FFFF03FFFC0000
00FFFE03FFFC0000
00FFFC03FFFC0000
00FFFC03FFF80000
00FFF803FFF80000
007FF803FFF80000
007FF003FFF00000
007FF003FFF00000
003FE003FFE00000
003FE003FFE00000
003FC001FFC00000
001FC001FFC00000
001F8001FF000000
001F8001F0000000
000F000000000000
000F000000000000
0006000000000000
ENDCHAR
STARTCHAR 0058
ENCODING 88
SWIDTH 573 0
DWIDTH 51 0
BBX 57 59 5 1
BITMAP
00000000001FFF00
00000600001FFF80
001FFF80003FFF80
003FFF80007FFF80
007FFF0000FFFF80
00FFFF8000FFFF00
00FFFF8001FFFE00
00FFFFC003FFFE00
01FFFFC007FFFC00
01FFFFE007FFF800
01FFFFE00FFFF000
01FFFFE01FFFF000
01FFFFE01FFFE000
00FFFFF03FFFE000
00FFFFF03FFFC000
00FFFFF07FFF8000
00FFFFF0FFFF8000
007FFFF8FFFF0000
007FFFF9FFFE0000
003FFFF9FFFE0000
003FFFFFFFFC0000
001FFFFFFFFC0000
000FFFFFFFF80000
0007FFFFFFF80000
0007FFFFFFF00000
0003FFFFFFE00000
0003FFFFFFC00000
0001FFFFFF800000
0001FFFFFF800000
0000FFFFFF000000
0000FFFFFE000000
0000FFFFFE000000
0000FFFFFC000000
0000FFFFFC000000
0000FFFFFC000000
0003FFFFFC000000
0007FFFFFE000000
0007FFFFFE000000
000FFFFFFE000000
001FFFFFFE000000
003FFFFFFE000000
003FFFFFFE000000
007FFFFFFF000000
00FFFE7FFF000000
00FFFE7FFF000000
01FFFE7FFF000000
03FFFC3FFF000000
03FFFC3FFF000000
07FFF81FFF800000
0FFFF81FFF800000
0FFFF80FFF800000
1FFFF00FFF800000
1FFFF007FFC00000
3FFFE007FF800000
3FFFE003FE000000
7FFFC001C0000000
7FFFC00000000000
FFFF800000000000
2000000000000000
ENDCHAR
STARTCHAR 0059
ENCODING 89
SWIDTH 607 0
DWIDTH 54 0
BBX 53 61 13 0
BITMAP
000000000038F8
0000000001FFF8
000C000007FFF0
003E000007FFE0
07FE000007FFC0
3FFF00000FFF80
FFFF00001FFF80
FFFF80003FFF80
FFFF80007FFF00
FFFF80007FFE00
FFFFC0007FFE00
7FFFC000FFFC00
7FFFC001FFF800
7FFFC003FFF800
7FFFE003FFF000
3FFFE007FFE000
3FFFE00FFFC000
1FFFE01FFFC000
1FFFF01FFF8000
1FFFF03FFF0000
1FFFF07FFF0000
0FFFF0FFFE0000
0FFFF0FFFC0000
0FFFF9FFFC0000
07FFFBFFF80000
07FFFBFFF00000
07FFFFFFF00000
07FFFFFFE00000
03FFFFFFC00000
03FFFFFFC00000
03FFFFFF800000
01FFFFFF000000
01FFFFFF000000
01FFFFFE000000
01FFFFFC000000
00FFFFFC000000
00FFFFF8000000
00FFFFF0000000
007FFFF0000000
007FFFE0000000
007FFFC0000000
003FFF80000000
003FFF80000000
003FFF80000000
001FFF80000000
001FFF00000000
001FFF00000000
003FFF00000000
003FFF00000000
003FFF00000000
003FFF00000000
007FFF00000000
007FFF00000000
007FFF00000000
007FFF00000000
007FFF00000000
007FFF00000000
00FFFE00000000
00FFFE00000000
00FFF800000000
007F0000000000
ENDCHAR
STARTCHAR 005A
ENCODING 90
SWIDTH 596 0
DWIDTH 53 0
BBX 46 60 11 1
BITMAP
000003FFFC00
00007FFFFFFC
0007FFFFFFFC
007FFFFFFFF8
01FFFFFFFFF0
03FFFFFFFFE0
07FFFFFFFFC0
0FFFFFFFFF80
1FFFFFFFFF00
1FFFFFFFFF00
3FFFFFFFFE00
7FFFFFFFFC00
7FFFFFFFF800
FFFFFFFFF000
FFFFFFFFF000
FFFFA7FFE000
FF8007FFC000
00000FFFC000
00000FFF8000
00001FFF0000
00001FFF0000
00003FFE0000
00007FFE0000
00007FFC0000
0000FFF80000
0000FFF80000
0001FFF00000
0001FFF00000
0003FFE00000
0007FFE00000
0007FFC00000
000FFFC00000
000FFF800000
001FFF800000
001FFF800000
003FFF000000
007FFF000000
007FFE000000
00FFFE000000
00FFFE000000
01FFFC000000
01FFF8000000
03FFF0000000
03FFE0000000
07FFC01FFFE0
0FFFDFFFFFF0
0FFFFFFFFFF0
1FFFFFFFFFF0
1FFFFFFFFFE0
3FFFFFFFFFE0
3FFFFFFFFFE0
7FFFFFFFFFC0
7FFFFFFFFF80
7FFFFFFFFF00
FFFFFFFFFE00
FFFFFFFFFC00
00FFFFFFF800
001FFFFFE000
0007FFFF8000
00007FF80000
ENDCHAR
STARTCHAR 005B
ENCODING 91
SWIDTH 348 0
DWIDTH 31 0
BBX 46 85 -1 -13
BITMAP
00000000FFFC
00003FFFFFFC
00003FFFFFFC
00007FFFFFF8
00007FFFFFF8
00007FFFFFF8
00007FFFFFF8
00007FFFFFF8
0000FFFFFFF8
0000FFFFFFF0
0000FFFFFFF0
0000FFFFFFF0
0000FFFE0000
0001FFF00000
0001FFF00000
0001FFF00000
0001FFF00000
0001FFE00000
0001FFE00000
0003FFE00000
0001FFE00000
0003FFE00000
0007FFC00000
0007FFC00000
0007FFC00000
0007FFC00000
0007FFC00000
000FFF800000
000FFF800000
000FFF800000
000FFF800000
001FFF800000
001FFF000000
001FFF000000
001FFF000000
001FFF000000
003FFF000000
003FFF000000
003FFE000000
003FFE000000
007FFE000000
007FFE000000
007FFC000000
007FFC000000
007FFC000000
00FFFC000000
00FFF8000000
00FFF8000000
00FFF8000000
00FFF8000000
01FFF0000000
01FFF0000000
01FFF0000000
01FFF0000000
01FFF0000000
03FFF0000000
03FFF0000000
03FFE0000000
03FFE0000000
07FFE0000000
07FFE0000000
07FFC0000000
07FFC0000000
07FFC0000000
0FFFC0000000
0FFF80000000
0FFF80000000
1FFF80000000
1FFF80000000
1FFF00000000
1FFF00000000
1FFF00000000
1FFF3FFC0000
3FFFFFFE0000
3FFFFFFC0000
3FFFFFFC0000
7FFFFFFC0000
7FFFFFFC0000
7FFFFFF80000
7FFFFFF80000
7FFFFFF80000
FFFFFFF80000
FFFFFFF80000
FFFFFFF00000
FFFC00000000
ENDCHAR
STARTCHAR 005C
ENCODING 92
SWIDTH 450 0
DWIDTH 40 0
BBX 24 72 15 -5
BITMAP
400200
7FFF00
FFFF00
FFFF00
FFFF00
FFFF00
FFFF00
FFFF80
FFFF80
FFFF80
FFFF80
FFFF80
FFFF80
FFFF80
FFFF80
FFFF80
7FFF80
7FFFC0
7FFFC0
7FFFC0
7FFFC0
7FFFC0
7FFFC0
3FFFC0
3FFFC0
3FFFC0
3FFFC0
3FFFC0
3FFFC0
1FFFE0
1FFFE0
1FFFE0
1FFFE0
1FFFE0
0FFFE0
0FFFE0
0FFFE0
0FFFE0
0FFFE0
07FFF0
07FFF0
07FFF0
07FFF0
03FFF0
03FFF0
03FFF0
03FFF0
03FFF0
01FFF8
01FFF8
01FFF8
01FFF8
01FFF8
00FFF8
00FFF8
00FFFC
00FFFC
00FFFC
007FFC
007FFC
007FFC
007FFE
003FFE
003FFE
003FFE
001FFE
001FFE
001FFF
001FFF
000F86
000F00
000600
ENDCHAR
STARTCHAR 005D
ENCODING 93
SWIDTH 348 0
DWIDTH 31 0
BBX 46 85 -1 -13
BITMAP
00000001FFFC
00003FFFFFFC
00007FFFFFFC
00007FFFFFFC
00007FFFFFF8
00007FFFFFF8
00007FFFFFF8
0000FFFFFFF8
0000FFFFFFF8
0000FFFFFFF0
0000FFFFFFF0
0001FFFFFFF0
00007FC3FFE0
00000003FFE0
00000003FFE0
00000003FFE0
00000007FFE0
00000007FFE0
00000007FFC0
00000007FFC0
0000000FFFC0
0000000FFF80
0000000FFF80
0000000FFF80
0000001FFF80
0000001FFF80
0000001FFF00
0000001FFF00
0000003FFF00
0000003FFF00
0000003FFF00
0000003FFE00
0000003FFE00
0000003FFE00
0000003FFE00
0000003FFC00
0000007FFC00
0000007FFC00
0000007FFC00
000000FFFC00
000000FFF800
000000FFF800
000000FFF800
000001FFF800
000001FFF800
000001FFF000
000001FFF000
000003FFF000
000003FFF000
000003FFE000
000003FFE000
000003FFE000
000003FFE000
000007FFE000
000007FFC000
000007FFC000
000007FFC000
000007FFC000
00000FFF8000
00000FFF8000
00000FFF8000
00000FFF8000
00000FFF0000
00001FFF0000
00001FFF0000
00001FFF0000
00001FFE0000
00001FFE0000
00003FFE0000
00003FFE0000
00003FFE0000
00003FFE0000
0003FFFC0000
3FFFFFFC0000
3FFFFFFC0000
3FFFFFFC0000
7FFFFFFC0000
7FFFFFF80000
7FFFFFF80000
7FFFFFF80000
7FFFFFF80000
7FFFFFF80000
FFFFFFF00000
FFFFFFF00000
0FF800000000
ENDCHAR
STARTCHAR 005E
ENCODING 94
SWIDTH 495 0
DWIDTH 44 0
BBX 41 37 8 28
BITMAP
0000003E0000
000000FF8000
000001FFC000
000001FFC000
000003FFC000
000007FFC000
00000FFFC000
00001FFFC000
00003FFFE000
00007FFFE000
00007FFFE000
0000FFFFE000
0001FFFFE000
0003FFFFF000
0007FFFFF000
000FFFFFF000
000FFF7FF000
001FFF7FF800
003FFE3FF800
007FFE3FF800
00FFFC3FFC00
00FFFC3FFC00
01FFF83FFC00
03FFF83FFC00
07FFF03FFE00
07FFF03FFE00
0FFFE03FFE00
1FFFE03FFE00
1FFFC03FFF00
3FFFC03FFF00
3FFF807FFF00
7FFF807FFF00
7FFF007FFF80
FFFF007FFF80
FFFE007FFF80
FF80007FFF00
00000000C000
ENDCHAR
STARTCHAR 005F
ENCODING 95
SWIDTH 382 0
DWIDTH 34 0
BBX 33 11 0 -10
BITMAP
7FFFFFFF00
7FFFFFFF80
7FFFFFFF80
7FFFFFFF00
7FFFFFFF00
FFFFFFFF00
FFFFFFFF00
FFFFFFFE00
FFFFFFFE00
FFFFFFFE00
FFFFFFFC00
ENDCHAR
STARTCHAR 0060
ENCODING 96
SWIDTH 236 0
DWIDTH 21 0
BBX 16 14 17 63
BITMAP
7FF0
7FF8
FFF8
7FFC
3FFC
3FFC
1FFE
0FFE
07FF
07FE
03FF
01FF
01FF
01F8
ENDCHAR
STARTCHAR 0061
ENCODING 97
SWIDTH 630 0
DWIDTH 56 0
BBX 54 62 1 -2
BITMAP
00000000007C00
0000000007FC00
0000000007FC00
000000000FFE00
000000001FFE00
000000001FFE00
000000003FFE00
000000003FFE00
000000007FFE00
000000007FFE00
00000000FFFE00
00000001FFFE00
00000001FFFE00
00000003FFFE00
00000003FFFE00
00000007FFFE00
0000000FFFFE00
0000000FFFFE00
0000001FFFFE00
0000001FFFFE00
0000003FFFFE00
0000007FFFFF00
0000007FFFFF00
000000FFFFFF00
000000FFFFFF00
000001FFFFFF00
000003FFFFFF00
000003FFFFFF00
000007FFFFFF00
00000FFFFFFF00
00000FFFFFFF00
00001FFFFFFF00
00003FF0FFFF00
00003FF0FFFF80
00007FE0FFFF80
0000FFC0FFFF80
0000FF807FFF80
0001FF007FFF80
0003FF007FFF80
0003FE00FFFF80
0007FC07FFFFC0
000FFFFFFFFFC0
000FFFFFFFFFC0
001FFFFFFFFFC0
001FFFFFFFFFC0
003FFFFFFFFFC0
007FFFFFFFFFE0
007FFFFDFFFFE0
00FFFF81FFFFE0
01FFFE01FFFFE0
01FFF801FFFFE0
03FFF001FFFFF0
07FFF001FFFFF0
07FFE001FFFFF0
0FFFE001FFFFF0
1FFFC001FFFFF8
1FFFC001FFFFF8
3FFFC000FFFFF8
7FFFC000FFFFFC
7FFFC000FFFFFC
FFFF0000F80070
FE000000000000
ENDCHAR
STARTCHAR 0062
ENCODING 98
SWIDTH 517 0
DWIDTH 46 0
BBX 40 60 9 1
BITMAP
000FFF8000
003FFFFC00
01FFFFFF80
07FFFFFFE0
07FFFFFFF0
0FFFFFFFF0
0FFFFFFFF8
0FFFFFFFF0
0FFFFFFFF8
0FFFFFFFF8
0FFFFFFFFC
0FFFFFFFFC
1FFFFFFFFC
1FFFFFFFFC
1FFFE0FFFC
0FFFC07FFC
0FFFC03FFC
0FFFC03FFC
0FFFC03FF8
0FFFC03FF8
0FFFC03FF0
0FFFC07FF0
1FFFC07FE0
1FFFC0FFE0
1FFFE1FFE0
1FFFE7FFC0
1FFFFFFF00
1FFFFFFC00
1FFFFFFC00
1FFFFFFE00
3FFFFFFFC0
3FFFFFFFF0
3FFFFFFFF8
3FFFFFFFF8
3FFFFFFFFC
3FFFFFFFFC
3FFFE1FFFE
3FFFE03FFE
3FFFC03FFF
7FFFC03FFF
7FFFC03FFF
7FFFC07FFF
7FFFC07FFF
7FFFC0FFFF
7FFF81FFFE
7FFF83FFFE
7FFF8FFFFE
7FFF9FFFFC
7FFFBFFFFC
7FFFFFFFF8
FFFFFFFFF0
FFFFFFFFE0
FFFFFFFFC0
FFFFFFFF00
FFFFFFFE00
FFFFFFFC00
FFFFFFF800
FFFFFFC000
FFFFF80000
7FFE000000
ENDCHAR
STARTCHAR 0063
ENCODING 99
SWIDTH 483 0
DWIDTH 43 0
BBX 47 60 7 1
BITMAP
000000010000
0000001FFC00
000000FFFF80
000007FFFFC0
00003FFFFFF0
0000FFFFFFF8
0003FFFFFFFC
0007FFFFFFFC
000FFFFFFFFE
003FFFFFFFFC
007FFFFFFFFC
007FFFFFFFFC
00FFFFFFFFF8
01FFFFFFFFF8
01FFFFFFFFF8
03FFFFFFFFF0
07FFFFFFFFF0
07FFFFFFC660
0FFFFFF80000
0FFFFFC00000
1FFFFF000000
1FFFFE000000
1FFFFC000000
1FFFF8000000
1FFFF0000000
3FFFF0000000
3FFFF0000000
3FFFE0000000
7FFFE0000000
7FFFE0000000
7FFFE0000000
7FFFE0000000
7FFFF0000000
FFFFF8000200
FFFFFC00FF00
FFFFFEFFFF00
FFFFFFFFFF00
FFFFFFFFFF00
FFFFFFFFFE00
FFFFFFFFFE00
FFFFFFFFFE00
FFFFFFFFFE00
FFFFFFFFFC00
FFFFFFFFFC00
FFFFFFFFFC00
FFFFFFFFFC00
7FFFFFFFF800
7FFFFFFFF800
7FFFFFFFF800
7FFFFFFFF800
3FFFFFFFF000
3FFFFFFFE000
3FFFFFFFC000
1FFFFFFF0000
1FFFFFFF0000
1FFFFFFE0000
0FFFFFF80000
00FFFFE00000
007FFF800000
0000FC000000
ENDCHAR
STARTCHAR 0064
ENCODING 100
SWIDTH 461 0
DWIDTH 41 0
BBX 39 61 9 0
BITMAP
001F800000
00FFFE0000
03FFFF8000
07FFFFF000
0FFFFFFC00
0FFFFFFF00
0FFFFFFF00
0FFFFFFF80
0FFFFFFFC0
1FFFFFFFC0
1FFFFFFFE0
1FFFFFFFE0
1FFFFFFFF0
1FFFFFFFF0
3FFFFFFFF8
3FFFFFFFF8
3FFFFFFFFC
3FFFE1FFFC
3FFFC07FFC
3FFFC01FFC
3FFF801FFC
7FFF801FFE
7FFF801FFE
7FFF001FFE
7FFF801FFC
7FFF803FFC
7FFF803FFC
7FFF003FFC
7FFF007FFC
7FFF00FFF8
7FFF00FFF0
7FFF01FFF0
7FFF03FFE0
FFFF07FFE0
FFFF0FFFC0
FFFF1FFF80
FFFFFFFF80
FFFFFFFF00
FFFFFFFE00
FFFFFFFC00
FFFFFFFC00
FFFFFFF800
FFFFFFF000
FFFFFFE000
FFFFFFE000
FFFFFFC000
FFFFFF8000
FFFFFF0000
FFFFFE0000
FFFFFC0000
FFFFF80000
FFFFF00000
FFFFE00000
FFFFC00000
FFFF000000
7FFC000000
7FF0000000
7F80000000
7E00000000
7800000000
4000000000
ENDCHAR
STARTCHAR 0065
ENCODING 101
SWIDTH 495 0
DWIDTH 44 0
BBX 35 62 11 0
BITMAP
0007FFE000
003FFFFF80
01FFFFFFE0
0FFFFFFFE0
1FFFFFFFE0
3FFFFFFFC0
3FFFFFFFC0
1FFFFFFF80
1FFFFFFF80
1FFFFFFF00
1FFFFFFF00
1FFFFFFF00
1FFFFFFE00
1FFFFFFE00
1FFFFFFC00
1FFFFFFE00
1FFFFFFE00
1FFFFFFC00
1FFFFFF800
1FFFE00000
1FFFC00000
1FFF800000
1FFF800000
1FFFC00000
1FFFC00000
1FFFC1F000
1FFFFFF000
1FFFFFE000
1FFFFFE000
1FFFFFE000
1FFFFFE000
3FFFFFE000
3FFFFFE000
3FFFFFE000
3FFFFEE000
3FFF800000
3FFF800000
3FFF800000
3FFF800300
3FFFFFFF80
3FFFFFFF80
3FFFFFFF80
7FFFFFFF80
3FFFFFFF80
3FFFFFFF80
3FFFFFFF80
3FFFFFFF80
7FFFFFFF80
7FFFFFFF80
7FFFFFFF80
7FFFFFFF80
7FFFFFFF80
7FFFFFFF80
7FFFFFFF80
FFFFFFFF80
FFFFFFFF00
FFFFFFF800
FFFFFF0000
FFFFF00000
FFFF000000
7FE0000000
7000000000
ENDCHAR
STARTCHAR 0066
ENCODING 102
SWIDTH 506 0
DWIDTH 45 0
BBX 50 63 4 0
BITMAP
00000000010000
00000003FFFF80
000027FFFFFFC0
0001FFFFFFFFC0
000FFFFFFFFFC0
003FFFFFFFFFC0
007FFFFFFFFFC0
007FFFFFFFFFC0
007FFFFFFFFFC0
007FFFFFFFFFC0
007FFFFFFFFFC0
00FFFFFFFFFFC0
00FFFFFFFFFFC0
00FFFFFFFFFFC0
00FFFFFF800000
01FFFFF0000000
01FFFF80000000
01FFFF00000000
01FFFF00000000
01FFFE00000000
01FFFE00000000
03FFFE00000000
03FFFC00000000
03FFFC00000000
03FFFC7F000000
03FFFFFF000000
07FFFFFF000000
07FFFFFE000000
07FFFFFE000000
07FFFFFC000000
07FFFFFC000000
07FFFFFC000000
0FFFFFFC000000
0FFFFFFC000000
0FFFFFFC000000
1FFFFFF8000000
1FFFF838000000
1FFFE010000000
1FFFE000000000
1FFFC000000000
3FFFC000000000
3FFFC000000000
3FFF8000000000
3FFF8000000000
7FFF8000000000
7FFF8000000000
7FFF8000000000
7FFF0000000000
7FFF0000000000
7FFF0000000000
7FFF0000000000
FFFF0000000000
FFFF0000000000
FFFF0000000000
FFFF0000000000
FFFF0000000000
FFFF0000000000
FFFF0000000000
FFFF0000000000
FFFF0000000000
FFFF8000000000
FFF80000000000
F0000000000000
ENDCHAR
STARTCHAR 0067
ENCODING 103
SWIDTH 506 0
DWIDTH 45 0
BBX 48 60 5 1
BITMAP
0000001EF800
0000007FFF80
000000FFFFE0
000003FFFFF8
000007FFFFF8
00000FFFFFFC
00001FFFFFFE
00003FFFFFFF
00007FFFFFFF
0000FFFFFFFF
0001FFFFFFFF
0001FFFFFFFE
0003FFFFFFFC
0007FFFF7FF8
0007FFF80FE0
000FFFC00000
001FFF000000
001FFE000000
003FFC000000
003FF8000000
007FF8000000
007FF0000000
00FFF0000000
00FFE0000000
01FFE0000000
01FFC00000F0
03FFC000FFFC
03FF800FFFFC
03FF807FFFF8
07FF807FFFF8
07FF807FFFF0
0FFF007FFFF0
0FFF007FFFF0
1FFF007FFFF0
1FFF007FFFF0
1FFF007FFFE0
3FFF007FFFE0
3FFF007FFFE0
3FFF007FFFE0
7FFF007FFFC0
7FFF80FFFFC0
7FFFC3FFFFC0
FFFFFFFFFFC0
FFFFFFFFFF80
FFFFFFFFFF80
FFFFFFFFFF80
FFFFFFFFFF80
FFFFFFFFFF80
FFFFFFFFFE00
FFFFFFFFFC00
FFFFFFFFF800
FFFFFFFFE000
7FFFFFFF8000
7FFFFFFE0000
3FFFFFF80000
1FFFFFE00000
0FFFFF800000
07FFFE000000
03FFF0000000
01FE00000000
ENDCHAR
STARTCHAR 0068
ENCODING 104
SWIDTH 562 0
DWIDTH 50 0
BBX 59 59 2 1
BITMAP
0000003FF0000000
000007FFF8000000
00003FFFF007FFC0
00007FFFE00FFFE0
0000FFFFC01FFFC0
0000FFFFC01FFFC0
0000FFFF803FFFC0
0000FFFFE03FFFC0
0000FFFFE03FFF80
0000FFFFC03FFF80
0000FFFFC07FFF80
0000FFFF807FFF80
0001FFFF80FFFF00
0001FFFF80FFFF00
0001FFFF00FFFF00
0003FFFF01FFFE00
0003FFFF01FFFE00
0003FFFF01FFFE00
0007FFFF01FFFC00
0007FFFF01FFFC00
0007FFFE03FFFC00
000FFFFE07FFFC00
000FFFFF9FFFF800
000FFFFFFFFFF800
000FFFFFFFFFF800
001FFFFFFFFFF000
001FFFFFFFFFF000
001FFFFFFFFFF000
003FFFFFFFFFE000
003FFFFFFFFFE000
003FFFFFFFFFE000
007FFFFFFFFFE000
007FFFFFFFFFE000
007FFFFFFFFFE000
00FFFFFFFFFFE000
00FFFFFFFFFFE000
00FFFFFFFFFFE000
01FFFFFFFFFFE000
01FFFFFFFFFFC000
01FFFFDFFFFFC000
01FFFF80FFFFC000
03FFFF80FFFF8000
03FFFF81FFFF8000
03FFFF81FFFF8000
03FFFF81FFFF0000
07FFFF01FFFF0000
07FFFF01FFFF0000
07FFFF03FFFE0000
0FFFFE03FFFE0000
0FFFFE03FFFE0000
0FFFFE07FFFC0000
1FFFFE07FFFC0000
1FFFFE07FFFC0000
3FFFFE07FFF80000
3FFFFC07FFF80000
3FFFFC07FFF80000
7FFFF80FFE000000
FFFFF81FF0000000
001FE01C00000000
ENDCHAR
STARTCHAR 0069
ENCODING 105
SWIDTH 326 0
DWIDTH 29 0
BBX 39 60 2 0
BITMAP
000007FFC0
00001FFFFE
00003FFFFE
00003FFFFC
00003FFFF8
00003FFFF8
00003FFFF0
00003FFFF0
00007FFFF0
00007FFFE0
0000FFFFE0
0000FFFFE0
0000FFFFC0
0001FFFFC0
0001FFFFC0
0001FFFF80
0003FFFF80
0003FFFF80
0003FFFF00
0007FFFF00
0007FFFF00
0007FFFF00
000FFFFE00
000FFFFE00
000FFFFE00
001FFFFC00
001FFFFC00
001FFFFC00
001FFFFC00
003FFFF800
003FFFF800
003FFFF800
007FFFF800
007FFFF000
007FFFF000
007FFFF000
00FFFFF000
00FFFFF000
00FFFFE000
00FFFFE000
01FFFFE000
01FFFFE000
01FFFFE000
01FFFFE000
03FFFFC000
03FFFFC000
03FFFFC000
03FFFFC000
07FFFFC000
07FFFF0000
07FFFF0000
0FFFFE0000
0FFFFE0000
0FFFFE0000
1FFFFE0000
1FFFFE0000
3FFFF80000
7FFFE00000
FFF8000000
FC00000000
ENDCHAR
STARTCHAR 006A
ENCODING 106
SWIDTH 450 0
DWIDTH 40 0
BBX 46 61 4 -1
BITMAP
0000000FE03C
0000000FFFFC
0000001FFFFC
0000001FFFFC
0000003FFFFC
0000003FFFFC
0000007FFFFC
0000007FFFFC
000000FFFFF8
000000FFFFF8
000000FFFFF8
000001FFFFF8
000001FFFFF8
000003FFFFF0
000003FFFFF0
000003FFFFF0
000007FFFFF0
000007FFFFF0
000007FFFFF0
000007FFFFF0
000007FFFFF0
00000FFFFFE0
00000FFFFFE0
00000FFFFFE0
00000FFFFFE0
00000FFFFFE0
00001FFFFFE0
00000FFFFFC0
00001FFFFFC0
00001FFFFFC0
00001FFFFFC0
00000FFFFFC0
00000FFFFF80
00000FFFFF80
00000FFFFF80
00000FFFFF00
00000FFFFF00
00000FFFFF00
00000FFFFE00
00000FFFFE00
03FC0FFFFE00
3FFE0FFFFC00
7FFE0FFFFC00
7FFF0FFFFC00
7FFF0FFFF800
7FFF1FFFF800
FFFF9FFFF000
FFFF8FFFE000
FFFFFFFFC000
FFFFFFFFC000
7FFFFFFF8000
7FFFFFFF0000
3FFFFFFE0000
3FFFFFFC0000
3FFFFFF80000
1FFFFFF00000
07FFFFC00000
03FFFF000000
00FFFF000000
001FF8000000
000200000000
ENDCHAR
STARTCHAR 006B
ENCODING 107
SWIDTH 551 0
DWIDTH 49 0
BBX 57 62 2 -1
BITMAP
0000000000004000
000000001001C000
0007FFFFF003E000
000FFFFFF007E000
000FFFFFF00FF000
0007FFFFF01FF800
0007FFFFE03FFE80
0007FFFFE07FFF80
000FFFFFE0FFFF80
000FFFFFC1FFFF00
000FFFFFC3FFFE00
001FFFFFC7FFFC00
001FFFFFC7FFF800
001FFFFFCFFFF000
001FFFFF9FFFE000
003FFFFF9FFFC000
003FFFFFBFFF8000
003FFFFFBFFF0000
003FFFFFFFFE0000
007FFFFFFFFC0000
007FFFFFFFF80000
007FFFFFFFF00000
007FFFFFFFE00000
007FFFFFFFE00000
00FFFFFFFFC00000
00FFFFFFFF800000
00FFFFFFFF800000
00FFFFFFFF000000
01FFFFFFFE000000
01FFFFFFFC000000
01FFFFFFFC000000
03FFFFFFF8000000
03FFFFFFE0000000
03FFFFFFE0000000
07FFFFFFF0000000
07FFFFFFF8000000
07FFFFFFF8000000
07FFFFFFFC000000
0FFFFFFFFE000000
0FFFFFFFFE000000
0FFFFFFFFF000000
0FFFFFFFFF800000
0FFFFFFFFF800000
1FFFFFFFFFC00000
1FFFFFFFFFE00000
1FFFFFFFFFE00000
1FFFFFCFFFF00000
1FFFFFC7FFF00000
3FFFFF87FFF80000
3FFFFF87FFF80000
3FFFFF83FFF80000
3FFFFF03FFFC0000
3FFFFF01FFFC0000
7FFFFF01FFFC0000
7FFFFF01FFFC0000
7FFFFF00FFFE0000
7FFFFF00FFFE0000
7FFFFF007FFE0000
FFFFFF007F060000
FFFFFE007E000000
FFFFF800F8000000
0001000070000000
ENDCHAR
STARTCHAR 006C
ENCODING 108
SWIDTH 506 0
DWIDTH 45 0
BBX 46 62 1 -1
BITMAP
000000003E00
0000001FFFF0
000001FFFFF0
000003FFFFF0
000007FFFFE0
00000FFFFFE0
00000FFFFFC0
00001FFFFFC0
00001FFFFFC0
00003FFFFF80
00003FFFFF80
00003FFFFF80
00003FFFFF00
00007FFFFF00
00007FFFFE00
00007FFFFE00
0000FFFFFE00
0000FFFFFC00
0000FFFFFC00
0000FFFFFC00
0001FFFFF800
0001FFFFF800
0001FFFFF000
0001FFFFF000
0003FFFFF000
0003FFFFE000
0007FFFFE000
0007FFFFC000
0007FFFFC000
000FFFFFC000
000FFFFF8000
001FFFFF8000
001FFFFF8000
001FFFFF0000
003FFFFF0000
003FFFFE0000
007FFFFE0000
007FFFFE0000
007FFFFC0000
00FFFFFC0000
00FFFFFC0000
00FFFFFC0000
01FFFFFC02F0
01FFFFFFFFFC
01FFFFFFFFF8
03FFFFFFFFF8
03FFFFFFFFF8
03FFFFFFFFF0
07FFFFFFFFF0
07FFFFFFFFF0
07FFFFFFFFF0
07FFFFFFFFF0
07FFFFFFFFF0
0FFFFFFFFFF0
0FFFFFFFFFF0
0FFFFFFFFFF0
0FFFFFFFFFF0
1FFFFFFFFFE0
1FFFFFFFF000
1FFFFFFFF000
3FFF00000000
FF0000000000
ENDCHAR
STARTCHAR 006D
ENCODING 109
SWIDTH 652 0
DWIDTH 58 0
BBX 60 62 1 -1
BITMAP
0000038000000000
000007C000000070
000007C0000001F0
000007E0000003F0
00000FE000000FF0
00000FF000001FF0
00000FF000001FF0
00000FF800003FF0
00001FF800007FF0
00001FFC00007FF0
00001FFC0000FFF0
00003FFC0001FFF0
00003FFE0003FFF0
00007FFE0003FFF0
00007FFF0007FFF0
00007FFF000FFFE0
0000FFFF000FFFE0
0000FFFF801FFFF0
0001FFFF803FFFF0
0001FFFFC07FFFF0
0001FFFFC0FFFFF0
0003FFFFC0FFFFF0
0003FFFFE1FFFFF0
0003FFFFE3FFFFF0
0007FFFFE7FFFFF0
0007FFFFFFFFFFE0
0007FFFFFFFFFFE0
000FFFFFFFFFFFE0
000FFFFFFFFFFFC0
000FFFFFFFFFFFC0
001FFFFFFFFFFFC0
001FFFFFFFFFFFC0
001FFFFFFFFFFFC0
003FFFFFFFFFFFC0
003FFFFFFFFFFFC0
007FFFF9FEFFFFC0
007FFFF1FCFFFFC0
007FFFF0FDFFFFC0
00FFFFE0F9FFFF80
00FFFFC071FFFF80
00FFFFC001FFFF80
01FFFF8003FFFF80
01FFFF8003FFFF80
01FFFF0003FFFF80
03FFFE0007FFFF80
03FFFE0007FFFF80
07FFFC0007FFFF80
07FFFC000FFFFF80
07FFF8000FFFFF80
0FFFF8001FFFFF80
0FFFF0001FFFFF80
0FFFF0001FFFFF80
1FFFE0001FFFFF80
1FFFE0001FFFFF80
3FFFC0001FFFFF80
3FFFC0003FFFFF80
3FFF80003FFFFF80
7FFF80003FFFFF00
7FFF00003FFFE000
7FFF000000180000
7F3E000000000000
C000000000000000
ENDCHAR
STARTCHAR 006E
ENCODING 110
SWIDTH 562 0
DWIDTH 50 0
BBX 59 58 2 1
BITMAP
000007FC0001FF00
00003FFFC007FFC0
00007FFFE03FFFC0
00007FFFE07FFFE0
0000FFFFE07FFFE0
0000FFFFC07FFFC0
0000FFFFC07FFFC0
0001FFFFC07FFFC0
0001FFFFC0FFFF80
0001FFFFC0FFFF80
0003FFFF80FFFF80
0003FFFF80FFFF00
0003FFFF81FFFF00
0007FFFF81FFFF00
0007FFFF81FFFE00
000FFFFF83FFFE00
000FFFFF83FFFE00
000FFFFFC3FFFC00
001FFFFFC3FFFC00
001FFFFFC3FFFC00
001FFFFFC7FFF800
003FFFFFC7FFF800
003FFFFFC7FFF800
003FFFFFC7FFF000
007FFFFFCFFFF000
007FFFFFCFFFF000
007FFFFFCFFFE000
00FFFFFFCFFFE000
00FFFFFFDFFFE000
00FFFFFFDFFFC000
00FFFFFFDFFFC000
01FFFFFFFFFFC000
01FFFFFFFFFFC000
01FFFF7FFFFF8000
03FFFF7FFFFF8000
03FFFF7FFFFF8000
03FFFE7FFFFF0000
03FFFE7FFFFF0000
07FFFE7FFFFF0000
07FFFE7FFFFF0000
07FFFC3FFFFE0000
07FFFC3FFFFE0000
0FFFFC3FFFFE0000
0FFFFC3FFFFE0000
0FFFF83FFFFC0000
1FFFF83FFFFC0000
1FFFF83FFFFC0000
1FFFF01FFFFC0000
1FFFF01FFFF80000
3FFFF01FFFF80000
3FFFF01FFFF80000
3FFFE01FFFF80000
7FFFE03FFFF00000
7FFFE03FFFF00000
7FFFE03FFFF00000
FFFFC03FFFE00000
FFFF003FFFC00000
FFE00000F0000000
ENDCHAR
STARTCHAR 006F
ENCODING 111
SWIDTH 528 0
DWIDTH 47 0
BBX 46 63 7 -1
BITMAP
000007E00000
00000FF80000
00001FFE0000
00003FFF0000
00007FFFC000
0000FFFFE000
0001FFFFF800
0003FFFFFC00
0003FFFFFE00
0007FFFFFF00
000FFFFFFF80
000FFFFFFF80
001FFFFFFFC0
003FFFFFFFC0
003FFFFFFFE0
007FFFFFFFE0
00FFFFFFFFE0
00FFFFFFFFF0
01FFFFFFFFF0
03FFFFFFFFF0
03FFFFFFFFF8
07FFFFFFFFF8
07FFFFFFFFF8
0FFFFC1FFFF8
0FFFF807FFF8
1FFFF007FFFC
1FFFF007FFFC
3FFFE007FFFC
3FFFC007FFFC
7FFFC007FFFC
7FFFC007FFFC
7FFF8007FFFC
7FFF800FFFFC
7FFF800FFFF8
FFFF800FFFF8
FFFFC01FFFF8
FFFFC03FFFF8
FFFFE07FFFF8
FFFFF0FFFFF0
FFFFFFFFFFF0
FFFFFFFFFFE0
FFFFFFFFFFE0
FFFFFFFFFFE0
FFFFFFFFFFC0
FFFFFFFFFFC0
FFFFFFFFFF80
FFFFFFFFFF80
7FFFFFFFFF00
7FFFFFFFFF00
7FFFFFFFFE00
7FFFFFFFFE00
3FFFFFFFFC00
3FFFFFFFFC00
3FFFFFFFF800
1FFFFFFFF800
1FFFFFFFF000
0FFFFFFFE000
07FFFFFF8000
03FFFFFF0000
00FFFFFC0000
003FFFF00000
000FFFC00000
0000F8000000
ENDCHAR
STARTCHAR 0070
ENCODING 112
SWIDTH 495 0
DWIDTH 44 0
BBX 49 61 2 0
BITMAP
0000000FC00000
000007FFF80000
00007FFFFF8000
0001FFFFFFE000
0001FFFFFFF800
0001FFFFFFFC00
0003FFFFFFFC00
0003FFFFFFFE00
0003FFFFFFFE00
0003FFFFFFFF00
0007FFFFFFFF00
0007FFFFFFFF00
0007FFFFFFFF00
000FFFFFFFFF00
000FFFE03FFF80
000FFFE00FFF80
000FFFE007FF80
001FFFE007FF80
001FFFE007FF80
001FFFE007FF80
001FFFE007FF00
003FFFE00FFF00
003FFFE00FFF00
003FFFE01FFF00
007FFFE03FFF00
007FFFE03FFE00
007FFFE0FFFE00
007FFFF3FFFF00
00FFFFFFFFFF00
00FFFFFFFFFE00
00FFFFFFFFFC00
01FFFFFFFFF800
01FFFFFFFFF000
01FFFFFFFFC000
03FFFFFFFF8000
03FFFFFFFE0000
03FFFFFFFC0000
07FFFFE0000000
07FFFFC0000000
07FFFFC0000000
07FFFFC0000000
0FFFFF80000000
0FFFFF80000000
0FFFFF80000000
1FFFFF80000000
1FFFFF80000000
1FFFFF80000000
3FFFFF00000000
1FFFFF00000000
3FFFFF00000000
3FFFFF00000000
7FFFFF00000000
7FFFFF00000000
7FFFFF00000000
7FFFFE00000000
7FFFFE00000000
FFFFFE00000000
FFFFFE00000000
FFFFFE00000000
FFFFFE00000000
7FFFFC00000000
ENDCHAR
STARTCHAR 0071
ENCODING 113
SWIDTH 618 0
DWIDTH 55 0
BBX 48 66 6 -4
BITMAP
0000000F0000
000007FFE000
00001FFFF000
00007FFFF800
0000FFFFFC00
0001FFFFFE00
0001FFFFFF00
0003FFFFFF80
0007FFFFFFC0
000FFFFFFFE0
001FFFFFFFE0
001FFFFFFFF0
003FFFFFFFF8
003FFFFFFFF8
007FFFFFFFFC
007FFFFFFFFC
00FFFFFFFFFC
00FFFF0FFFFE
01FFFE07FFFE
01FFFC03FFFE
03FFF801FFFE
03FFF801FFFE
07FFF000FFFE
07FFF000FFFE
07FFF0007FFE
0FFFF0007FFE
0FFFF0007FFE
0FFFE0007FFE
1FFFE0007FFE
1FFFE0007FFC
3FFFE000FFFC
3FFFE000FFFC
3FFFE000FFFC
7FFFE001FFFC
7FFFF001FFF8
7FFFF803FFF8
7FFFFE0FFFF0
7FFFFFFFFFF0
7FFFFFFFFFF0
7FFFFFFFFFE0
FFFFFFFFFFE0
FFFFFFFFFFC0
FFFFFFFFFFC0
FFFFFFFFFF80
FFFFFFFFFF00
FFFFFFFFFF00
FFFFFFFFFF00
FFFFFFFFFF00
7FFFFFFFFF00
7FFFFFFFFF80
3FFFFFFFFF80
3FFFFFFFFFC0
1FFFFFFFFFE0
0FFFFFFFFFE0
0FFFFFFFFFF0
07FFFFFFFFF8
03FFFFFFFFF8
00FFFFFFFFFC
007FFFFFFFFC
000FFF7FFFFE
0000F07FFFFF
0000003FFFFF
0000003FFFFF
0000001FFFC8
0000000F8000
000000040000
ENDCHAR
STARTCHAR 0072
ENCODING 114
SWIDTH 585 0
DWIDTH 52 0
BBX 46 62 7 -1
BITMAP
000001FE0000
00001FFFC000
0007FFFFF000
003FFFFFFC00
00FFFFFFFF00
01FFFFFFFFC0
03FFFFFFFFE0
03FFFFFFFFF0
03FFFFFFFFF8
07FFFFFFFFF8
07FFFFC0FFF8
07FFFF803FF8
07FFFF801FF8
07FFFF800FF8
07FFFF800FFC
07FFFF800FFC
0FFFFF800FFC
0FFFFF800FFC
0FFFFF001FF8
0FFFFF001FF8
0FFFFF003FF8
0FFFFF003FF8
0FFFFF80FFF0
0FFFFF81FFF0
1FFFFFC7FFE0
1FFFFFCFFFE0
1FFFFFFFFFC0
1FFFFFFFFFC0
1FFFFFFFFF80
1FFFFFFFFF00
1FFFFFFFFC00
1FFFFFFFC000
3FFFFFFFC000
3FFFFFFFE000
3FFFFFFFE000
3FFFFFFFF000
3FFFFFFFF000
3FFFFFFFF000
3FFFFFFFF800
7FFFFFFFF800
7FFFFEFFFC00
7FFFFCFFFC00
7FFFFCFFFC00
7FFFFC7FFE00
FFFFFC7FFE00
FFFFFC3FFF00
FFFFFC3FFF00
FFFFFC3FFF00
FFFFF81FFF80
FFFFF81FFF80
FFFFF81FFF80
FFFFF81FFFC0
FFFFF80FFFC0
FFFFF80FFFE0
FFFFF80FFFE0
FFFFF80FFFE0
FFFFF80FFFF0
FFFFF807FFF0
FFFFF007FFF0
FFFFF007FF80
FFFFE007FC00
7FFF80030000
ENDCHAR
STARTCHAR 0073
ENCODING 115
SWIDTH 495 0
DWIDTH 44 0
BBX 53 62 3 -1
BITMAP
0000000FFFFC00
000000FFFFFFF0
000003FFFFFFF8
00000FFFFFFFF0
00001FFFFFFFF0
00003FFFFFFFE0
00007FFFFFFFC0
00007FFFFFFFC0
0000FFFFFFFF80
0000FFFFFFFF00
0001FFFFFFFF00
0003FFFFFFFE00
0003FFFFFFFC00
0007FFFFFFFC00
000FFFFFFFF800
000FFFFFFFF000
001FFFFFFFF000
001FFFFFFFE000
003FFFFFFFC000
003FFFFFFFC000
003FFFFFFF8000
007FFFFFFF8000
007FFFC07F0000
007FFF800F0000
003FFF80070000
003FFFA0000000
003FFFF0000000
003FFFFC000000
003FFFFF000000
001FFFFFC00000
001FFFFFF00000
001FFFFFFC0000
000FFFFFFF0000
0007FFFFFF8000
0003FFFFFF8000
00003FFFFFC000
000007FFFFC000
000001FFFFC000
0000007FFFC000
0000001FFFC000
0000001FFFC000
0000001FFFE000
0100003FFFE000
0F80007FFFC000
1FC000FFFFC000
3FF1FFFFFFC000
3FFFFFFFFFC000
7FFFFFFFFF8000
7FFFFFFFFF8000
7FFFFFFFFF0000
7FFFFFFFFF0000
FFFFFFFFFE0000
FFFFFFFFFE0000
7FFFFFFFFC0000
7FFFFFFFF80000
3FFFFFFFE00000
1FFFFFFF800000
0FFFFFFE000000
07FFFFFC000000
01FFFFF0000000
007FFF80000000
0007F800000000
ENDCHAR
STARTCHAR 0074
ENCODING 116
SWIDTH 573 0
DWIDTH 51 0
BBX 50 60 10 0
BITMAP
000003BB01F800
01FFFFFFFFFF00
0FFFFFFFFFFF80
0FFFFFFFFFFFC0
0FFFFFFFFFFFC0
0FFFFFFFFFFFC0
0FFFFFFFFFFFC0
1FFFFFFFFFFFC0
1FFFFFFFFFFFC0
1FFFFFFFFFFFC0
1FFFFFFFFFFFC0
3FFFFFFFFFFFC0
3FFFFFFFFFFFC0
3FFFFFFFFFFFC0
7FFFFFFFFFFF80
7FFFFFFFFFFF80
7FFFFFFFFFE700
FFFFFFFFFC0000
FFFF1FFFE00000
7FE01FFFC00000
7E001FFF800000
60003FFF000000
00003FFF000000
00003FFE000000
00007FFE000000
00007FFC000000
00007FFC000000
00007FFC000000
0000FFFC000000
0000FFF8000000
0000FFF8000000
0000FFF8000000
0001FFF8000000
0001FFF0000000
0001FFF0000000
0001FFF0000000
0003FFF0000000
0003FFF0000000
0003FFE0000000
0003FFE0000000
0003FFE0000000
0007FFE0000000
0007FFC0000000
0007FFC0000000
0007FFC0000000
000FFFC0000000
000FFF80000000
000FFF80000000
000FFF80000000
000FFF80000000
001FFF80000000
001FFF80000000
001FFF00000000
001FFF00000000
003FFF00000000
003FFF00000000
003FFE00000000
003FFE00000000
003FFE00000000
003FFE00000000
ENDCHAR
STARTCHAR 0075
ENCODING 117
SWIDTH 551 0
DWIDTH 49 0
BBX 52 59 7 2
BITMAP
0007C000000000
0007FE0001FFE0
000FFFC003FFF0
000FFFC003FFF0
001FFF8007FFF0
001FFF8007FFF0
003FFF0003FFF0
003FFE0003FFE0
003FFE0003FFE0
007FFE0003FFE0
007FFE0007FFE0
00FFFC0007FFC0
00FFFC0007FFC0
01FFFC000FFFC0
01FFF8000FFFC0
03FFF8000FFF80
03FFF8001FFF80
03FFF0001FFF80
07FFF0001FFF80
07FFF0003FFF80
0FFFE0003FFF00
0FFFE0003FFF00
0FFFE0007FFF00
1FFFE0007FFF00
1FFFE0007FFF00
1FFFC000FFFF00
3FFFC000FFFF00
3FFFC001FFFE00
3FFFC001FFFE00
7FFFE001FFFE00
7FFFE003FFFE00
7FFFE003FFFE00
7FFFF007FFFC00
7FFFF807FFFC00
7FFFFC0FFFF800
FFFFFFFFFFF800
FFFFFFFFFFF000
FFFFFFFFFFF000
FFFFFFFFFFE000
FFFFFFFFFFC000
FFFFFFFFFFC000
FFFFFFFFFF8000
FFFFFFFFFF8000
FFFFFFFFFF0000
FFFFFFFFFF0000
FFFFFFFFFE0000
7FFFFFFFFE0000
7FFFFFFFFC0000
7FFFFFFFF80000
3FFFFFFFF00000
3FFFFFFFE00000
3FFFFFFFC00000
3FFFFFFF800000
1FFFFFFE000000
1FFFFFFC000000
0FFFFFF8000000
03FFFFF0000000
00FFFFE0000000
001FFFC0000000
ENDCHAR
STARTCHAR 0076
ENCODING 118
SWIDTH 596 0
DWIDTH 53 0
BBX 51 57 13 2
BITMAP
0000000000FF80
7C0000000FFFC0
FFC000007FFFE0
FFFC0001FFFFC0
7FFFE001FFFFC0
7FFFF800FFFF80
1FFFFC01FFFF80
1FFFFE01FFFF80
1FFFFE01FFFF80
1FFFFE03FFFF80
1FFFFC03FFFF00
1FFFFC03FFFF00
1FFFFE03FFFE00
1FFFFE07FFFE00
1FFFFE07FFFC00
1FFFFE07FFFC00
1FFFFE0FFFF800
0FFFFE0FFFF800
0FFFFE0FFFF000
0FFFFE1FFFF000
0FFFFE1FFFE000
0FFFFE1FFFE000
07FFFE1FFFC000
07FFFE3FFFC000
07FFFE3FFFC000
07FFFE7FFF8000
03FFFE7FFF8000
03FFFE7FFF0000
03FFFEFFFF0000
01FFFFFFFE0000
01FFFFFFFE0000
01FFFFFFFC0000
00FFFFFFFC0000
00FFFFFFFC0000
007FFFFFF80000
007FFFFFF80000
007FFFFFF00000
003FFFFFF00000
003FFFFFE00000
001FFFFFE00000
001FFFFFE00000
001FFFFFC00000
000FFFFFC00000
000FFFFF800000
0007FFFF800000
0007FFFF000000
0003FFFF000000
0003FFFF000000
0001FFFE000000
0001FFFE000000
0000FFFE000000
0000FFFC000000
00007FFC000000
00007FFC000000
00003FF8000000
00003FF0000000
00001F00000000
ENDCHAR
STARTCHAR 0077
ENCODING 119
SWIDTH 720 0
DWIDTH 64 0
BBX 64 62 12 0
BITMAP
0000000000001000
0000000000003800
0FF8000000007C0E
1FFF800000007FFE
3FFFC000E000FFFF
3FFFC003F000FFFE
7FFFC003F001FFFC
7FFFC003F003FFFC
7FFFE007F003FFF8
7FFFE007F007FFF0
FFFFE007F807FFF0
FFFFE007F80FFFE0
FFFFE00FF80FFFE0
FFFFE00FF81FFFC0
FFFFF00FF83FFFC0
FFFFF01FF83FFF80
7FFFF01FF87FFF80
7FFFF01FF87FFF00
7FFFF03FF8FFFF00
7FFFF83FF8FFFF00
7FFFF83FF9FFFF00
7FFFF87FFDFFFF00
7FFFF87FFFFFFE00
3FFFFCFFFFFFFE00
3FFFFCFFFFFFFC00
3FFFFDFFFFFFFC00
3FFFFFFFFFFFFC00
1FFFFFFFFFFFF800
1FFFFFFFFFFFF800
1FFFFFFFFFFFF000
1FFFFFFFFFFFF000
1FFFFFFFFFFFF000
0FFFFFFFFFFFE000
0FFFFFFFFFFFE000
0FFFFFFFFFFFC000
0FFFFFFFFFFFC000
07FFFFFFFFFF8000
07FFFFF7FFFF8000
07FFFFF7FFFF8000
03FFFFE7FFFF0000
03FFFFC7FFFF0000
03FFFFC7FFFF0000
03FFFFC3FFFE0000
01FFFF83FFFE0000
01FFFF83FFFE0000
01FFFF03FFFC0000
00FFFE03FFFC0000
00FFFC03FFFC0000
00FFFC03FFF80000
00FFF803FFF80000
007FF803FFF80000
007FF003FFF00000
007FF003FFF00000
003FE003FFE00000
003FE003FFE00000
003FC001FFC00000
001FC001FFC00000
001F8001FF000000
001F8001F0000000
000F000000000000
000F000000000000
0006000000000000
ENDCHAR
STARTCHAR 0078
ENCODING 120
SWIDTH 573 0
DWIDTH 51 0
BBX 57 59 5 1
BITMAP
00000000001FFF00
00000600001FFF80
001FFF80003FFF80
003FFF80007FFF80
007FFF0000FFFF80
00FFFF8000FFFF00
00FFFF8001FFFE00
00FFFFC003FFFE00
01FFFFC007FFFC00
01FFFFE007FFF800
01FFFFE00FFFF000
01FFFFE01FFFF000
01FFFFE01FFFE000
00FFFFF03FFFE000
00FFFFF03FFFC000
00FFFFF07FFF8000
00FFFFF0FFFF8000
007FFFF8FFFF0000
007FFFF9FFFE0000
003FFFF9FFFE0000
003FFFFFFFFC0000
001FFFFFFFFC0000
000FFFFFFFF80000
0007FFFFFFF80000
0007FFFFFFF00000
0003FFFFFFE00000
0003FFFFFFC00000
0001FFFFFF800000
0001FFFFFF800000
0000FFFFFF000000
0000FFFFFE000000
0000FFFFFE000000
0000FFFFFC000000
0000FFFFFC000000
0000FFFFFC000000
0003FFFFFC000000
0007FFFFFE000000
0007FFFFFE000000
000FFFFFFE000000
001FFFFFFE000000
003FFFFFFE000000
003FFFFFFE000000
007FFFFFFF000000
00FFFE7FFF000000
00FFFE7FFF000000
01FFFE7FFF000000
03FFFC3FFF000000
03FFFC3FFF000000
07FFF81FFF800000
0FFFF81FFF800000
0FFFF80FFF800000
1FFFF00FFF800000
1FFFF007FFC00000
3FFFE007FF800000
3FFFE003FE000000
7FFFC001C0000000
7FFFC00000000000
FFFF800000000000
2000000000000000
ENDCHAR
STARTCHAR 0079
ENCODING 121
SWIDTH 607 0
DWIDTH 54 0
BBX 53 61 13 0
BITMAP
000000000038F8
0000000001FFF8
000C000007FFF0
003E000007FFE0
07FE000007FFC0
3FFF00000FFF80
FFFF00001FFF80
FFFF80003FFF80
FFFF80007FFF00
FFFF80007FFE00
FFFFC0007FFE00
7FFFC000FFFC00
7FFFC001FFF800
7FFFC003FFF800
7FFFE003FFF000
3FFFE007FFE000
3FFFE00FFFC000
1FFFE01FFFC000
1FFFF01FFF8000
1FFFF03FFF0000
1FFFF07FFF0000
0FFFF0FFFE0000
0FFFF0FFFC0000
0FFFF9FFFC0000
07FFFBFFF80000
07FFFBFFF00000
07FFFFFFF00000
07FFFFFFE00000
03FFFFFFC00000
03FFFFFFC00000
03FFFFFF800000
01FFFFFF000000
01FFFFFF000000
01FFFFFE000000
01FFFFFC000000
00FFFFFC000000
00FFFFF8000000
00FFFFF0000000
007FFFF0000000
007FFFE0000000
007FFFC0000000
003FFF80000000
003FFF80000000
003FFF80000000
001FFF80000000
001FFF00000000
001FFF00000000
003FFF00000000
003FFF00000000
003FFF00000000
003FFF00000000
007FFF00000000
007FFF00000000
007FFF00000000
007FFF00000000
007FFF00000000
007FFF00000000
00FFFE00000000
00FFFE00000000
00FFF800000000
007F0000000000
ENDCHAR
STARTCHAR 007A
ENCODING 122
SWIDTH 596 0
DWIDTH 53 0
BBX 46 60 11 1
BITMAP
000003FFFC00
00007FFFFFFC
0007FFFFFFFC
007FFFFFFFF8
01FFFFFFFFF0
03FFFFFFFFE0
07FFFFFFFFC0
0FFFFFFFFF80
1FFFFFFFFF00
1FFFFFFFFF00
3FFFFFFFFE00
7FFFFFFFFC00
7FFFFFFFF800
FFFFFFFFF000
FFFFFFFFF000
FFFFA7FFE000
FF8007FFC000
00000FFFC000
00000FFF8000
00001FFF0000
00001FFF0000
00003FFE0000
00007FFE0000
00007FFC0000
0000FFF80000
0000FFF80000
0001FFF00000
0001FFF00000
0003FFE00000
0007FFE00000
0007FFC00000
000FFFC00000
000FFF800000
001FFF800000
001FFF800000
003FFF000000
007FFF000000
007FFE000000
00FFFE000000
00FFFE000000
01FFFC000000
01FFF8000000
03FFF0000000
03FFE0000000
07FFC01FFFE0
0FFFDFFFFFF0
0FFFFFFFFFF0
1FFFFFFFFFF0
1FFFFFFFFFE0
3FFFFFFFFFE0
3FFFFFFFFFE0
7FFFFFFFFFC0
7FFFFFFFFF80
7FFFFFFFFF00
FFFFFFFFFE00
FFFFFFFFFC00
00FFFFFFF800
001FFFFFE000
0007FFFF8000
00007FF80000
ENDCHAR
STARTCHAR 007B
ENCODING 123
SWIDTH 348 0
DWIDTH 31 0
BBX 36 84 8 -9
BITMAP
0000000780
0000001FC0
0000003FC0
0000007FC0
000000FFE0
000000FFE0
000001FFE0
000003FFE0
000007FFF0
00000FFFF0
00001FFFE0
00001FFFC0
00003FFF00
00007FFC00
00007FFC00
00007FF800
0000FFF000
0000FFE000
0000FFE000
0001FFC000
0001FF8000
0003FF8000
0003FF0000
0007FF0000
0007FE0000
000FFE0000
000FFE0000
001FFC0000
001FFC0000
003FFC0000
003FF80000
007FF80000
007FF00000
007FF00000
00FFE00000
07FFE00000
1FFFC00000
3FFFC00000
7FFFC00000
7FFF800000
7FFF800000
FFFF800000
FFFFC00000
FFFFC00000
FFFFC00000
FFFFC00000
7FFFC00000
01FFC00000
01FFC00000
01FFC00000
01FFC00000
01FFC00000
01FFC00000
03FFC00000
03FFC00000
03FFC00000
03FFC00000
03FFC00000
03FF800000
03FF800000
03FF800000
07FF800000
07FF000000
07FF000000
07FF000000
07FF800000
07FF800000
0FFF000000
0FFF000000
0FFF000000
0FFF000000
0FFF800000
0FFFE00000
0FFFF00000
0FFFF00000
07FFF00000
07FFF00000
03FFF00000
03FFE00000
01FFE00000
00FFC00000
007FC00000
003F800000
000F000000
ENDCHAR
STARTCHAR 007C
ENCODING 124
SWIDTH 180 0
DWIDTH 16 0
BBX 31 90 0 -14
BITMAP
00001000
00003FFC
00003FFE
00003FFC
00003FFC
00007FFC
00007FFC
00007FFC
0000FFF8
0000FFF8
0000FFF8
0000FFF8
0001FFF8
0001FFF0
0001FFF0
0003FFF0
0003FFF0
0003FFE0
0003FFE0
0007FFE0
0007FFE0
0007FFE0
0007FFC0
0007FFC0
0007FFC0
0007FFC0
000FFFC0
000FFFC0
000FFF80
000FFF80
001FFF80
001FFF80
001FFF80
001FFF00
001FFF00
003FFF00
003FFE00
003FFE00
003FFE00
003FFE00
007FFC00
007FFC00
007FFC00
007FFC00
00FFFC00
00FFFC00
00FFF800
00FFF800
00FFF800
01FFF800
01FFF800
01FFF800
01FFF000
01FFF000
03FFE000
03FFE000
03FFE000
03FFE000
03FFE000
07FFE000
07FFC000
07FFC000
07FFC000
07FFC000
0FFFC000
0FFF8000
0FFF8000
0FFF8000
0FFF8000
0FFF0000
0FFF0000
1FFF0000
1FFF0000
1FFF0000
1FFE0000
3FFE0000
3FFE0000
3FFE0000
3FFC0000
7FFC0000
7FFC0000
7FFC0000
7FF80000
7FF80000
FFF80000
FFF80000
FFF80000
FFF00000
FFF00000
F0000000
ENDCHAR
STARTCHAR 007D
ENCODING 125
SWIDTH 348 0
DWIDTH 31 0
BBX 36 84 1 -9
BITMAP
00001F8000
00001FC000
00003FE000
00003FF000
00007FF800
00007FFC00
0000FFFE00
0000FFFE00
0000FFFF00
0000FFFF00
0000FFFF00
00003FFF00
00001FFF00
00000FFF00
00000FFF00
00000FFF00
00000FFF00
00000FFE00
00000FFE00
00000FFE00
00000FFE00
00000FFE00
00000FFE00
00001FFE00
00001FFC00
00001FFC00
00001FFC00
00003FFC00
00003FFC00
00003FFC00
00003FFC00
00003FFC00
00003FFC00
00003FF800
00003FF800
00003FFC00
00003FFC00
00003FFFE0
00003FFFF0
00003FFFF0
00003FFFF0
00001FFFF0
00001FFFF0
00001FFFE0
00001FFFE0
00003FFFE0
00003FFFC0
00003FFF00
00007FFC00
00007FF000
0000FFE000
0000FFE000
0001FFE000
0001FFC000
0001FFC000
0003FF8000
0003FF8000
0007FF0000
0007FF0000
0007FE0000
000FFE0000
000FFC0000
001FFC0000
001FF80000
003FF80000
007FF00000
007FF00000
00FFF00000
01FFE00000
03FFE00000
07FFC00000
1FFFC00000
3FFF800000
7FFF800000
FFFF000000
7FFE000000
7FFC000000
7FF8000000
7FF0000000
3FF0000000
3FE0000000
3FC0000000
1F00000000
1C00000000
ENDCHAR
STARTCHAR 007E
ENCODING 126
SWIDTH 472 0
DWIDTH 42 0
BBX 44 20 6 21
BITMAP
001FE003FFF0
007FF003FFE0
00FFF803FFE0
01FFFE07FFE0
07FFFF07FFE0
07FFFFFFFFE0
0FFFFFFFFFC0
1FFFFFFFFFC0
1FFFFFFFFFC0
3FFFFFFFFFC0
3FFFFFFFFF80
3FFFFFFFFF80
3FFFFFFFFE00
7FFFFFFFFC00
7FFDFFFFF800
7FF0FFFFF000
7FF07FFFE000
FFE03FFFC000
FFE00FFF0000
FFE000FC0000
ENDCHAR
STARTCHAR 00A0
ENCODING 160
SWIDTH 303 0
DWIDTH 27 0
BBX 0 0 0 0
BITMAP
ENDCHAR
STARTCHAR 00A1
ENCODING 161
SWIDTH 292 0
DWIDTH 26 0
BBX 33 67 -2 -17
BITMAP
000000F000
000003FE00
00000FFF00
00001FFF80
00003FFF80
00003FFF80
00007FFF80
00007FFF00
0000FFFF00
0000FFFF00
0000FFFF00
0000FFFE00
0000FFFE00
0000FFFC00
00003FF800
00001FF000
000003C000
0000000000
0000000000
0000000000
0000000000
0000000000
0000FC0000
0003FF0000
0003FFC000
0007FFC000
0007FFC000
0007FFC000
000FFFC000
000FFFC000
000FFFC000
001FFFC000
001FFFC000
003FFF8000
003FFF8000
003FFF8000
007FFF8000
007FFF8000
007FFF8000
00FFFF8000
00FFFF8000
00FFFF0000
01FFFF0000
01FFFF0000
03FFFF0000
03FFFF0000
03FFFF0000
07FFFF0000
07FFFF0000
07FFFF0000
0FFFFF0000
0FFFFF0000
0FFFFF0000
1FFFFE0000
1FFFFE0000
1FFFFE0000
3FFFFF0000
3FFFFF0000
3FFFFF0000
3FFFFF0000
7FFFFF0000
7FFFFF0000
7FFFFF0000
7FFFFF0000
FFFFFF0000
FFFFFF0000
0FFFFE0000
ENDCHAR
STARTCHAR 00A2
ENCODING 162
SWIDTH 495 0
DWIDTH 44 0
BBX 47 76 6 -7
BITMAP
000000000FC0
000000001FFE
000000001FFE
000000003FFE
000000003FFC
000000003FFC
000000007FFC
000000007FF8
00000000FFF8
0000007FFFF0
000007FFFFF0
00001FFFFFF0
00003FFFFFF8
0000FFFFFFFC
0001FFFFFFFC
0003FFFFFFFC
0007FFFFFFFE
000FFFFFFFFE
001FFFFFFFFE
001FFFFFFFFE
003FFFFFFFFC
007FFFFFFFFC
00FFFFFFFFFC
00FFFFFFFFF8
01FFFFFFFFF8
03FFFFFFFFF8
03FFFFFFFFF8
07FFFFFFFFF0
07FFFFFFFFF0
0FFFFDFFFFE0
0FFFF9FFE7E0
0FFFF1FFE0C0
1FFFE3FFC000
1FFFC3FFC000
1FFF87FF8000
3FFF87FF8000
3FFF0FFF8000
3FFF0FFF0000
3FFE1FFF0000
7FFE1FFE0000
7FFE1FFE0000
7FFE3FFE0000
7FFE3FFC0000
7FFE7FFC0000
FFFE7FF80000
FFFEFFF80000
FFFFFFF00000
FFFFFFF00000
FFFFFFE00000
FFFFFFE00E00
FFFFFFE7FF00
FFFFFFFFFF00
7FFFFFFFFF00
7FFFFFFFFF00
7FFFFFFFFF00
7FFFFFFFFF00
7FFFFFFFFE00
3FFFFFFFFE00
3FFFFFFFFE00
1FFFFFFFFE00
0FFFFFFFFE00
07FFFFFFF800
07FFFFFFF000
01FFFFFFE000
007FFFFF8000
00FFFFFE0000
00FFFFF00000
00FFFE000000
01FFE0000000
01FFC0000000
03FFC0000000
03FFC0000000
07FF80000000
07FF80000000
01FF00000000
003F00000000
ENDCHAR
STARTCHAR 00A3
ENCODING 163
SWIDTH 540 0
DWIDTH 48 0
BBX 54 61 3 0
BITMAP
00000000078000
000000007FF000
00000001FFFE00
00000003FFFF80
00000007FFFFC0
0000001FFFFFE0
0000003FFFFFF0
0000007FFFFFF0
000000FFFFFFF0
000001FFFFFFF8
000003FFFFFFFC
000007FFFFFFFC
000007FFF7FFFC
00000FFFE3FFFC
00001FFFF3FFF8
00001FFFF3FFF8
00003FFFE1FFF8
00003FFFC1FFF8
00007FFFC1FFF8
00007FFF80FFE0
00007FFF80FE00
0000FFFF800000
0000FFFF000000
0000FFFF000000
0001FFFF000000
0001FFFE000000
03FFFFFFFFF000
03FFFFFFFFF000
03FFFFFFFFF000
07FFFFFFFFF000
07FFFFFFFFF000
07FFFFFFFFE000
07FFFFFFFFE000
0FFFFFFFFFE000
0FFFFFFFFFE000
0FFFFFFFFFC000
000FFFF8040000
000FFFF8000000
000FFFF8000000
000FFFF8000000
000FFFF8000000
000FFFF0000000
001FFFF0000000
001FFFF0000000
001FFFF0000000
001FFFE0000000
07FFFFFC000000
3FFFFFFFFFFE00
3FFFFFFFFFFE00
3FFFFFFFFFFE00
7FFFFFFFFFFC00
7FFFFFFFFFFC00
7FFFFFFFFFF800
7FFFFFFFFFF800
7FFFFFFFFFF800
FFFFFFFFFFF000
FFFFFFFFFFF000
7FFFFFFFFFE000
1FFFFFFFFFE000
01FFFFFFFF8000
0000000F800000
ENDCHAR
STARTCHAR 00A4
ENCODING 164
SWIDTH 438 0
DWIDTH 39 0
BBX 41 37 6 13
BITMAP
000000002000
000F0000F000
001F8001F000
003FC003F800
007FCF07FC00
00FFFFEFFE00
01FFFFFFFE00
07FFFFFFFF00
0FFFFFFFFF80
0FFFFFFFFF00
07FFFFFFFE00
03FFFFFFFC00
03FFF1FFF800
01FFE0FFF000
00FFC0FFC000
00FF807F8000
01FF007F8000
01FF007F8000
01FE007F8000
01FE00FF8000
03FE00FF8000
03FE01FF0000
03FE01FF0000
03FE03FF0000
03FF03FF8000
0FFF87FFC000
3FFFFFFFE000
7FFFFFFFF000
FFFFFFFFF000
FFFFFFFFF000
7FFFFFFFE000
7FFFFFFFC000
3FFFFFFF8000
1FF001FE0000
0FC000FC0000
078000780000
030000200000
ENDCHAR
STARTCHAR 00A5
ENCODING 165
SWIDTH 607 0
DWIDTH 54 0
BBX 58 61 8 0
BITMAP
000000000001C7C0
00000000000FFFC0
00006000003FFF80
0001F000003FFF00
003FF000003FFE00
01FFF800007FFC00
07FFF80000FFFC00
07FFFC0001FFFC00
07FFFC0003FFF800
07FFFC0003FFF000
07FFFE0003FFF000
03FFFE0007FFE000
03FFFE000FFFC000
03FFFE001FFFC000
03FFFF001FFF8000
01FFFF003FFF0000
01FFFF007FFE0000
00FFFF00FFFE0000
00FFFF80FFFC0000
00FFFF81FFF80000
00FFFF83FFF80000
007FFF87FFF00000
007FFF87FFE00000
007FFFCFFFE00000
003FFFDFFFC00000
003FFFDFFF800000
003FFFFFFFF80000
07FFFFFFFFF00000
07FFFFFFFFF00000
07FFFFFFFFF00000
07FFFFFFFFF00000
07FFFFFFFFF00000
0FFFFFFFFFF00000
0FFFFFFFFFF00000
0FFFFFFFFFE00000
1FFFFFFFFFE00000
1FFFFFFFFFE00000
1FFFFFFFE7000000
07FFFFFF80000000
0003FFFF00000000
0003FFFE00000000
01FFFFFDE0000000
1FFFFFFFFFC00000
1FFFFFFFFFC00000
1FFFFFFFFFC00000
3FFFFFFFFFC00000
3FFFFFFFFF800000
3FFFFFFFFF800000
3FFFFFFFFF800000
7FFFFFFFFF800000
7FFFFFFFFF800000
7FFFFFFFFF000000
FFFFFFF800000000
0F03FFF800000000
0003FFF800000000
0003FFF800000000
0003FFF800000000
0007FFF000000000
0007FFF000000000
0007FFC000000000
0003F80000000000
ENDCHAR
STARTCHAR 00A6
ENCODING 166
SWIDTH 180 0
DWIDTH 16 0
BBX 32 90 -1 -14
BITMAP
00000FF0
00001FFF
00001FFF
00003FFE
00003FFE
00007FFE
00007FFE
00007FFE
00007FFC
00007FFC
00007FFC
00007FFC
0000FFFC
0000FFF8
0000FFF8
0000FFF8
0001FFF8
0001FFF8
0001FFF0
0001FFF0
0001FFF0
0003FFF0
0003FFF0
0003FFE0
0003FFE0
0003FFE0
0003FFE0
0007FFC0
0007FFC0
0007FFC0
0007FFC0
0007FFC0
000FFF80
000FFF80
000FFF80
000FFF80
000FFF00
001FFF00
001FFF00
001FFF00
00000000
00000000
00000000
00000000
00000000
00000000
00000000
00000000
00000000
00000000
00000000
00FFF800
00FFF800
00FFF000
01FFF000
01FFF000
01FFE000
01FFE000
03FFE000
03FFE000
03FFE000
03FFE000
03FFE000
07FFC000
07FFC000
07FFC000
0FFFC000
0FFFC000
0FFF8000
0FFF8000
0FFF8000
0FFF8000
1FFF8000
1FFF0000
1FFF0000
1FFF0000
1FFF0000
3FFF0000
3FFE0000
3FFE0000
3FFE0000
3FFE0000
7FFE0000
7FFE0000
7FFE0000
7FFC0000
7FFC0000
FFF80000
FFF80000
00100000
ENDCHAR
STARTCHAR 00A7
ENCODING 167
SWIDTH 495 0
DWIDTH 44 0
BBX 42 76 8 -7
BITMAP
0000007FC000
000003FFF000
00000FFFFC00
00001FFFFE00
00007FFFFF00
0001FFFFFF80
0003FFFFFFC0
0007FFFFFFC0
000FFFFFFFC0
000FFFFFFFC0
001FFFFFFFC0
001FFFFFFFC0
001FFFFFFFC0
003FFFFFFF80
003FFFFFFF80
003FFFE03F00
007FFFC01E00
007FFF800000
003FFF800000
003FFF800000
003FFF800000
003FFFC00000
007FFFE00000
00FFFFF80000
01FFFFFF0000
03FFFFFFE000
03FFFFFFF000
07FFFFFFFC00
07FFFFFFFE00
0FFFFFFFFF00
0FFFFFFFFF00
1FFFFFFFFF80
3FFFFFFFFF80
3FFFFFFFFFC0
7FFFE07FFFC0
7FFF803FFFC0
FFFE001FFFC0
FFFE001FFFC0
FFFE001FFFC0
FFFE003FFF80
FFFF00FFFF80
FFFFC7FFFF00
FFFFFFFFFF00
7FFFFFFFFE00
7FFFFFFFFE00
3FFFFFFFFC00
1FFFFFFFFC00
0FFFFFFFF800
03FFFFFFF000
00FFFFFFF000
003FFFFFF000
0007FFFFE000
0001FFFFC000
0000FFFF0000
00007FFF0000
00007FFF0000
00007FFF0000
00007FFF8000
0C00FFFF8000
1E01FFFF0000
3F87FFFF0000
7FFFFFFF0000
7FFFFFFF0000
FFFFFFFE0000
FFFFFFFE0000
FFFFFFFC0000
FFFFFFFC0000
FFFFFFFC0000
FFFFFFF80000
7FFFFFF00000
7FFFFF800000
3FFFFF000000
1FFFFE000000
07FFF8000000
03FFE0000000
003C00000000
ENDCHAR
STARTCHAR 00A8
ENCODING 168
SWIDTH 303 0
DWIDTH 27 0
BBX 26 10 15 62
BITMAP
07003F00
1FC07F80
3FC07FC0
7FC0FFC0
7FC0FF80
7FC0FF80
FFC0FF00
7F80FE00
3F007C00
1E000000
ENDCHAR
STARTCHAR 00A9
ENCODING 169
SWIDTH 663 0
DWIDTH 59 0
BBX 59 57 7 3
BITMAP
000000001E000000
0000000FFFFC0000
000000FFFFFF8000
000007FFFFFFE000
00001FFFFFFFF800
0000FFFFFFFFFC00
0001FFFFFFFFFE00
0007FFFFFFFFFF00
000FFFFFFFFFFF00
001FFFFF01FFFF00
003FFFE0007FFF80
007FFF80001FFF80
007FFE00000FFF80
00FFF8000007FFC0
01FFE0002003FFC0
01FFC00FF801FFC0
03FF803FFE01FFC0
07FF007FFF00FFC0
07FE00FFFF00FFC0
0FFC01FFFF80FFC0
0FF803FFFF00FFE0
1FF003FFFF007FE0
1FF007FFFF007FE0
1FE007FFFF007FE0
3FE00FFFFE007FE0
3FC00FFC02007FE0
3FC01FF800007FC0
7FC01FF00000FFC0
7FC01FF00000FFC0
7FC03FE00000FF80
7F803FE00000FF80
7F803FE00000FF80
FF803FE00001FF00
FFC03FE00001FF00
FFC03FF00001FF00
FFC03FF80003FE00
FFC03FFFF803FE00
FFC03FFFF803FC00
FFE03FFFF807FC00
FFE01FFFF807F800
FFE01FFFF80FF000
FFF00FFFE00FF000
FFF003FFC01FE000
7FF800FF003FC000
7FFC000000FF8000
7FFE000003FF8000
3FFF00000FFF0000
3FFF80007FFE0000
3FFFFFFFFFF80000
1FFFFFFFFFF00000
0FFFFFFFFFE00000
0FFFFFFFFF800000
07FFFFFFFE000000
03FFFFFFF8000000
00FFFFFFF0000000
001FFFFFC0000000
0000FFFE00000000
ENDCHAR
STARTCHAR 00AA
ENCODING 170
SWIDTH 326 0
DWIDTH 29 0
BBX 27 31 8 29
BITMAP
00003E00
00003E00
00007E00
0000FE00
0000FE00
0001FE00
0001FE00
0003FE00
0003FE00
0007FE00
000FFE00
000FFF00
001FFF00
001FFF00
003FFF00
007FFF00
0078FF00
00F8FF00
01F0FF00
01E0FF00
03FFFF00
07FFFF80
07FFFF80
0FFFFF80
1FE1FF80
1FC1FF80
3F81FFC0
7F81FFC0
7F81FFC0
FF80FFE0
F0000000
ENDCHAR
STARTCHAR 00AB
ENCODING 171
SWIDTH 472 0
DWIDTH 42 0
BBX 44 40 5 1
BITMAP
000001800010
00000F800030
00001F0000F0
00007F0001F0
0000FF0007F0
0001FE000FF0
0003FE001FE0
0007FE007FE0
001FFE00FFE0
003FFC03FFE0
007FFC07FFE0
00FFFC1FFFC0
01FFFC3FFFC0
03FFFCFFFFC0
07FFFBFFFF80
0FFFE3FFFF00
3FFF83FFF800
3FFE07FF8000
7FF007FE0000
7FC007F80000
7F8007FC0000
7FE007FF0000
FFF80FFFC000
FFFF07FFF000
FFFFE3FFF800
FFFFE3FFFE00
3FFFE1FFFE00
1FFFE0FFFC00
0FFFE0FFFC00
07FFE07FFC00
03FFC03FFC00
01FFC03FFC00
00FFC01FF800
007FC00FF800
003FC007F800
001F8007F800
000F8003F800
00078001F800
000300007800
000100001000
ENDCHAR
STARTCHAR 00AC
ENCODING 172
SWIDTH 472 0
DWIDTH 42 0
BBX 42 23 7 15
BITMAP
1FFFFFFFFFC0
1FFFFFFFFFC0
3FFFFFFFFFC0
3FFFFFFFFF80
3FFFFFFFFF80
3FFFFFFFFF80
7FFFFFFFFF80
7FFFFFFFFF80
7FFFFFFFFF80
7FFFFFFFFF00
FFFFFFFFFF00
FFFFFFFFFF00
FFFFFFFFFF00
0E00003FFE00
0000003FFE00
0000003FFE00
0000007FFC00
0000007FFC00
0000007FFC00
0000007FFC00
0000007FFC00
0000007FF800
00000027F800
ENDCHAR
STARTCHAR 00AD
ENCODING 173
SWIDTH 382 0
DWIDTH 34 0
BBX 34 14 7 24
BITMAP
1FFFFFFFC0
1FFFFFFFC0
3FFFFFFFC0
3FFFFFFF80
3FFFFFFF80
3FFFFFFF80
7FFFFFFF80
7FFFFFFF80
7FFFFFFF80
7FFFFFFF00
FFFFFFFF00
FFFFFFFF00
FFFFFFFF00
1800000000
ENDCHAR
STARTCHAR 00AE
ENCODING 174
SWIDTH 450 0
DWIDTH 40 0
BBX 38 37 10 26
BITMAP
00007FF800
0007FFFE00
001FFFFF00
003FFFFF80
00FFFFFFC0
01FFFFFFE0
01FF001FF0
03FE0003F8
07F81C01F8
0FF1FF80FC
0FE3FFC07C
1FC3FBE07C
1FC3F0E07C
3F87F0E07C
3F07F1E07C
3F07F3E0FC
7E07F7C0FC
7E07FF80FC
7E07FE00FC
7C07FF00FC
FC07FF01FC
FC0FEF81FC
FC0FEF81F8
FC0FE783F8
FE0FE7C3F0
FE0FE7C7F0
7F0FE3EFE0
7F0FC31FE0
7F80003FC0
7FE000FF80
3FF001FF80
3FFF0FFF00
1FFFFFFE00
0FFFFFFC00
07FFFFF000
01FFFFC000
003FFF0000
ENDCHAR
STARTCHAR 00AF
ENCODING 175
SWIDTH 326 0
DWIDTH 29 0
BBX 28 8 15 63
BITMAP
3FFFFFF0
7FFFFFE0
7FFFFFE0
7FFFFFE0
7FFFFFE0
FFFFFFE0
FFFFFFC0
3F000000
ENDCHAR
STARTCHAR 00B0
ENCODING 176
SWIDTH 326 0
DWIDTH 29 0
BBX 28 30 11 34
BITMAP
0000C000
000FFC00
003FFE00
00FFFF00
01FFFFC0
03FFFFC0
07FFFFE0
0FFFFFE0
1FFC3FE0
1FF03FF0
3FE03FF0
3FE03FF0
7FC01FE0
7FC01FE0
7F803FE0
7F803FE0
7F803FE0
7F803FC0
FF807FC0
FFC0FF80
FFC1FF80
7FE3FF00
7FFFFE00
3FFFFC00
3FFFF800
1FFFF000
0FFFE000
07FF8000
03FE0000
00700000
ENDCHAR
STARTCHAR 00B1
ENCODING 177
SWIDTH 472 0
DWIDTH 42 0
BBX 47 52 2 -1
BITMAP
000000FFF000
000001FFF000
000001FFE000
000001FFE000
000003FFE000
000003FFC000
000003FFC000
000003FFC000
000003FFC000
000007FFC000
000007FFC000
000007FFC000
000007FF8000
00FFFFFFFFFC
01FFFFFFFFFE
01FFFFFFFFFC
01FFFFFFFFFC
01FFFFFFFFFC
03FFFFFFFFFC
03FFFFFFFFFC
03FFFFFFFFF8
03FFFFFFFFF8
07FFFFFFFFF8
07FFFFFFFFF8
07FFFFFFFFF8
07E1FFFFFFE0
00003FFC0000
00003FFC0000
00003FFC0000
00007FFC0000
00007FFC0000
00007FFC0000
00007FFC0000
00007FF80000
0000FFF80000
0000FFF80000
0000FFF00000
0000FFF00000
000000000000
000000000000
000000000000
3FFFFFFFFE00
7FFFFFFFFF00
7FFFFFFFFF00
7FFFFFFFFF00
7FFFFFFFFE00
7FFFFFFFFE00
FFFFFFFFFE00
FFFFFFFFFE00
FFFFFFFFFC00
FFFFFFFFFC00
01EFF8100000
ENDCHAR
STARTCHAR 00B2
ENCODING 178
SWIDTH 270 0
DWIDTH 24 0
BBX 22 31 10 31
BITMAP
001800
007F00
00FFC0
03FFF0
07FFF0
0FFFF0
1FFFF0
0FFFE0
0FC7E0
0707E0
0607E0
000FC0
000FC0
001F80
001F80
003F00
007E00
007E00
00FC1C
01FFFC
01FFF8
03FFF8
07FFF0
0FFFF0
1FFFF0
1FFFE0
7FFFE0
FFFFC0
FFFF00
3FF800
018000
ENDCHAR
STARTCHAR 00B3
ENCODING 179
SWIDTH 247 0
DWIDTH 22 0
BBX 20 30 9 30
BITMAP
00FF80
03FFC0
03FFC0
03FF80
03FF80
001F00
003F00
007E00
007E00
00FC00
01FF80
03FFE0
07FFF0
07FFF0
07FFF0
01CFF0
0003F0
0001F0
0001F0
0001F0
0001F0
0003F0
0007F0
E01FE0
FFFFE0
FFFFC0
7FFF80
3FFF00
0FFC00
03F000
ENDCHAR
STARTCHAR 00B4
ENCODING 180
SWIDTH 236 0
DWIDTH 21 0
BBX 20 14 15 63
BITMAP
007FF0
00FFF0
00FFF0
01FFE0
03FFC0
07FF80
0FFF00
1FFE00
1FFC00
3FF800
7FE000
7FC000
FFC000
1F8000
ENDCHAR
STARTCHAR 00B5
ENCODING 181
SWIDTH 551 0
DWIDTH 49 0
BBX 56 61 -1 -14
BITMAP
000000000000F8
0001FFC0001FF8
0007FFE001FFF8
000FFFE001FFF8
000FFFE001FFFC
000FFFE001FFFC
000FFFC000FFFC
001FFF8000FFFE
001FFF8000FFFE
001FFF0001FFFE
001FFF0001FFFE
003FFF0001FFFF
003FFF0001FFFF
003FFF0001FFFF
003FFF0003FFFE
003FFF0003FFFE
007FFF0003FFFE
007FFF0007FFFE
007FFF0007FFFC
007FFF000FFFFC
00FFFF000FFFFC
00FFFF001FFFFC
00FFFF001FFFF8
00FFFF003FFFF8
00FFFF807FFFF8
00FFFF81FFFFF0
01FFFF8FFFFFF0
01FFFFFFFFFFE0
01FFFFFFFFFFE0
03FFFFFFFFFFE0
03FFFFFFFFFFC0
03FFFFFFFFFFC0
03FFFFFFFFFF80
03FFFFFFFFFF00
07FFFFFFFFFF00
07FFFFFFFFFE00
07FFFFFFFFFC00
07FFFFFFFFF800
07FFFFFFFFF800
07FFFFFFFFF000
0FFFFFFFFFF000
0FFFFFFFFFC000
0FFFFFFFFF8000
0FFFFFFFFE0000
0FFFBFFFF80000
1FFF9FFF800000
1FFF0000000000
1FFF0000000000
3FFF0000000000
3FFF0000000000
3FFE0000000000
3FFE0000000000
3FFE0000000000
3FFE0000000000
7FFE0000000000
7FFE0000000000
7FFC0000000000
7FFC0000000000
7FF80000000000
FFF80000000000
FFF80000000000
ENDCHAR
STARTCHAR 00B6
ENCODING 182
SWIDTH 393 0
DWIDTH 35 0
BBX 37 70 9 -7
BITMAP
00007FFFF8
0003FFFFF8
000FFFFFF8
003FFFFFF8
007FFFFFF8
00FFFFFFF0
01FFFFFFF0
03FFFFFFF0
07FFFFFFF0
0FFFFFFFF0
0FFFFFFFE0
0FFFFFFFE0
1FFFFF1FE0
1FFFFC1FE0
1FFFF83FE0
1FFFF83FC0
3FFFF83FC0
3FFFF83FC0
3FFFF87FC0
3FFFF07FC0
3FFFF07F80
3FFFF0FF80
7FFFF0FF80
7FFFF0FF80
7FFFE0FF80
7FFFE0FF00
7FFFE1FF00
FFFFE1FF00
FFFFE1FF00
FFFFC1FF00
7FFFC3FF00
7FFFC3FE00
7FFFC3FE00
3FFFC3FE00
3FFFC3FE00
1FFF87FC00
03FF87FC00
00FF87FC00
01FF87F800
01FF87F800
01FF0FF800
01FF0FF800
01FF0FF800
01FF0FF800
03FF1FF800
03FE1FF800
03FE1FF000
03FE1FF000
03FE1FF000
07FE3FE000
07FC3FE000
07FC3FE000
07FC3FE000
07FC7FC000
0FFC7FC000
0FF87FC000
0FF87FC000
0FF8FFC000
1FF8FF8000
1FF8FF8000
1FF0FF8000
1FF0FF8000
1FF0FF8000
3FF0FF0000
3FE0FF0000
3FE1FF0000
3FE1FF0000
7FE1FE0000
7FC1FE0000
2001800000
ENDCHAR
STARTCHAR 00B7
ENCODING 183
SWIDTH 202 0
DWIDTH 18 0
BBX 16 17 8 23
BITMAP
0038
03FC
0FFE
1FFF
3FFF
7FFF
7FFF
FFFF
FFFF
FFFF
FFFF
FFFE
FFFC
7FFC
3FF0
1FE0
0F00
ENDCHAR
STARTCHAR 00B8
ENCODING 184
SWIDTH 303 0
DWIDTH 27 0
BBX 25 19 -1 -15
BITMAP
003FE000
003FE000
007FE000
007FE000
007FE000
007FF000
003FF800
003FFC00
000FFF00
0007FF00
0003FF80
3801FF80
7F83FF80
FFFFFF00
FFFFFF00
FFFFFE00
7FFFFE00
1FFFF800
03FF8000
ENDCHAR
STARTCHAR 00B9
ENCODING 185
SWIDTH 225 0
DWIDTH 20 0
BBX 16 30 13 31
BITMAP
0018
007E
01FF
07FF
1FFF
3FFE
FFFE
FFFE
7DFE
3DFE
19FE
13FC
03FC
07FC
07FC
07FC
0FFC
0FF8
0FF8
1FF8
1FF8
1FF8
3FF8
3FF8
3FF8
7FF8
7FF8
7FF8
1FF8
0020
ENDCHAR
STARTCHAR 00BA
ENCODING 186
SWIDTH 281 0
DWIDTH 25 0
BBX 23 31 11 31
BITMAP
003C00
007F00
00FF80
01FFE0
03FFF0
03FFF0
07FFF8
0FFFF8
0FFFFC
1FFFFC
3FFFFC
3FE7FC
7FC3FE
7F83FE
7F83FE
FF03FE
FF03FE
FF87FC
FF87FC
FFFFFC
FFFFF8
FFFFF8
FFFFF8
FFFFF0
FFFFF0
7FFFE0
7FFFC0
7FFFC0
3FFF80
0FFE00
03F800
ENDCHAR
STARTCHAR 00BB
ENCODING 187
SWIDTH 472 0
DWIDTH 42 0
BBX 43 40 3 1
BITMAP
01C000000000
01F000180000
01F8001C0000
01F8003E0000
01FC003F0000
03FE003F8000
03FF003FC000
03FF007FE000
03FF807FF000
03FFC07FF800
07FFC07FFC00
07FFE07FFE00
07FFF0FFFF00
07FFF0FFFF80
03FFF8FFFFE0
01FFFCFFFFE0
007FFC1FFFE0
001FFC03FFE0
000FFC00FFE0
0003FC003FE0
0007FC003FC0
001FFC00FFC0
00FFF807FFC0
07FFF81FFF80
3FFFF87FFF00
3FFFE1FFFE00
3FFFC3FFFC00
7FFF03FFF800
7FFE03FFF000
7FF807FFE000
7FF007FF8000
FFE007FF0000
FF8007FE0000
FF000FFC0000
FC000FF80000
F8000FF00000
F0001FC00000
C0001F800000
80001F000000
00001C000000
ENDCHAR
STARTCHAR 00BC
ENCODING 188
SWIDTH 562 0
DWIDTH 50 0
BBX 52 63 5 -1
BITMAP
00000000000600
00001800000FC0
00007E00001FF0
0001FF00001FF0
0007FF00003FF0
001FFF00007FE0
003FFE0000FFE0
00FFFE0000FFC0
00FFFE0001FF80
007DFE0003FF80
003DFE0007FF00
0019FE0007FE00
0013FC000FFC00
0003FC001FFC00
0007FC001FF800
0007FC003FF000
0007FC007FE000
000FFC00FFE000
000FF801FFC000
000FF801FF8000
001FF803FF0000
001FF807FF0000
001FF80FFE0000
003FF81FFC0000
003FF81FF80000
003FF83FF00000
007FF87FF00000
007FF8FFE00000
007FF9FFC00000
001FF9FF800000
000023FF000000
000007FF000000
00000FFE00C000
00001FFC07C000
00001FF81FC000
00003FF01F8000
00007FE01F8000
0000FFE03F0000
0001FFC03F0000
0001FF807E0000
0003FF007E0000
0007FE00FE0000
000FFE00FC0000
001FFC01FC2E00
001FF801FFFE00
003FF001FFFE00
007FE003FFFE00
00FFC003FFFE00
01FFC007FFFE00
03FF8007FFF800
03FF000FFFC000
07FE00080F8000
0FFC00000F8000
1FF800001F8000
3FF000001F8000
3FF000003F8000
7FE000003F8000
FFC000007F8000
7F8000007F8000
7F000000FF8000
1E000001FF8000
00000001FF8000
00000003FF0000
ENDCHAR
STARTCHAR 00BD
ENCODING 189
SWIDTH 562 0
DWIDTH 50 0
BBX 52 61 5 1
BITMAP
00000000000600
00001800000FC0
00007E00001FF0
0001FF00001FF0
0007FF00003FF0
001FFF00007FE0
003FFE0000FFE0
00FFFE0000FFC0
00FFFE0001FF80
007DFE0003FF80
003DFE0007FF00
0019FE0007FE00
0013FC000FFC00
0003FC001FFC00
0007FC001FF800
0007FC003FF000
0007FC007FE000
000FFC00FFE000
000FF801FFC000
000FF801FF8000
001FF803FF0000
001FF807FF0000
001FF80FFE0000
003FF81FFC0000
003FF81FF80000
003FF83FF00000
007FF87FF00000
007FF8FFE00000
007FF9FFC00000
001FF9FF800000
000023FF000000
000007FF3F0000
00000FFE7FC000
00001FFCFFF000
00001FF9FFF800
00003FF7FFF800
00007FEFFFF800
0000FFEFFFF000
0001FFC7EFF000
0001FF8783F000
0003FF0303F000
0007FE0007E000
000FFE0007E000
001FFC000FC000
001FF8000FC000
003FF0001F8000
007FE0001F0000
00FFC0003F0000
01FFC0007E0400
03FF8000FFFE00
03FF0000FFFC00
07FE0001FFFC00
0FFC0003FFF800
1FF80007FFF800
3FF0000FFFF000
3FF0000FFFF000
7FE0001FFFF000
FFC0007FFFE000
7F80007FFFC000
7F00003FFE0000
1E000007E00000
ENDCHAR
STARTCHAR 00BE
ENCODING 190
SWIDTH 562 0
DWIDTH 50 0
BBX 52 63 5 -1
BITMAP
00000000000600
00000000000FC0
000FF800001FF0
003FFC00001FF0
003FFC00003FF0
003FF800007FE0
003FF80000FFE0
0001F00000FFC0
0003F00001FF80
0007E00003FF80
0007E00007FF00
000FC00007FE00
001FF8000FFC00
003FFE001FFC00
007FFF001FF800
007FFF003FF000
007FFF007FE000
001CFF00FFE000
00003F01FFC000
00001F01FF8000
00001F03FF0000
00001F07FF0000
00001F0FFE0000
00003F1FFC0000
00007F1FF80000
0E01FE3FF00000
0FFFFE7FF00000
0FFFFCFFE00000
07FFF9FFC00000
03FFF1FF800000
00FFC3FF000000
003F07FF000000
00000FFE00C000
00001FFC07C000
00001FF81FC000
00003FF01F8000
00007FE01F8000
0000FFE03F0000
0001FFC03F0000
0001FF807E0000
0003FF007E0000
0007FE00FE0000
000FFE00FC0000
001FFC01FC2E00
001FF801FFFE00
003FF001FFFE00
007FE003FFFE00
00FFC003FFFE00
01FFC007FFFE00
03FF8007FFF800
03FF000FFFC000
07FE00080F8000
0FFC00000F8000
1FF800001F8000
3FF000001F8000
3FF000003F8000
7FE000003F8000
FFC000007F8000
7F8000007F8000
7F000000FF8000
1E000001FF8000
00000001FF8000
00000003FF0000
ENDCHAR
STARTCHAR 00BF
ENCODING 191
SWIDTH 461 0
DWIDTH 41 0
BBX 40 64 0 -17
BITMAP
00000001F0
00000007F8
0000001FFC
0000003FFE
0000007FFE
000000FFFF
000000FFFF
000000FFFF
000000FFFE
000000FFFE
000000FFFC
000000FFFC
0000007FF0
0000007FC0
0000001C00
0000000000
0000000000
0000000000
0000000000
0000000000
000001FFE0
000003FFE0
000003FFF0
000003FFE0
000007FFE0
000007FFE0
00000FFFE0
00001FFFE0
00003FFFC0
0000FFFFC0
0003FFFFC0
0007FFFF80
001FFFFF80
007FFFFF00
00FFFFFE00
01FFFFFC00
03FFFFE000
07FFFF0000
07FFFC0000
0FFFF00000
0FFFC00000
1FFFC00000
1FFF800000
1FFF800000
3FFF800000
3FFF000000
3FFF0000F0
7FFF0001F8
7FFF0007FC
7FFF801FFE
7FFFC0FFFE
7FFFFFFFFE
FFFFFFFFFC
FFFFFFFFFC
FFFFFFFFF8
FFFFFFFFF8
FFFFFFFFF0
7FFFFFFFF0
7FFFFFFFE0
7FFFFFFFC0
3FFFFFFF80
1FFFFFFF00
03FFFFFC00
001FFFF000
ENDCHAR
STARTCHAR 00C0
ENCODING 192
SWIDTH 630 0
DWIDTH 56 0
BBX 54 79 1 -2
BITMAP
00000001FFC000
00000003FFC000
00000003FFE000
00000001FFE000
00000001FFE000
00000000FFF000
000000007FF000
000000007FF800
000000003FF800
000000001FF800
000000001FF800
000000000FF800
000000000FFC00
0000000007E000
00000000000000
00000000000000
00000000000000
00000000007C00
0000000007FC00
0000000007FC00
000000000FFE00
000000001FFE00
000000001FFE00
000000003FFE00
000000003FFE00
000000007FFE00
000000007FFE00
00000000FFFE00
00000001FFFE00
00000001FFFE00
00000003FFFE00
00000003FFFE00
00000007FFFE00
0000000FFFFE00
0000000FFFFE00
0000001FFFFE00
0000001FFFFE00
0000003FFFFE00
0000007FFFFF00
0000007FFFFF00
000000FFFFFF00
000000FFFFFF00
000001FFFFFF00
000003FFFFFF00
000003FFFFFF00
000007FFFFFF00
00000FFFFFFF00
00000FFFFFFF00
00001FFFFFFF00
00003FF0FFFF00
00003FF0FFFF80
00007FE0FFFF80
0000FFC0FFFF80
0000FF807FFF80
0001FF007FFF80
0003FF007FFF80
0003FE00FFFF80
0007FC07FFFFC0
000FFFFFFFFFC0
000FFFFFFFFFC0
001FFFFFFFFFC0
001FFFFFFFFFC0
003FFFFFFFFFC0
007FFFFFFFFFE0
007FFFFDFFFFE0
00FFFF81FFFFE0
01FFFE01FFFFE0
01FFF801FFFFE0
03FFF001FFFFF0
07FFF001FFFFF0
07FFE001FFFFF0
0FFFE001FFFFF0
1FFFC001FFFFF8
1FFFC001FFFFF8
3FFFC000FFFFF8
7FFFC000FFFFFC
7FFFC000FFFFFC
FFFF0000F80070
FE000000000000
ENDCHAR
STARTCHAR 00C1
ENCODING 193
SWIDTH 630 0
DWIDTH 56 0
BBX 59 79 1 -2
BITMAP
000000000000FFE0
000000000001FFE0
000000000003FFE0
000000000007FFC0
000000000007FF80
00000000000FFF00
00000000001FFE00
00000000003FFC00
00000000007FF000
00000000007FE000
0000000000FFC000
0000000000FF8000
0000000001FF0000
00000000003E0000
0000000000000000
0000000000000000
0000000000000000
00000000007C0000
0000000007FC0000
0000000007FC0000
000000000FFE0000
000000001FFE0000
000000001FFE0000
000000003FFE0000
000000003FFE0000
000000007FFE0000
000000007FFE0000
00000000FFFE0000
00000001FFFE0000
00000001FFFE0000
00000003FFFE0000
00000003FFFE0000
00000007FFFE0000
0000000FFFFE0000
0000000FFFFE0000
0000001FFFFE0000
0000001FFFFE0000
0000003FFFFE0000
0000007FFFFF0000
0000007FFFFF0000
000000FFFFFF0000
000000FFFFFF0000
000001FFFFFF0000
000003FFFFFF0000
000003FFFFFF0000
000007FFFFFF0000
00000FFFFFFF0000
00000FFFFFFF0000
00001FFFFFFF0000
00003FF0FFFF0000
00003FF0FFFF8000
00007FE0FFFF8000
0000FFC0FFFF8000
0000FF807FFF8000
0001FF007FFF8000
0003FF007FFF8000
0003FE00FFFF8000
0007FC07FFFFC000
000FFFFFFFFFC000
000FFFFFFFFFC000
001FFFFFFFFFC000
001FFFFFFFFFC000
003FFFFFFFFFC000
007FFFFFFFFFE000
007FFFFDFFFFE000
00FFFF81FFFFE000
01FFFE01FFFFE000
01FFF801FFFFE000
03FFF001FFFFF000
07FFF001FFFFF000
07FFE001FFFFF000
0FFFE001FFFFF000
1FFFC001FFFFF800
1FFFC001FFFFF800
3FFFC000FFFFF800
7FFFC000FFFFFC00
7FFFC000FFFFFC00
FFFF0000F8007000
FE00000000000000
ENDCHAR
STARTCHAR 00C2
ENCODING 194
SWIDTH 630 0
DWIDTH 56 0
BBX 56 79 1 -2
BITMAP
00000000000E00
00000000003F80
0000000000FFC0
0000000003FFE0
000000000FFFF0
000000001FFFF8
000000003FFFFC
00000000FFFFFE
00000001FFFFFE
00000003FFEFFF
00000007FF87FF
00000007FF03FF
00000003FC01FE
00000001F000FC
00000000000000
00000000000000
00000000000000
00000000007C00
0000000007FC00
0000000007FC00
000000000FFE00
000000001FFE00
000000001FFE00
000000003FFE00
000000003FFE00
000000007FFE00
000000007FFE00
00000000FFFE00
00000001FFFE00
00000001FFFE00
00000003FFFE00
00000003FFFE00
00000007FFFE00
0000000FFFFE00
0000000FFFFE00
0000001FFFFE00
0000001FFFFE00
0000003FFFFE00
0000007FFFFF00
0000007FFFFF00
000000FFFFFF00
000000FFFFFF00
000001FFFFFF00
000003FFFFFF00
000003FFFFFF00
000007FFFFFF00
00000FFFFFFF00
00000FFFFFFF00
00001FFFFFFF00
00003FF0FFFF00
00003FF0FFFF80
00007FE0FFFF80
0000FFC0FFFF80
0000FF807FFF80
0001FF007FFF80
0003FF007FFF80
0003FE00FFFF80
0007FC07FFFFC0
000FFFFFFFFFC0
000FFFFFFFFFC0
001FFFFFFFFFC0
001FFFFFFFFFC0
003FFFFFFFFFC0
007FFFFFFFFFE0
007FFFFDFFFFE0
00FFFF81FFFFE0
01FFFE01FFFFE0
01FFF801FFFFE0
03FFF001FFFFF0
07FFF001FFFFF0
07FFE001FFFFF0
0FFFE001FFFFF0
1FFFC001FFFFF8
1FFFC001FFFFF8
3FFFC000FFFFF8
7FFFC000FFFFFC
7FFFC000FFFFFC
FFFF0000F80070
FE000000000000
ENDCHAR
STARTCHAR 00C3
ENCODING 195
SWIDTH 630 0
DWIDTH 56 0
BBX 58 78 1 -2
BITMAP
0000000007C07FC0
000000001FE07FC0
000000003FF07FC0
000000007FFCFFC0
00000000FFFFFF80
00000000FFFFFF80
00000001FFFFFF80
00000001FFFFFF00
00000001FFFFFE00
00000001FFFFFC00
00000003FCFFF800
00000003F83FF000
00000003F81FC000
0000000000000000
0000000000000000
0000000000000000
00000000007C0000
0000000007FC0000
0000000007FC0000
000000000FFE0000
000000001FFE0000
000000001FFE0000
000000003FFE0000
000000003FFE0000
000000007FFE0000
000000007FFE0000
00000000FFFE0000
00000001FFFE0000
00000001FFFE0000
00000003FFFE0000
00000003FFFE0000
00000007FFFE0000
0000000FFFFE0000
0000000FFFFE0000
0000001FFFFE0000
0000001FFFFE0000
0000003FFFFE0000
0000007FFFFF0000
0000007FFFFF0000
000000FFFFFF0000
000000FFFFFF0000
000001FFFFFF0000
000003FFFFFF0000
000003FFFFFF0000
000007FFFFFF0000
00000FFFFFFF0000
00000FFFFFFF0000
00001FFFFFFF0000
00003FF0FFFF0000
00003FF0FFFF8000
00007FE0FFFF8000
0000FFC0FFFF8000
0000FF807FFF8000
0001FF007FFF8000
0003FF007FFF8000
0003FE00FFFF8000
0007FC07FFFFC000
000FFFFFFFFFC000
000FFFFFFFFFC000
001FFFFFFFFFC000
001FFFFFFFFFC000
003FFFFFFFFFC000
007FFFFFFFFFE000
007FFFFDFFFFE000
00FFFF81FFFFE000
01FFFE01FFFFE000
01FFF801FFFFE000
03FFF001FFFFF000
07FFF001FFFFF000
07FFE001FFFFF000
0FFFE001FFFFF000
1FFFC001FFFFF800
1FFFC001FFFFF800
3FFFC000FFFFF800
7FFFC000FFFFFC00
7FFFC000FFFFFC00
FFFF0000F8007000
FE00000000000000
ENDCHAR
STARTCHAR 00C4
ENCODING 196
SWIDTH 630 0
DWIDTH 56 0
BBX 56 74 1 -2
BITMAP
000000001E007C
000000003F80FF
000000007F81FF
00000000FF81FF
00000001FF83FF
00000001FF83FE
00000001FF03FE
00000001FF03FC
00000000FE00F8
00000000380000
00000000000000
00000000000000
00000000007C00
0000000007FC00
0000000007FC00
000000000FFE00
000000001FFE00
000000001FFE00
000000003FFE00
000000003FFE00
000000007FFE00
000000007FFE00
00000000FFFE00
00000001FFFE00
00000001FFFE00
00000003FFFE00
00000003FFFE00
00000007FFFE00
0000000FFFFE00
0000000FFFFE00
0000001FFFFE00
0000001FFFFE00
0000003FFFFE00
0000007FFFFF00
0000007FFFFF00
000000FFFFFF00
000000FFFFFF00
000001FFFFFF00
000003FFFFFF00
000003FFFFFF00
000007FFFFFF00
00000FFFFFFF00
00000FFFFFFF00
00001FFFFFFF00
00003FF0FFFF00
00003FF0FFFF80
00007FE0FFFF80
0000FFC0FFFF80
0000FF807FFF80
0001FF007FFF80
0003FF007FFF80
0003FE00FFFF80
0007FC07FFFFC0
000FFFFFFFFFC0
000FFFFFFFFFC0
001FFFFFFFFFC0
001FFFFFFFFFC0
003FFFFFFFFFC0
007FFFFFFFFFE0
007FFFFDFFFFE0
00FFFF81FFFFE0
01FFFE01FFFFE0
01FFF801FFFFE0
03FFF001FFFFF0
07FFF001FFFFF0
07FFE001FFFFF0
0FFFE001FFFFF0
1FFFC001FFFFF8
1FFFC001FFFFF8
3FFFC000FFFFF8
7FFFC000FFFFFC
7FFFC000FFFFFC
FFFF0000F80070
FE000000000000
ENDCHAR
STARTCHAR 00C5
ENCODING 197
SWIDTH 630 0
DWIDTH 56 0
BBX 56 79 1 -2
BITMAP
00000000003F00
0000000003FFC0
000000000FFFF0
000000003FFFF8
000000007FFFFC
00000000FFFFFE
00000001FFC7FE
00000001FF03FF
00000003FE03FE
00000003FC01FF
00000007FC01FF
00000007FC01FE
00000007FC03FE
00000007FC03FE
00000007FC03FC
00000007FC07FC
00000007FE1FF8
00000007FFFFF0
00000003FFFFE0
00000001FFFFC0
00000000FFFF00
000000007FFE00
000000003FFE00
000000003FFE00
000000003FFE00
000000007FFE00
000000007FFE00
00000000FFFE00
00000001FFFE00
00000001FFFE00
00000003FFFE00
00000003FFFE00
00000007FFFE00
0000000FFFFE00
0000000FFFFE00
0000001FFFFE00
0000001FFFFE00
0000003FFFFE00
0000007FFFFF00
0000007FFFFF00
000000FFFFFF00
000000FFFFFF00
000001FFFFFF00
000003FFFFFF00
000003FFFFFF00
000007FFFFFF00
00000FFFFFFF00
00000FFFFFFF00
00001FFFFFFF00
00003FF0FFFF00
00003FF0FFFF80
00007FE0FFFF80
0000FFC0FFFF80
0000FF807FFF80
0001FF007FFF80
0003FE007FFF80
0003FE00FFFF80
0007FC07FFFFC0
000FFFFFFFFFC0
000FFFFFFFFFC0
001FFFFFFFFFC0
001FFFFFFFFFC0
003FFFFFFFFFC0
007FFFFFFFFFE0
007FFFFDFFFFE0
00FFFF81FFFFE0
01FFFE01FFFFE0
01FFF801FFFFE0
03FFF001FFFFF0
07FFF001FFFFF0
07FFE001FFFFF0
0FFFE001FFFFF0
1FFFC001FFFFF8
1FFFC001FFFFF8
3FFFC000FFFFF8
7FFFC000FFFFFC
7FFFC000FFFFFC
FFFF0000F80070
FE000000000000
ENDCHAR
STARTCHAR 00C6
ENCODING 198
SWIDTH 731 0
DWIDTH 65 0
BBX 67 64 1 -2
BITMAP
000000000000380000
00000000000FFFFE00
0000000001FFFFFFC0
0000000007FFFFFFE0
000000000FFFFFFFE0
000000000FFFFFFFC0
000000001FFFFFFFC0
000000001FFFFFFF80
000000003FFFFFFF80
000000007FFFFFFF00
000000007FFFFFFF00
00000000FFFFFFFE00
00000000FFFFFFFE00
00000001FFFFFFFC00
00000001FFFFFFFC00
00000003FFFFFFFC00
00000007FFFFFFFC00
00000007FFFFFFFC00
0000000FFFFFFFF800
0000000FFFFFF00000
0000001FFFFFC00000
0000003FFFFF800000
0000003FFFFF800000
0000007FFFFF800000
0000007FFFFF800000
000000FFFFFF806000
000001FFFFFF8FF000
000001FFFFFFFFE000
000003FFFFFFFFE000
000007FFFFFFFFC000
000007FFFFFFFFC000
00000FFFFFFFFFC000
00001FFFFFFFFFC000
00001FF9FFFFFFE000
00003FF0FFFFFFE000
00007FE0FFFFE00000
00007FC0FFFF000000
0000FFC07FFF000000
0000FF807FFF800300
0001FF007FFF820F00
0003FE007FFFFFFF00
0003FC00FFFFFFFF80
0007FC0FFFFFFFFF80
000FFFFFFFFFFFFF80
000FFFFFFFFFFFFF80
001FFFFFFFFFFFFF80
003FFFFFFFFFFFFF80
003FFFFFFFFFFFFF80
007FFFFFFFFFFFFF80
00FFFFF1FFFFFFFF80
00FFFF01FFFFFFFF80
01FFFC01FFFFFFFF80
03FFF801FFFFFFFF80
03FFF001FFFFFFFF80
07FFF001FFFFFFFF80
0FFFE001FFFFFFFF80
0FFFE001FFFFFFFC00
1FFFC001FFFFFFC000
3FFFC001FFFFFC0000
3FFFC000FFFFC00000
7FFFC000FFF8000000
7FFFC000FF00000000
FFF000006000000000
E00000000000000000
ENDCHAR
STARTCHAR 00C7
ENCODING 199
SWIDTH 483 0
DWIDTH 43 0
BBX 48 76 6 -15
BITMAP
00000000C000
0000000FFE00
0000007FFFC0
000003FFFFE0
00001FFFFFF8
00007FFFFFFC
0001FFFFFFFE
0003FFFFFFFE
0007FFFFFFFF
001FFFFFFFFE
003FFFFFFFFE
003FFFFFFFFE
007FFFFFFFFC
00FFFFFFFFFC
00FFFFFFFFFC
01FFFFFFFFF8
03FFFFFFFFF8
03FFFFFFE330
07FFFFFC0000
07FFFFE00000
0FFFFF800000
0FFFFF000000
0FFFFE000000
0FFFFC000000
0FFFF8000000
1FFFF8000000
1FFFF8000000
1FFFF0000000
3FFFF0000000
3FFFF0000000
3FFFF0000000
3FFFF0000000
3FFFF8000000
7FFFFC000100
7FFFFE007F80
7FFFFF7FFF80
7FFFFFFFFF80
7FFFFFFFFF80
7FFFFFFFFF00
7FFFFFFFFF00
7FFFFFFFFF00
7FFFFFFFFF00
7FFFFFFFFE00
7FFFFFFFFE00
7FFFFFFFFE00
7FFFFFFFFE00
3FFFFFFFFC00
3FFFFFFFFC00
3FFFFFFFFC00
3FFFFFFFFC00
1FFFFFFFF800
1FFFFFFFF000
1FFFFFFFE000
0FFFFFFF8000
0FFFFFFF8000
0FFFFFFF0000
07FFFFFC0000
007FFFF80000
003FFFC00000
007FFE000000
007FE0000000
007FF0000000
007FF0000000
003FF8000000
003FFC000000
000FFF000000
0007FF000000
0003FF800000
3801FF800000
7FC3FF800000
FFFFFF800000
FFFFFF000000
FFFFFF000000
7FFFFE000000
1FFFF8000000
03FF80000000
ENDCHAR
STARTCHAR 00C8
ENCODING 200
SWIDTH 495 0
DWIDTH 44 0
BBX 35 77 11 0
BITMAP
007FC00000
01FFE00000
03FFF00000
01FFF00000
00FFF80000
007FF80000
007FFC0000
003FFC0000
001FFE0000
000FFE0000
0007FE0000
0003FE0000
0003F00000
0000000000
0000000000
0007FFE000
003FFFFF80
01FFFFFFE0
0FFFFFFFE0
1FFFFFFFE0
3FFFFFFFC0
3FFFFFFFC0
1FFFFFFF80
1FFFFFFF80
1FFFFFFF00
1FFFFFFF00
1FFFFFFF00
1FFFFFFE00
1FFFFFFE00
1FFFFFFC00
1FFFFFFE00
1FFFFFFE00
1FFFFFFC00
1FFFFFF800
1FFFE00000
1FFFC00000
1FFF800000
1FFF800000
1FFFC00000
1FFFC00000
1FFFC1F000
1FFFFFF000
1FFFFFE000
1FFFFFE000
1FFFFFE000
1FFFFFE000
3FFFFFE000
3FFFFFE000
3FFFFFE000
3FFFFEE000
3FFF800000
3FFF800000
3FFF800000
3FFF800300
3FFFFFFF80
3FFFFFFF80
3FFFFFFF80
7FFFFFFF80
3FFFFFFF80
3FFFFFFF80
3FFFFFFF80
3FFFFFFF80
7FFFFFFF80
7FFFFFFF80
7FFFFFFF80
7FFFFFFF80
7FFFFFFF80
7FFFFFFF80
7FFFFFFF80
FFFFFFFF80
FFFFFFFF00
FFFFFFF800
FFFFFF0000
FFFFF00000
FFFF000000
7FE0000000
7000000000
ENDCHAR
STARTCHAR 00C9
ENCODING 201
SWIDTH 495 0
DWIDTH 44 0
BBX 35 79 11 0
BITMAP
0000000F80
000003FF80
000007FF80
00000FFF00
00000FFE00
00001FFC00
00003FF800
00003FF000
00007FE000
0000FFE000
0000FFC000
0001FF8000
0001FF0000
0003FE0000
0003FC0000
0000000000
0000000000
0007FFE000
003FFFFF80
01FFFFFFE0
0FFFFFFFE0
1FFFFFFFE0
3FFFFFFFC0
3FFFFFFFC0
1FFFFFFF80
1FFFFFFF80
1FFFFFFF00
1FFFFFFF00
1FFFFFFF00
1FFFFFFE00
1FFFFFFE00
1FFFFFFC00
1FFFFFFE00
1FFFFFFE00
1FFFFFFC00
1FFFFFF800
1FFFE00000
1FFFC00000
1FFF800000
1FFF800000
1FFFC00000
1FFFC00000
1FFFC1F000
1FFFFFF000
1FFFFFE000
1FFFFFE000
1FFFFFE000
1FFFFFE000
3FFFFFE000
3FFFFFE000
3FFFFFE000
3FFFFEE000
3FFF800000
3FFF800000
3FFF800000
3FFF800300
3FFFFFFF80
3FFFFFFF80
3FFFFFFF80
7FFFFFFF80
3FFFFFFF80
3FFFFFFF80
3FFFFFFF80
3FFFFFFF80
7FFFFFFF80
7FFFFFFF80
7FFFFFFF80
7FFFFFFF80
7FFFFFFF80
7FFFFFFF80
7FFFFFFF80
FFFFFFFF80
FFFFFFFF00
FFFFFFF800
FFFFFF0000
FFFFF00000
FFFF000000
7FE0000000
7000000000
ENDCHAR
STARTCHAR 00CA
ENCODING 202
SWIDTH 495 0
DWIDTH 44 0
BBX 35 78 11 0
BITMAP
00003C0000
0000FF0000
0001FF8000
0007FFC000
000FFFF000
001FFFF800
007FFFFC00
00FFFFFE00
01FFFFFF00
03FFCFFF00
07FF87FE00
07FE03FE00
0FFC01F000
07F8000000
03C0000000
0000000000
0007FFE000
003FFFFF80
01FFFFFFE0
0FFFFFFFE0
1FFFFFFFE0
3FFFFFFFC0
3FFFFFFFC0
1FFFFFFF80
1FFFFFFF80
1FFFFFFF00
1FFFFFFF00
1FFFFFFF00
1FFFFFFE00
1FFFFFFE00
1FFFFFFC00
1FFFFFFE00
1FFFFFFE00
1FFFFFFC00
1FFFFFF800
1FFFE00000
1FFFC00000
1FFF800000
1FFF800000
1FFFC00000
1FFFC00000
1FFFC1F000
1FFFFFF000
1FFFFFE000
1FFFFFE000
1FFFFFE000
1FFFFFE000
3FFFFFE000
3FFFFFE000
3FFFFFE000
3FFFFEE000
3FFF800000
3FFF800000
3FFF800000
3FFF800300
3FFFFFFF80
3FFFFFFF80
3FFFFFFF80
7FFFFFFF80
3FFFFFFF80
3FFFFFFF80
3FFFFFFF80
3FFFFFFF80
7FFFFFFF80
7FFFFFFF80
7FFFFFFF80
7FFFFFFF80
7FFFFFFF80
7FFFFFFF80
7FFFFFFF80
FFFFFFFF80
FFFFFFFF00
FFFFFFF800
FFFFFF0000
FFFFF00000
FFFF000000
7FE0000000
7000000000
ENDCHAR
STARTCHAR 00CB
ENCODING 203
SWIDTH 495 0
DWIDTH 44 0
BBX 35 74 11 0
BITMAP
000000F000
000001FC00
007803FE00
00FE07FE00
01FE07FC00
03FE07FC00
03FE07F800
07FE07F800
07FE07F000
07FC00C000
03F8000000
00E0000000
0007FFE000
003FFFFF80
01FFFFFFE0
0FFFFFFFE0
1FFFFFFFE0
3FFFFFFFC0
3FFFFFFFC0
1FFFFFFF80
1FFFFFFF80
1FFFFFFF00
1FFFFFFF00
1FFFFFFF00
1FFFFFFE00
1FFFFFFE00
1FFFFFFC00
1FFFFFFE00
1FFFFFFE00
1FFFFFFC00
1FFFFFF800
1FFFE00000
1FFFC00000
1FFF800000
1FFF800000
1FFFC00000
1FFFC00000
1FFFC1F000
1FFFFFF000
1FFFFFE000
1FFFFFE000
1FFFFFE000
1FFFFFE000
3FFFFFE000
3FFFFFE000
3FFFFFE000
3FFFFEE000
3FFF800000
3FFF800000
3FFF800000
3FFF800300
3FFFFFFF80
3FFFFFFF80
3FFFFFFF80
7FFFFFFF80
3FFFFFFF80
3FFFFFFF80
3FFFFFFF80
3FFFFFFF80
7FFFFFFF80
7FFFFFFF80
7FFFFFFF80
7FFFFFFF80
7FFFFFFF80
7FFFFFFF80
7FFFFFFF80
FFFFFFFF80
FFFFFFFF00
FFFFFFF800
FFFFFF0000
FFFFF00000
FFFF000000
7FE0000000
7000000000
ENDCHAR
STARTCHAR 00CC
ENCODING 204
SWIDTH 326 0
DWIDTH 29 0
BBX 39 77 2 0
BITMAP
000007FF00
00000FFF00
00000FFF00
00000FFF80
000007FF80
000003FFC0
000003FFC0
000001FFC0
000000FFE0
0000007FE0
0000007FE0
0000003FE0
0000003FE0
0000001F80
0000000000
0000000000
0000000000
000007FFC0
00001FFFFE
00003FFFFE
00003FFFFC
00003FFFF8
00003FFFF8
00003FFFF0
00003FFFF0
00007FFFF0
00007FFFE0
0000FFFFE0
0000FFFFE0
0000FFFFC0
0001FFFFC0
0001FFFFC0
0001FFFF80
0003FFFF80
0003FFFF80
0003FFFF00
0007FFFF00
0007FFFF00
0007FFFF00
000FFFFE00
000FFFFE00
000FFFFE00
001FFFFC00
001FFFFC00
001FFFFC00
001FFFFC00
003FFFF800
003FFFF800
003FFFF800
007FFFF800
007FFFF000
007FFFF000
007FFFF000
00FFFFF000
00FFFFF000
00FFFFE000
00FFFFE000
01FFFFE000
01FFFFE000
01FFFFE000
01FFFFE000
03FFFFC000
03FFFFC000
03FFFFC000
03FFFFC000
07FFFFC000
07FFFF0000
07FFFF0000
0FFFFE0000
0FFFFE0000
0FFFFE0000
1FFFFE0000
1FFFFE0000
3FFFF80000
7FFFE00000
FFF8000000
FC00000000
ENDCHAR
STARTCHAR 00CD
ENCODING 205
SWIDTH 326 0
DWIDTH 29 0
BBX 46 77 2 0
BITMAP
000000001FFC
000000003FFC
000000003FFC
000000007FF8
00000000FFF0
00000001FFE0
00000003FFC0
00000003FF80
00000007FF00
0000000FFE00
0000001FF800
0000001FF000
0000003FF000
00000007E000
000000000000
000000000000
000000000000
000007FFC000
00001FFFFE00
00003FFFFE00
00003FFFFC00
00003FFFF800
00003FFFF800
00003FFFF000
00003FFFF000
00007FFFF000
00007FFFE000
0000FFFFE000
0000FFFFE000
0000FFFFC000
0001FFFFC000
0001FFFFC000
0001FFFF8000
0003FFFF8000
0003FFFF8000
0003FFFF0000
0007FFFF0000
0007FFFF0000
0007FFFF0000
000FFFFE0000
000FFFFE0000
000FFFFE0000
001FFFFC0000
001FFFFC0000
001FFFFC0000
001FFFFC0000
003FFFF80000
003FFFF80000
003FFFF80000
007FFFF80000
007FFFF00000
007FFFF00000
007FFFF00000
00FFFFF00000
00FFFFF00000
00FFFFE00000
00FFFFE00000
01FFFFE00000
01FFFFE00000
01FFFFE00000
01FFFFE00000
03FFFFC00000
03FFFFC00000
03FFFFC00000
03FFFFC00000
07FFFFC00000
07FFFF000000
07FFFF000000
0FFFFE000000
0FFFFE000000
0FFFFE000000
1FFFFE000000
1FFFFE000000
3FFFF8000000
7FFFE0000000
FFF800000000
FC0000000000
ENDCHAR
STARTCHAR 00CE
ENCODING 206
SWIDTH 326 0
DWIDTH 29 0
BBX 44 77 2 0
BITMAP
00000000F000
00000003F800
0000000FFC00
0000003FFE00
000000FFFF00
000001FFFF80
000003FFFFC0
000007FFFFE0
00001FFFFFE0
00003FFEFFF0
00007FFC7FF0
00007FF03FF0
00003FE01FE0
00001E000FC0
000000000000
000000000000
000000000000
000007FFC000
00001FFFFE00
00003FFFFE00
00003FFFFC00
00003FFFF800
00003FFFF800
00003FFFF000
00003FFFF000
00007FFFF000
00007FFFE000
0000FFFFE000
0000FFFFE000
0000FFFFC000
0001FFFFC000
0001FFFFC000
0001FFFF8000
0003FFFF8000
0003FFFF8000
0003FFFF0000
0007FFFF0000
0007FFFF0000
0007FFFF0000
000FFFFE0000
000FFFFE0000
000FFFFE0000
001FFFFC0000
001FFFFC0000
001FFFFC0000
001FFFFC0000
003FFFF80000
003FFFF80000
003FFFF80000
007FFFF80000
007FFFF00000
007FFFF00000
007FFFF00000
00FFFFF00000
00FFFFF00000
00FFFFE00000
00FFFFE00000
01FFFFE00000
01FFFFE00000
01FFFFE00000
01FFFFE00000
03FFFFC00000
03FFFFC00000
03FFFFC00000
03FFFFC00000
07FFFFC00000
07FFFF000000
07FFFF000000
0FFFFE000000
0FFFFE000000
0FFFFE000000
1FFFFE000000
1FFFFE000000
3FFFF8000000
7FFFE0000000
FFF800000000
FC0000000000
ENDCHAR
STARTCHAR 00CF
ENCODING 207
SWIDTH 326 0
DWIDTH 29 0
BBX 44 72 2 0
BITMAP
000001C007C0
000007F00FE0
00000FF81FF0
00000FF83FF0
00001FF83FF0
00001FF03FE0
00001FF03FE0
00001FE03FC0
00000FE01F00
000003800000
000000000000
000000000000
000007FFC000
00001FFFFE00
00003FFFFE00
00003FFFFC00
00003FFFF800
00003FFFF800
00003FFFF000
00003FFFF000
00007FFFF000
00007FFFE000
0000FFFFE000
0000FFFFE000
0000FFFFC000
0001FFFFC000
0001FFFFC000
0001FFFF8000
0003FFFF8000
0003FFFF8000
0003FFFF0000
0007FFFF0000
0007FFFF0000
0007FFFF0000
000FFFFE0000
000FFFFE0000
000FFFFE0000
001FFFFC0000
001FFFFC0000
001FFFFC0000
001FFFFC0000
003FFFF80000
003FFFF80000
003FFFF80000
007FFFF80000
007FFFF00000
007FFFF00000
007FFFF00000
00FFFFF00000
00FFFFF00000
00FFFFE00000
00FFFFE00000
01FFFFE00000
01FFFFE00000
01FFFFE00000
01FFFFE00000
03FFFFC00000
03FFFFC00000
03FFFFC00000
03FFFFC00000
07FFFFC00000
07FFFF000000
07FFFF000000
0FFFFE000000
0FFFFE000000
0FFFFE000000
1FFFFE000000
1FFFFE000000
3FFFF8000000
7FFFE0000000
FFF800000000
FC0000000000
ENDCHAR
STARTCHAR 00D0
ENCODING 208
SWIDTH 483 0
DWIDTH 43 0
BBX 44 61 6 0
BITMAP
0000FE000000
0003FFF80000
000FFFFE0000
001FFFFFC000
003FFFFFF000
003FFFFFF800
003FFFFFFC00
003FFFFFFE00
007FFFFFFE00
007FFFFFFF00
007FFFFFFF80
007FFFFFFF80
007FFFFFFFC0
00FFFFFFFFC0
00FFFFFFFFE0
00FFFFFFFFE0
00FFFFFFFFE0
00FFFF87FFF0
00FFFF01FFF0
01FFFF00FFF0
01FFFFF87FF0
01FFFFF87FF0
01FFFFF87FF0
3FFFFFF87FF0
3FFFFFF0FFF0
3FFFFFF0FFF0
3FFFFFF0FFF0
7FFFFFF1FFF0
7FFFFFF1FFE0
7FFFFFF3FFE0
7FFFFFF7FFC0
7FFFFFC7FFC0
7FFFFC0FFF80
7FFFF81FFF00
FFFFF83FFF00
03FFF8FFFE00
03FFFFFFFC00
03FFFFFFFC00
03FFFFFFF800
03FFFFFFF000
03FFFFFFF000
03FFFFFFE000
03FFFFFFC000
03FFFFFF8000
03FFFFFF0000
03FFFFFF0000
03FFFFFE0000
03FFFFFC0000
03FFFFF80000
03FFFFF00000
03FFFFE00000
03FFFFC00000
03FFFF800000
03FFFE000000
03FFF8000000
03FFF0000000
03FFC0000000
03FE00000000
03F800000000
01E000000000
010000000000
ENDCHAR
STARTCHAR 00D1
ENCODING 209
SWIDTH 562 0
DWIDTH 50 0
BBX 59 75 2 1
BITMAP
000000001F01FF00
000000007F81FF00
00000000FFC1FF00
00000001FFE3FE00
00000003FFFFFE00
00000007FFFFFE00
00000007FFFFFE00
00000007FFFFFC00
0000000FFFFFF800
0000000FFFFFF000
0000000FE3FFE000
0000000FE1FF8000
0000001FE07F0000
0000000000000000
0000000000000000
0000000000000000
0000000000000000
000007FC0001FF00
00003FFFC007FFC0
00007FFFE03FFFC0
00007FFFE07FFFE0
0000FFFFE07FFFE0
0000FFFFC07FFFC0
0000FFFFC07FFFC0
0001FFFFC07FFFC0
0001FFFFC0FFFF80
0001FFFFC0FFFF80
0003FFFF80FFFF80
0003FFFF80FFFF00
0003FFFF81FFFF00
0007FFFF81FFFF00
0007FFFF81FFFE00
000FFFFF83FFFE00
000FFFFF83FFFE00
000FFFFFC3FFFC00
001FFFFFC3FFFC00
001FFFFFC3FFFC00
001FFFFFC7FFF800
003FFFFFC7FFF800
003FFFFFC7FFF800
003FFFFFC7FFF000
007FFFFFCFFFF000
007FFFFFCFFFF000
007FFFFFCFFFE000
00FFFFFFCFFFE000
00FFFFFFDFFFE000
00FFFFFFDFFFC000
00FFFFFFDFFFC000
01FFFFFFFFFFC000
01FFFFFFFFFFC000
01FFFF7FFFFF8000
03FFFF7FFFFF8000
03FFFF7FFFFF8000
03FFFE7FFFFF0000
03FFFE7FFFFF0000
07FFFE7FFFFF0000
07FFFE7FFFFF0000
07FFFC3FFFFE0000
07FFFC3FFFFE0000
0FFFFC3FFFFE0000
0FFFFC3FFFFE0000
0FFFF83FFFFC0000
1FFFF83FFFFC0000
1FFFF83FFFFC0000
1FFFF01FFFFC0000
1FFFF01FFFF80000
3FFFF01FFFF80000
3FFFF01FFFF80000
3FFFE01FFFF80000
7FFFE03FFFF00000
7FFFE03FFFF00000
7FFFE03FFFF00000
FFFFC03FFFE00000
FFFF003FFFC00000
FFE00000F0000000
ENDCHAR
STARTCHAR 00D2
ENCODING 210
SWIDTH 528 0
DWIDTH 47 0
BBX 46 78 7 -1
BITMAP
000FFE000000
001FFE000000
001FFE000000
000FFF000000
000FFF000000
0007FF800000
0003FF800000
0003FFC00000
0001FFC00000
0000FFC00000
0000FFC00000
00007FC00000
00007FE00000
00003F000000
000000000000
000007E00000
00000FF80000
00001FFE0000
00003FFF0000
00007FFFC000
0000FFFFE000
0001FFFFF800
0003FFFFFC00
0003FFFFFE00
0007FFFFFF00
000FFFFFFF80
000FFFFFFF80
001FFFFFFFC0
003FFFFFFFC0
003FFFFFFFE0
007FFFFFFFE0
00FFFFFFFFE0
00FFFFFFFFF0
01FFFFFFFFF0
03FFFFFFFFF0
03FFFFFFFFF8
07FFFFFFFFF8
07FFFFFFFFF8
0FFFFC1FFFF8
0FFFF807FFF8
1FFFF007FFFC
1FFFF007FFFC
3FFFE007FFFC
3FFFC007FFFC
7FFFC007FFFC
7FFFC007FFFC
7FFF8007FFFC
7FFF800FFFFC
7FFF800FFFF8
FFFF800FFFF8
FFFFC01FFFF8
FFFFC03FFFF8
FFFFE07FFFF8
FFFFF0FFFFF0
FFFFFFFFFFF0
FFFFFFFFFFE0
FFFFFFFFFFE0
FFFFFFFFFFE0
FFFFFFFFFFC0
FFFFFFFFFFC0
FFFFFFFFFF80
FFFFFFFFFF80
7FFFFFFFFF00
7FFFFFFFFF00
7FFFFFFFFE00
7FFFFFFFFE00
3FFFFFFFFC00
3FFFFFFFFC00
3FFFFFFFF800
1FFFFFFFF800
1FFFFFFFF000
0FFFFFFFE000
07FFFFFF8000
03FFFFFF0000
00FFFFFC0000
003FFFF00000
000FFFC00000
0000F8000000
ENDCHAR
STARTCHAR 00D3
ENCODING 211
SWIDTH 528 0
DWIDTH 47 0
BBX 46 78 7 -1
BITMAP
00000003FF80
00000007FF80
0000000FFF80
0000001FFF00
0000001FFE00
0000003FFC00
0000007FF000
000000FFE000
000001FFC000
000001FF8000
000003FF0000
000003FE0000
000007FC0000
000001F80000
000000000000
000007E00000
00000FF80000
00001FFE0000
00003FFF0000
00007FFFC000
0000FFFFE000
0001FFFFF800
0003FFFFFC00
0003FFFFFE00
0007FFFFFF00
000FFFFFFF80
000FFFFFFF80
001FFFFFFFC0
003FFFFFFFC0
003FFFFFFFE0
007FFFFFFFE0
00FFFFFFFFE0
00FFFFFFFFF0
01FFFFFFFFF0
03FFFFFFFFF0
03FFFFFFFFF8
07FFFFFFFFF8
07FFFFFFFFF8
0FFFFC1FFFF8
0FFFF807FFF8
1FFFF007FFFC
1FFFF007FFFC
3FFFE007FFFC
3FFFC007FFFC
7FFFC007FFFC
7FFFC007FFFC
7FFF8007FFFC
7FFF800FFFFC
7FFF800FFFF8
FFFF800FFFF8
FFFFC01FFFF8
FFFFC03FFFF8
FFFFE07FFFF8
FFFFF0FFFFF0
FFFFFFFFFFF0
FFFFFFFFFFE0
FFFFFFFFFFE0
FFFFFFFFFFE0
FFFFFFFFFFC0
FFFFFFFFFFC0
FFFFFFFFFF80
FFFFFFFFFF80
7FFFFFFFFF00
7FFFFFFFFF00
7FFFFFFFFE00
7FFFFFFFFE00
3FFFFFFFFC00
3FFFFFFFFC00
3FFFFFFFF800
1FFFFFFFF800
1FFFFFFFF000
0FFFFFFFE000
07FFFFFF8000
03FFFFFF0000
00FFFFFC0000
003FFFF00000
000FFFC00000
0000F8000000
ENDCHAR
STARTCHAR 00D4
ENCODING 212
SWIDTH 528 0
DWIDTH 47 0
BBX 46 78 7 -1
BITMAP
000000F80000
000003FC0000
000007FF0000
00001FFF8000
00003FFFC000
0000FFFFE000
0001FFFFF000
0003FFFFF800
000FFFFFF800
001FFE7FFC00
001FFC1FFC00
001FF01FFC00
000FE007F000
000080000000
000000000000
000007E00000
00000FF80000
00001FFE0000
00003FFF0000
00007FFFC000
0000FFFFE000
0001FFFFF800
0003FFFFFC00
0003FFFFFE00
0007FFFFFF00
000FFFFFFF80
000FFFFFFF80
001FFFFFFFC0
003FFFFFFFC0
003FFFFFFFE0
007FFFFFFFE0
00FFFFFFFFE0
00FFFFFFFFF0
01FFFFFFFFF0
03FFFFFFFFF0
03FFFFFFFFF8
07FFFFFFFFF8
07FFFFFFFFF8
0FFFFC1FFFF8
0FFFF807FFF8
1FFFF007FFFC
1FFFF007FFFC
3FFFE007FFFC
3FFFC007FFFC
7FFFC007FFFC
7FFFC007FFFC
7FFF8007FFFC
7FFF800FFFFC
7FFF800FFFF8
FFFF800FFFF8
FFFFC01FFFF8
FFFFC03FFFF8
FFFFE07FFFF8
FFFFF0FFFFF0
FFFFFFFFFFF0
FFFFFFFFFFE0
FFFFFFFFFFE0
FFFFFFFFFFE0
FFFFFFFFFFC0
FFFFFFFFFFC0
FFFFFFFFFF80
FFFFFFFFFF80
7FFFFFFFFF00
7FFFFFFFFF00
7FFFFFFFFE00
7FFFFFFFFE00
3FFFFFFFFC00
3FFFFFFFFC00
3FFFFFFFF800
1FFFFFFFF800
1FFFFFFFF000
0FFFFFFFE000
07FFFFFF8000
03FFFFFF0000
00FFFFFC0000
003FFFF00000
000FFFC00000
0000F8000000
ENDCHAR
STARTCHAR 00D5
ENCODING 213
SWIDTH 528 0
DWIDTH 47 0
BBX 46 78 7 -1
BITMAP
00000003FC00
00001C07FC00
0000FE07FC00
0001FF87FC00
0003FFFFFC00
0007FFFFFC00
000FFFFFF800
000FFFFFF800
000FFFFFF000
001FFFFFE000
001FFFFFC000
001FE7FF8000
001FC1FE0000
001FC0000000
001E00000000
000007E00000
00000FF80000
00001FFE0000
00003FFF0000
00007FFFC000
0000FFFFE000
0001FFFFF800
0003FFFFFC00
0003FFFFFE00
0007FFFFFF00
000FFFFFFF80
000FFFFFFF80
001FFFFFFFC0
003FFFFFFFC0
003FFFFFFFE0
007FFFFFFFE0
00FFFFFFFFE0
00FFFFFFFFF0
01FFFFFFFFF0
03FFFFFFFFF0
03FFFFFFFFF8
07FFFFFFFFF8
07FFFFFFFFF8
0FFFFC1FFFF8
0FFFF807FFF8
1FFFF007FFFC
1FFFF007FFFC
3FFFE007FFFC
3FFFC007FFFC
7FFFC007FFFC
7FFFC007FFFC
7FFF8007FFFC
7FFF800FFFFC
7FFF800FFFF8
FFFF800FFFF8
FFFFC01FFFF8
FFFFC03FFFF8
FFFFE07FFFF8
FFFFF0FFFFF0
FFFFFFFFFFF0
FFFFFFFFFFE0
FFFFFFFFFFE0
FFFFFFFFFFE0
FFFFFFFFFFC0
FFFFFFFFFFC0
FFFFFFFFFF80
FFFFFFFFFF80
7FFFFFFFFF00
7FFFFFFFFF00
7FFFFFFFFE00
7FFFFFFFFE00
3FFFFFFFFC00
3FFFFFFFFC00
3FFFFFFFF800
1FFFFFFFF800
1FFFFFFFF000
0FFFFFFFE000
07FFFFFF8000
03FFFFFF0000
00FFFFFC0000
003FFFF00000
000FFFC00000
0000F8000000
ENDCHAR
STARTCHAR 00D6
ENCODING 214
SWIDTH 528 0
DWIDTH 47 0
BBX 46 73 7 -1
BITMAP
0000E003E000
0001F807F000
0003FC0FF800
0007FC0FF800
000FFC1FF800
000FFC1FF000
000FF81FF000
000FF81FE000
0007F00FC000
0001C0000000
000007E00000
00000FF80000
00001FFE0000
00003FFF0000
00007FFFC000
0000FFFFE000
0001FFFFF800
0003FFFFFC00
0003FFFFFE00
0007FFFFFF00
000FFFFFFF80
000FFFFFFF80
001FFFFFFFC0
003FFFFFFFC0
003FFFFFFFE0
007FFFFFFFE0
00FFFFFFFFE0
00FFFFFFFFF0
01FFFFFFFFF0
03FFFFFFFFF0
03FFFFFFFFF8
07FFFFFFFFF8
07FFFFFFFFF8
0FFFFC1FFFF8
0FFFF807FFF8
1FFFF007FFFC
1FFFF007FFFC
3FFFE007FFFC
3FFFC007FFFC
7FFFC007FFFC
7FFFC007FFFC
7FFF8007FFFC
7FFF800FFFFC
7FFF800FFFF8
FFFF800FFFF8
FFFFC01FFFF8
FFFFC03FFFF8
FFFFE07FFFF8
FFFFF0FFFFF0
FFFFFFFFFFF0
FFFFFFFFFFE0
FFFFFFFFFFE0
FFFFFFFFFFE0
FFFFFFFFFFC0
FFFFFFFFFFC0
FFFFFFFFFF80
FFFFFFFFFF80
7FFFFFFFFF00
7FFFFFFFFF00
7FFFFFFFFE00
7FFFFFFFFE00
3FFFFFFFFC00
3FFFFFFFFC00
3FFFFFFFF800
1FFFFFFFF800
1FFFFFFFF000
0FFFFFFFE000
07FFFFFF8000
03FFFFFF0000
00FFFFFC0000
003FFFF00000
000FFFC00000
0000F8000000
ENDCHAR
STARTCHAR 00D7
ENCODING 215
SWIDTH 427 0
DWIDTH 38 0
BBX 40 36 6 13
BITMAP
00060000E0
000F0001E0
001FC007F0
007FC00FF8
00FFE01FF8
01FFE03FFC
03FFF07FFE
0FFFF8FFFF
0FFFFFFFFF
07FFFFFFFE
07FFFFFFF8
03FFFFFFF0
01FFFFFFE0
01FFFFFFC0
00FFFFFF80
007FFFFF00
003FFFFE00
001FFFF800
003FFFF800
007FFFFC00
00FFFFFC00
01FFFFFE00
03FFFFFF00
07FFFFFF80
1FFFFFFFC0
3FFFFFFFE0
7FFFFFFFE0
FFFF9FFFF0
FFFF1FFFE0
7FFE0FFFC0
3FFC07FF00
1FF003FE00
0FE001FC00
07C000F800
078000E000
0200000000
ENDCHAR
STARTCHAR 00D8
ENCODING 216
SWIDTH 528 0
DWIDTH 47 0
BBX 61 64 0 -1
BITMAP
000000000000F038
0000000FC001FFF8
0000001FF003FFF8
0000003FFC07FFF0
0000007FFE07FFE0
000000FFFF8FFFC0
000001FFFFDFFFC0
000003FFFFFFFF80
000007FFFFFFFF00
000007FFFFFFFE00
00000FFFFFFFFC00
00001FFFFFFFFC00
00001FFFFFFFF800
00003FFFFFFFF000
00007FFFFFFFE000
00007FFFFFFFC000
0000FFFFFFFFC000
0001FFFFFFFFC000
0001FFFFFFFFE000
0003FFFFFFFFE000
0007FFFFFFFFE000
0007FFFFFFFFF000
000FFFFFFFFFF000
000FFFFFFFFFF000
001FFFE7FFFFF000
001FFF8FFFFFF000
003FFF1FFFFFF800
003FFE1FFFFFF800
007FFC3FFFFFF800
007FFC7FFFFFF800
00FFF8FFFBFFF800
00FFF8FFF3FFF800
00FFF1FFE3FFF800
00FFF3FFE3FFF800
00FFF7FFC7FFF000
01FFF7FF87FFF000
01FFFFFF0FFFF000
01FFFFFE0FFFF000
01FFFFFC1FFFF000
01FFFFFC3FFFE000
01FFFFF8FFFFE000
01FFFFF1FFFFC000
01FFFFFFFFFFC000
01FFFFFFFFFFC000
01FFFFFFFFFF8000
01FFFFFFFFFF8000
01FFFFFFFFFF0000
01FFFFFFFFFF0000
00FFFFFFFFFE0000
00FFFFFFFFFE0000
00FFFFFFFFFC0000
00FFFFFFFFFC0000
01FFFFFFFFF80000
01FFFFFFFFF80000
03FFFFFFFFF00000
07FFFFFFFFF00000
0FFFFFFFFFE00000
1FFFFFFFFFC00000
3FFFFFFFFF000000
7FFBFFFFFE000000
FFF1FFFFF8000000
FFE07FFFE0000000
C3C00FFF80000000
018001F000000000
ENDCHAR
STARTCHAR 00D9
ENCODING 217
SWIDTH 551 0
DWIDTH 49 0
BBX 52 75 7 2
BITMAP
000003FF800000
000003FFC00000
000007FFC00000
000003FFC00000
000001FFE00000
000001FFE00000
000000FFE00000
0000007FF00000
0000007FF00000
0000003FF00000
0000001FF80000
0000001FF80000
0000000FF80000
0000000FC00000
00000000000000
00000000000000
0007C000000000
0007FE0001FFE0
000FFFC003FFF0
000FFFC003FFF0
001FFF8007FFF0
001FFF8007FFF0
003FFF0003FFF0
003FFE0003FFE0
003FFE0003FFE0
007FFE0003FFE0
007FFE0007FFE0
00FFFC0007FFC0
00FFFC0007FFC0
01FFFC000FFFC0
01FFF8000FFFC0
03FFF8000FFF80
03FFF8001FFF80
03FFF0001FFF80
07FFF0001FFF80
07FFF0003FFF80
0FFFE0003FFF00
0FFFE0003FFF00
0FFFE0007FFF00
1FFFE0007FFF00
1FFFE0007FFF00
1FFFC000FFFF00
3FFFC000FFFF00
3FFFC001FFFE00
3FFFC001FFFE00
7FFFE001FFFE00
7FFFE003FFFE00
7FFFE003FFFE00
7FFFF007FFFC00
7FFFF807FFFC00
7FFFFC0FFFF800
FFFFFFFFFFF800
FFFFFFFFFFF000
FFFFFFFFFFF000
FFFFFFFFFFE000
FFFFFFFFFFC000
FFFFFFFFFFC000
FFFFFFFFFF8000
FFFFFFFFFF8000
FFFFFFFFFF0000
FFFFFFFFFF0000
FFFFFFFFFE0000
7FFFFFFFFE0000
7FFFFFFFFC0000
7FFFFFFFF80000
3FFFFFFFF00000
3FFFFFFFE00000
3FFFFFFFC00000
3FFFFFFF800000
1FFFFFFE000000
1FFFFFFC000000
0FFFFFF8000000
03FFFFF0000000
00FFFFE0000000
001FFFC0000000
ENDCHAR
STARTCHAR 00DA
ENCODING 218
SWIDTH 551 0
DWIDTH 49 0
BBX 52 75 7 2
BITMAP
0000000001FFC0
0000000001FFC0
0000000003FFE0
0000000007FF80
000000000FFF00
000000001FFE00
000000003FFC00
000000003FF800
000000007FF000
00000000FFE000
00000000FFC000
00000001FF0000
00000003FF0000
000000007E0000
00000000000000
00000000000000
0007C000000000
0007FE0001FFE0
000FFFC003FFF0
000FFFC003FFF0
001FFF8007FFF0
001FFF8007FFF0
003FFF0003FFF0
003FFE0003FFE0
003FFE0003FFE0
007FFE0003FFE0
007FFE0007FFE0
00FFFC0007FFC0
00FFFC0007FFC0
01FFFC000FFFC0
01FFF8000FFFC0
03FFF8000FFF80
03FFF8001FFF80
03FFF0001FFF80
07FFF0001FFF80
07FFF0003FFF80
0FFFE0003FFF00
0FFFE0003FFF00
0FFFE0007FFF00
1FFFE0007FFF00
1FFFE0007FFF00
1FFFC000FFFF00
3FFFC000FFFF00
3FFFC001FFFE00
3FFFC001FFFE00
7FFFE001FFFE00
7FFFE003FFFE00
7FFFE003FFFE00
7FFFF007FFFC00
7FFFF807FFFC00
7FFFFC0FFFF800
FFFFFFFFFFF800
FFFFFFFFFFF000
FFFFFFFFFFF000
FFFFFFFFFFE000
FFFFFFFFFFC000
FFFFFFFFFFC000
FFFFFFFFFF8000
FFFFFFFFFF8000
FFFFFFFFFF0000
FFFFFFFFFF0000
FFFFFFFFFE0000
7FFFFFFFFE0000
7FFFFFFFFC0000
7FFFFFFFF80000
3FFFFFFFF00000
3FFFFFFFE00000
3FFFFFFFC00000
3FFFFFFF800000
1FFFFFFE000000
1FFFFFFC000000
0FFFFFF8000000
03FFFFF0000000
00FFFFE0000000
001FFFC0000000
ENDCHAR
STARTCHAR 00DB
ENCODING 219
SWIDTH 551 0
DWIDTH 49 0
BBX 52 75 7 2
BITMAP
000000000E0000
000000007F0000
00000001FF8000
00000003FFC000
0000000FFFE000
0000001FFFF000
0000007FFFF800
000000FFFFFC00
000001FFFFFE00
000003FFEFFF00
000007FF87FF00
000007FF03FF00
000007FC01FE00
000001E000FC00
00000000000000
00000000000000
0007C000000000
0007FE0001FFE0
000FFFC003FFF0
000FFFC003FFF0
001FFF8007FFF0
001FFF8007FFF0
003FFF0003FFF0
003FFE0003FFE0
003FFE0003FFE0
007FFE0003FFE0
007FFE0007FFE0
00FFFC0007FFC0
00FFFC0007FFC0
01FFFC000FFFC0
01FFF8000FFFC0
03FFF8000FFF80
03FFF8001FFF80
03FFF0001FFF80
07FFF0001FFF80
07FFF0003FFF80
0FFFE0003FFF00
0FFFE0003FFF00
0FFFE0007FFF00
1FFFE0007FFF00
1FFFE0007FFF00
1FFFC000FFFF00
3FFFC000FFFF00
3FFFC001FFFE00
3FFFC001FFFE00
7FFFE001FFFE00
7FFFE003FFFE00
7FFFE003FFFE00
7FFFF007FFFC00
7FFFF807FFFC00
7FFFFC0FFFF800
FFFFFFFFFFF800
FFFFFFFFFFF000
FFFFFFFFFFF000
FFFFFFFFFFE000
FFFFFFFFFFC000
FFFFFFFFFFC000
FFFFFFFFFF8000
FFFFFFFFFF8000
FFFFFFFFFF0000
FFFFFFFFFF0000
FFFFFFFFFE0000
7FFFFFFFFE0000
7FFFFFFFFC0000
7FFFFFFFF80000
3FFFFFFFF00000
3FFFFFFFE00000
3FFFFFFFC00000
3FFFFFFF800000
1FFFFFFE000000
1FFFFFFC000000
0FFFFFF8000000
03FFFFF0000000
00FFFFE0000000
001FFFC0000000
ENDCHAR
STARTCHAR 00DC
ENCODING 220
SWIDTH 551 0
DWIDTH 49 0
BBX 52 70 7 2
BITMAP
0000003E003800
000000FF01FC00
000001FF03FE00
000001FF03FE00
000001FF03FE00
000001FF03FE00
000001FF07FE00
000001FE03FC00
000000F803F800
0000000001E000
00000000000000
0007C000000000
0007FE0001FFE0
000FFFC003FFF0
000FFFC003FFF0
001FFF8007FFF0
001FFF8007FFF0
003FFF0003FFF0
003FFE0003FFE0
003FFE0003FFE0
007FFE0003FFE0
007FFE0007FFE0
00FFFC0007FFC0
00FFFC0007FFC0
01FFFC000FFFC0
01FFF8000FFFC0
03FFF8000FFF80
03FFF8001FFF80
03FFF0001FFF80
07FFF0001FFF80
07FFF0003FFF80
0FFFE0003FFF00
0FFFE0003FFF00
0FFFE0007FFF00
1FFFE0007FFF00
1FFFE0007FFF00
1FFFC000FFFF00
3FFFC000FFFF00
3FFFC001FFFE00
3FFFC001FFFE00
7FFFE001FFFE00
7FFFE003FFFE00
7FFFE003FFFE00
7FFFF007FFFC00
7FFFF807FFFC00
7FFFFC0FFFF800
FFFFFFFFFFF800
FFFFFFFFFFF000
FFFFFFFFFFF000
FFFFFFFFFFE000
FFFFFFFFFFC000
FFFFFFFFFFC000
FFFFFFFFFF8000
FFFFFFFFFF8000
FFFFFFFFFF0000
FFFFFFFFFF0000
FFFFFFFFFE0000
7FFFFFFFFE0000
7FFFFFFFFC0000
7FFFFFFFF80000
3FFFFFFFF00000
3FFFFFFFE00000
3FFFFFFFC00000
3FFFFFFF800000
1FFFFFFE000000
1FFFFFFC000000
0FFFFFF8000000
03FFFFF0000000
00FFFFE0000000
001FFFC0000000
ENDCHAR
STARTCHAR 00DD
ENCODING 221
SWIDTH 607 0
DWIDTH 54 0
BBX 53 77 13 0
BITMAP
000000003FF800
000000007FF800
00000000FFF800
00000001FFF000
00000001FFE000
00000003FFC000
00000007FF8000
0000000FFF0000
0000001FFC0000
0000001FF80000
0000003FF00000
0000003FE00000
0000007FC00000
0000000F800000
00000000000000
00000000000000
000000000038F8
0000000001FFF8
000C000007FFF0
003E000007FFE0
07FE000007FFC0
3FFF00000FFF80
FFFF00001FFF80
FFFF80003FFF80
FFFF80007FFF00
FFFF80007FFE00
FFFFC0007FFE00
7FFFC000FFFC00
7FFFC001FFF800
7FFFC003FFF800
7FFFE003FFF000
3FFFE007FFE000
3FFFE00FFFC000
1FFFE01FFFC000
1FFFF01FFF8000
1FFFF03FFF0000
1FFFF07FFF0000
0FFFF0FFFE0000
0FFFF0FFFC0000
0FFFF9FFFC0000
07FFFBFFF80000
07FFFBFFF00000
07FFFFFFF00000
07FFFFFFE00000
03FFFFFFC00000
03FFFFFFC00000
03FFFFFF800000
01FFFFFF000000
01FFFFFF000000
01FFFFFE000000
01FFFFFC000000
00FFFFFC000000
00FFFFF8000000
00FFFFF0000000
007FFFF0000000
007FFFE0000000
007FFFC0000000
003FFF80000000
003FFF80000000
003FFF80000000
001FFF80000000
001FFF00000000
001FFF00000000
003FFF00000000
003FFF00000000
003FFF00000000
003FFF00000000
007FFF00000000
007FFF00000000
007FFF00000000
007FFF00000000
007FFF00000000
007FFF00000000
00FFFE00000000
00FFFE00000000
00FFF800000000
007F0000000000
ENDCHAR
STARTCHAR 00DE
ENCODING 222
SWIDTH 506 0
DWIDTH 45 0
BBX 44 61 5 0
BITMAP
007FFF000000
007FFF000000
007FFF000000
007FFF000000
007FFF000000
00FFFF000000
00FFFF000000
00FFFF000000
00FFFFF00000
00FFFFFF0000
00FFFFFFF800
00FFFFFFFC00
01FFFFFFFF00
01FFFFFFFF00
01FFFFFFFF80
01FFFFFFFFC0
03FFFFFFFFC0
03FFFFFFFFC0
03FFFFFFFFE0
03FFFFFFFFE0
03FFFFFFFFE0
03FFF80FFFE0
03FFF801FFF0
03FFF801FFF0
07FFF800FFF0
07FFF800FFF0
07FFF800FFF0
07FFF000FFF0
07FFF000FFF0
07FFF001FFF0
0FFFF001FFF0
0FFFF003FFF0
0FFFF003FFE0
0FFFF007FFF0
0FFFF007FFE0
0FFFF00FFFE0
0FFFF01FFFE0
0FFFF03FFFE0
1FFFF0FFFFE0
1FFFFFFFFFE0
1FFFFFFFFFE0
1FFFFFFFFFC0
1FFFFFFFFF00
3FFFFFFFFE00
3FFFFFFFFC00
3FFFFFFFF800
3FFFFFFFE000
3FFFFFFFC000
7FFFFFFF0000
7FFFE0000000
7FFFE0000000
7FFFC0000000
7FFFE0000000
7FFFC0000000
7FFFC0000000
FFFFC0000000
FFFF80000000
FFFF80000000
FFFF80000000
FFFF80000000
7FFE00000000
ENDCHAR
STARTCHAR 00DF
ENCODING 223
SWIDTH 562 0
DWIDTH 50 0
BBX 48 68 5 -6
BITMAP
000003FC0000
00003FFFC000
00007FFFF000
0001FFFFFC00
0001FFFFFE00
0003FFFFFF00
000FFFFFFF00
003FFFFFFF00
003FFFFFFF00
007FFFFFFF00
00FFFFFFFF80
00FFFFFFFF80
01FFFFFFFF80
01FFFC1FFFC0
01FFF007FFC0
03FFF007FFC0
03FFE003FF80
03FFE003FF80
03FFE003FF80
03FFE007FF00
07FFC007FF00
07FFC00FFF00
07FFC00FFE00
07FFC01FFE00
07FFC03FFC00
07FFC07FF800
0FFFC0FFF000
0FFFC0FFE000
0FFFC1FFC000
0FFF81FFFC00
0FFF81FFFF80
0FFF81FFFFE0
0FFF81FFFFF0
0FFF81FFFFFC
1FFF83FFFFFC
1FFF83FFFFFE
1FFF83FFFFFE
1FFF01FFFFFE
1FFF001FFFFE
1FFF0003FFFF
1FFF0001FFFF
1FFF0000FFFF
3FFF0000FFFF
3FFF00007FFF
3FFE00007FFE
3FFE0000FFFE
3FFE0000FFFE
3FFE0001FFFE
3FFE0003FFFC
3FFE0007FFFC
7FFC001FFFFC
7FFC00FFFFF8
7FFC03FFFFF8
7FFC07FFFFF0
7FFC07FFFFE0
7FFC07FFFFE0
7FFC0FFFFFC0
7FF80FFFFE00
FFF80FFFFE00
FFF80FFFF800
FFF80FFFE000
FFF80FFF0000
FFF80F800000
FFF800000000
FFF000000000
FFE000000000
7FC000000000
070000000000
ENDCHAR
STARTCHAR 00E0
ENCODING 224
SWIDTH 630 0
DWIDTH 56 0
BBX 54 79 1 -2
BITMAP
00000001FFC000
00000003FFC000
00000003FFE000
00000001FFE000
00000001FFE000
00000000FFF000
000000007FF000
000000007FF800
000000003FF800
000000001FF800
000000001FF800
000000000FF800
000000000FFC00
0000000007E000
00000000000000
00000000000000
00000000000000
00000000007C00
0000000007FC00
0000000007FC00
000000000FFE00
000000001FFE00
000000001FFE00
000000003FFE00
000000003FFE00
000000007FFE00
000000007FFE00
00000000FFFE00
00000001FFFE00
00000001FFFE00
00000003FFFE00
00000003FFFE00
00000007FFFE00
0000000FFFFE00
0000000FFFFE00
0000001FFFFE00
0000001FFFFE00
0000003FFFFE00
0000007FFFFF00
0000007FFFFF00
000000FFFFFF00
000000FFFFFF00
000001FFFFFF00
000003FFFFFF00
000003FFFFFF00
000007FFFFFF00
00000FFFFFFF00
00000FFFFFFF00
00001FFFFFFF00
00003FF0FFFF00
00003FF0FFFF80
00007FE0FFFF80
0000FFC0FFFF80
0000FF807FFF80
0001FF007FFF80
0003FF007FFF80
0003FE00FFFF80
0007FC07FFFFC0
000FFFFFFFFFC0
000FFFFFFFFFC0
001FFFFFFFFFC0
001FFFFFFFFFC0
003FFFFFFFFFC0
007FFFFFFFFFE0
007FFFFDFFFFE0
00FFFF81FFFFE0
01FFFE01FFFFE0
01FFF801FFFFE0
03FFF001FFFFF0
07FFF001FFFFF0
07FFE001FFFFF0
0FFFE001FFFFF0
1FFFC001FFFFF8
1FFFC001FFFFF8
3FFFC000FFFFF8
7FFFC000FFFFFC
7FFFC000FFFFFC
FFFF0000F80070
FE000000000000
ENDCHAR
STARTCHAR 00E1
ENCODING 225
SWIDTH 630 0
DWIDTH 56 0
BBX 59 79 1 -2
BITMAP
000000000000FFE0
000000000001FFE0
000000000003FFE0
000000000007FFC0
000000000007FF80
00000000000FFF00
00000000001FFE00
00000000003FFC00
00000000007FF000
00000000007FE000
0000000000FFC000
0000000000FF8000
0000000001FF0000
00000000003E0000
0000000000000000
0000000000000000
0000000000000000
00000000007C0000
0000000007FC0000
0000000007FC0000
000000000FFE0000
000000001FFE0000
000000001FFE0000
000000003FFE0000
000000003FFE0000
000000007FFE0000
000000007FFE0000
00000000FFFE0000
00000001FFFE0000
00000001FFFE0000
00000003FFFE0000
00000003FFFE0000
00000007FFFE0000
0000000FFFFE0000
0000000FFFFE0000
0000001FFFFE0000
0000001FFFFE0000
0000003FFFFE0000
0000007FFFFF0000
0000007FFFFF0000
000000FFFFFF0000
000000FFFFFF0000
000001FFFFFF0000
000003FFFFFF0000
000003FFFFFF0000
000007FFFFFF0000
00000FFFFFFF0000
00000FFFFFFF0000
00001FFFFFFF0000
00003FF0FFFF0000
00003FF0FFFF8000
00007FE0FFFF8000
0000FFC0FFFF8000
0000FF807FFF8000
0001FF007FFF8000
0003FF007FFF8000
0003FE00FFFF8000
0007FC07FFFFC000
000FFFFFFFFFC000
000FFFFFFFFFC000
001FFFFFFFFFC000
001FFFFFFFFFC000
003FFFFFFFFFC000
007FFFFFFFFFE000
007FFFFDFFFFE000
00FFFF81FFFFE000
01FFFE01FFFFE000
01FFF801FFFFE000
03FFF001FFFFF000
07FFF001FFFFF000
07FFE001FFFFF000
0FFFE001FFFFF000
1FFFC001FFFFF800
1FFFC001FFFFF800
3FFFC000FFFFF800
7FFFC000FFFFFC00
7FFFC000FFFFFC00
FFFF0000F8007000
FE00000000000000
ENDCHAR
STARTCHAR 00E2
ENCODING 226
SWIDTH 630 0
DWIDTH 56 0
BBX 56 79 1 -2
BITMAP
00000000000E00
00000000003F80
0000000000FFC0
0000000003FFE0
000000000FFFF0
000000001FFFF8
000000003FFFFC
00000000FFFFFE
00000001FFFFFE
00000003FFEFFF
00000007FF87FF
00000007FF03FF
00000003FC01FE
00000001F000FC
00000000000000
00000000000000
00000000000000
00000000007C00
0000000007FC00
0000000007FC00
000000000FFE00
000000001FFE00
000000001FFE00
000000003FFE00
000000003FFE00
000000007FFE00
000000007FFE00
00000000FFFE00
00000001FFFE00
00000001FFFE00
00000003FFFE00
00000003FFFE00
00000007FFFE00
0000000FFFFE00
0000000FFFFE00
0000001FFFFE00
0000001FFFFE00
0000003FFFFE00
0000007FFFFF00
0000007FFFFF00
000000FFFFFF00
000000FFFFFF00
000001FFFFFF00
000003FFFFFF00
000003FFFFFF00
000007FFFFFF00
00000FFFFFFF00
00000FFFFFFF00
00001FFFFFFF00
00003FF0FFFF00
00003FF0FFFF80
00007FE0FFFF80
0000FFC0FFFF80
0000FF807FFF80
0001FF007FFF80
0003FF007FFF80
0003FE00FFFF80
0007FC07FFFFC0
000FFFFFFFFFC0
000FFFFFFFFFC0
001FFFFFFFFFC0
001FFFFFFFFFC0
003FFFFFFFFFC0
007FFFFFFFFFE0
007FFFFDFFFFE0
00FFFF81FFFFE0
01FFFE01FFFFE0
01FFF801FFFFE0
03FFF001FFFFF0
07FFF001FFFFF0
07FFE001FFFFF0
0FFFE001FFFFF0
1FFFC001FFFFF8
1FFFC001FFFFF8
3FFFC000FFFFF8
7FFFC000FFFFFC
7FFFC000FFFFFC
FFFF0000F80070
FE000000000000
ENDCHAR
STARTCHAR 00E3
ENCODING 227
SWIDTH 630 0
DWIDTH 56 0
BBX 58 78 1 -2
BITMAP
0000000007C07FC0
000000001FE07FC0
000000003FF07FC0
000000007FFCFFC0
00000000FFFFFF80
00000000FFFFFF80
00000001FFFFFF80
00000001FFFFFF00
00000001FFFFFE00
00000001FFFFFC00
00000003FCFFF800
00000003F83FF000
00000003F81FC000
0000000000000000
0000000000000000
0000000000000000
00000000007C0000
0000000007FC0000
0000000007FC0000
000000000FFE0000
000000001FFE0000
000000001FFE0000
000000003FFE0000
000000003FFE0000
000000007FFE0000
000000007FFE0000
00000000FFFE0000
00000001FFFE0000
00000001FFFE0000
00000003FFFE0000
00000003FFFE0000
00000007FFFE0000
0000000FFFFE0000
0000000FFFFE0000
0000001FFFFE0000
0000001FFFFE0000
0000003FFFFE0000
0000007FFFFF0000
0000007FFFFF0000
000000FFFFFF0000
000000FFFFFF0000
000001FFFFFF0000
000003FFFFFF0000
000003FFFFFF0000
000007FFFFFF0000
00000FFFFFFF0000
00000FFFFFFF0000
00001FFFFFFF0000
00003FF0FFFF0000
00003FF0FFFF8000
00007FE0FFFF8000
0000FFC0FFFF8000
0000FF807FFF8000
0001FF007FFF8000
0003FF007FFF8000
0003FE00FFFF8000
0007FC07FFFFC000
000FFFFFFFFFC000
000FFFFFFFFFC000
001FFFFFFFFFC000
001FFFFFFFFFC000
003FFFFFFFFFC000
007FFFFFFFFFE000
007FFFFDFFFFE000
00FFFF81FFFFE000
01FFFE01FFFFE000
01FFF801FFFFE000
03FFF001FFFFF000
07FFF001FFFFF000
07FFE001FFFFF000
0FFFE001FFFFF000
1FFFC001FFFFF800
1FFFC001FFFFF800
3FFFC000FFFFF800
7FFFC000FFFFFC00
7FFFC000FFFFFC00
FFFF0000F8007000
FE00000000000000
ENDCHAR
STARTCHAR 00E4
ENCODING 228
SWIDTH 630 0
DWIDTH 56 0
BBX 56 74 1 -2
BITMAP
000000001E007C
000000003F80FF
000000007F81FF
00000000FF81FF
00000001FF83FF
00000001FF83FE
00000001FF03FE
00000001FF03FC
00000000FE00F8
00000000380000
00000000000000
00000000000000
00000000007C00
0000000007FC00
0000000007FC00
000000000FFE00
000000001FFE00
000000001FFE00
000000003FFE00
000000003FFE00
000000007FFE00
000000007FFE00
00000000FFFE00
00000001FFFE00
00000001FFFE00
00000003FFFE00
00000003FFFE00
00000007FFFE00
0000000FFFFE00
0000000FFFFE00
0000001FFFFE00
0000001FFFFE00
0000003FFFFE00
0000007FFFFF00
0000007FFFFF00
000000FFFFFF00
000000FFFFFF00
000001FFFFFF00
000003FFFFFF00
000003FFFFFF00
000007FFFFFF00
00000FFFFFFF00
00000FFFFFFF00
00001FFFFFFF00
00003FF0FFFF00
00003FF0FFFF80
00007FE0FFFF80
0000FFC0FFFF80
0000FF807FFF80
0001FF007FFF80
0003FF007FFF80
0003FE00FFFF80
0007FC07FFFFC0
000FFFFFFFFFC0
000FFFFFFFFFC0
001FFFFFFFFFC0
001FFFFFFFFFC0
003FFFFFFFFFC0
007FFFFFFFFFE0
007FFFFDFFFFE0
00FFFF81FFFFE0
01FFFE01FFFFE0
01FFF801FFFFE0
03FFF001FFFFF0
07FFF001FFFFF0
07FFE001FFFFF0
0FFFE001FFFFF0
1FFFC001FFFFF8
1FFFC001FFFFF8
3FFFC000FFFFF8
7FFFC000FFFFFC
7FFFC000FFFFFC
FFFF0000F80070
FE000000000000
ENDCHAR
STARTCHAR 00E5
ENCODING 229
SWIDTH 630 0
DWIDTH 56 0
BBX 56 79 1 -2
BITMAP
00000000003F00
0000000003FFC0
000000000FFFF0
000000003FFFF8
000000007FFFFC
00000000FFFFFE
00000001FFC7FE
00000001FF03FF
00000003FE03FE
00000003FC01FF
00000007FC01FF
00000007FC01FE
00000007FC03FE
00000007FC03FE
00000007FC03FC
00000007FC07FC
00000007FE1FF8
00000007FFFFF0
00000003FFFFE0
00000001FFFFC0
00000000FFFF00
000000007FFE00
000000003FFE00
000000003FFE00
000000003FFE00
000000007FFE00
000000007FFE00
00000000FFFE00
00000001FFFE00
00000001FFFE00
00000003FFFE00
00000003FFFE00
00000007FFFE00
0000000FFFFE00
0000000FFFFE00
0000001FFFFE00
0000001FFFFE00
0000003FFFFE00
0000007FFFFF00
0000007FFFFF00
000000FFFFFF00
000000FFFFFF00
000001FFFFFF00
000003FFFFFF00
000003FFFFFF00
000007FFFFFF00
00000FFFFFFF00
00000FFFFFFF00
00001FFFFFFF00
00003FF0FFFF00
00003FF0FFFF80
00007FE0FFFF80
0000FFC0FFFF80
0000FF807FFF80
0001FF007FFF80
0003FE007FFF80
0003FE00FFFF80
0007FC07FFFFC0
000FFFFFFFFFC0
000FFFFFFFFFC0
001FFFFFFFFFC0
001FFFFFFFFFC0
003FFFFFFFFFC0
007FFFFFFFFFE0
007FFFFDFFFFE0
00FFFF81FFFFE0
01FFFE01FFFFE0
01FFF801FFFFE0
03FFF001FFFFF0
07FFF001FFFFF0
07FFE001FFFFF0
0FFFE001FFFFF0
1FFFC001FFFFF8
1FFFC001FFFFF8
3FFFC000FFFFF8
7FFFC000FFFFFC
7FFFC000FFFFFC
FFFF0000F80070
FE000000000000
ENDCHAR
STARTCHAR 00E6
ENCODING 230
SWIDTH 731 0
DWIDTH 65 0
BBX 67 64 1 -2
BITMAP
000000000000380000
00000000000FFFFE00
0000000001FFFFFFC0
0000000007FFFFFFE0
000000000FFFFFFFE0
000000000FFFFFFFC0
000000001FFFFFFFC0
000000001FFFFFFF80
000000003FFFFFFF80
000000007FFFFFFF00
000000007FFFFFFF00
00000000FFFFFFFE00
00000000FFFFFFFE00
00000001FFFFFFFC00
00000001FFFFFFFC00
00000003FFFFFFFC00
00000007FFFFFFFC00
00000007FFFFFFFC00
0000000FFFFFFFF800
0000000FFFFFF00000
0000001FFFFFC00000
0000003FFFFF800000
0000003FFFFF800000
0000007FFFFF800000
0000007FFFFF800000
000000FFFFFF806000
000001FFFFFF8FF000
000001FFFFFFFFE000
000003FFFFFFFFE000
000007FFFFFFFFC000
000007FFFFFFFFC000
00000FFFFFFFFFC000
00001FFFFFFFFFC000
00001FF9FFFFFFE000
00003FF0FFFFFFE000
00007FE0FFFFE00000
00007FC0FFFF000000
0000FFC07FFF000000
0000FF807FFF800300
0001FF007FFF820F00
0003FE007FFFFFFF00
0003FC00FFFFFFFF80
0007FC0FFFFFFFFF80
000FFFFFFFFFFFFF80
000FFFFFFFFFFFFF80
001FFFFFFFFFFFFF80
003FFFFFFFFFFFFF80
003FFFFFFFFFFFFF80
007FFFFFFFFFFFFF80
00FFFFF1FFFFFFFF80
00FFFF01FFFFFFFF80
01FFFC01FFFFFFFF80
03FFF801FFFFFFFF80
03FFF001FFFFFFFF80
07FFF001FFFFFFFF80
0FFFE001FFFFFFFF80
0FFFE001FFFFFFFC00
1FFFC001FFFFFFC000
3FFFC001FFFFFC0000
3FFFC000FFFFC00000
7FFFC000FFF8000000
7FFFC000FF00000000
FFF000006000000000
E00000000000000000
ENDCHAR
STARTCHAR 00E7
ENCODING 231
SWIDTH 483 0
DWIDTH 43 0
BBX 48 76 6 -15
BITMAP
00000000C000
0000000FFE00
0000007FFFC0
000003FFFFE0
00001FFFFFF8
00007FFFFFFC
0001FFFFFFFE
0003FFFFFFFE
0007FFFFFFFF
001FFFFFFFFE
003FFFFFFFFE
003FFFFFFFFE
007FFFFFFFFC
00FFFFFFFFFC
00FFFFFFFFFC
01FFFFFFFFF8
03FFFFFFFFF8
03FFFFFFE330
07FFFFFC0000
07FFFFE00000
0FFFFF800000
0FFFFF000000
0FFFFE000000
0FFFFC000000
0FFFF8000000
1FFFF8000000
1FFFF8000000
1FFFF0000000
3FFFF0000000
3FFFF0000000
3FFFF0000000
3FFFF0000000
3FFFF8000000
7FFFFC000100
7FFFFE007F80
7FFFFF7FFF80
7FFFFFFFFF80
7FFFFFFFFF80
7FFFFFFFFF00
7FFFFFFFFF00
7FFFFFFFFF00
7FFFFFFFFF00
7FFFFFFFFE00
7FFFFFFFFE00
7FFFFFFFFE00
7FFFFFFFFE00
3FFFFFFFFC00
3FFFFFFFFC00
3FFFFFFFFC00
3FFFFFFFFC00
1FFFFFFFF800
1FFFFFFFF000
1FFFFFFFE000
0FFFFFFF8000
0FFFFFFF8000
0FFFFFFF0000
07FFFFFC0000
007FFFF80000
003FFFC00000
007FFE000000
007FE0000000
007FF0000000
007FF0000000
003FF8000000
003FFC000000
000FFF000000
0007FF000000
0003FF800000
3801FF800000
7FC3FF800000
FFFFFF800000
FFFFFF000000
FFFFFF000000
7FFFFE000000
1FFFF8000000
03FF80000000
ENDCHAR
STARTCHAR 00E8
ENCODING 232
SWIDTH 495 0
DWIDTH 44 0
BBX 35 77 11 0
BITMAP
007FC00000
01FFE00000
03FFF00000
01FFF00000
00FFF80000
007FF80000
007FFC0000
003FFC0000
001FFE0000
000FFE0000
0007FE0000
0003FE0000
0003F00000
0000000000
0000000000
0007FFE000
003FFFFF80
01FFFFFFE0
0FFFFFFFE0
1FFFFFFFE0
3FFFFFFFC0
3FFFFFFFC0
1FFFFFFF80
1FFFFFFF80
1FFFFFFF00
1FFFFFFF00
1FFFFFFF00
1FFFFFFE00
1FFFFFFE00
1FFFFFFC00
1FFFFFFE00
1FFFFFFE00
1FFFFFFC00
1FFFFFF800
1FFFE00000
1FFFC00000
1FFF800000
1FFF800000
1FFFC00000
1FFFC00000
1FFFC1F000
1FFFFFF000
1FFFFFE000
1FFFFFE000
1FFFFFE000
1FFFFFE000
3FFFFFE000
3FFFFFE000
3FFFFFE000
3FFFFEE000
3FFF800000
3FFF800000
3FFF800000
3FFF800300
3FFFFFFF80
3FFFFFFF80
3FFFFFFF80
7FFFFFFF80
3FFFFFFF80
3FFFFFFF80
3FFFFFFF80
3FFFFFFF80
7FFFFFFF80
7FFFFFFF80
7FFFFFFF80
7FFFFFFF80
7FFFFFFF80
7FFFFFFF80
7FFFFFFF80
FFFFFFFF80
FFFFFFFF00
FFFFFFF800
FFFFFF0000
FFFFF00000
FFFF000000
7FE0000000
7000000000
ENDCHAR
STARTCHAR 00E9
ENCODING 233
SWIDTH 495 0
DWIDTH 44 0
BBX 35 79 11 0
BITMAP
0000000F80
000003FF80
000007FF80
00000FFF00
00000FFE00
00001FFC00
00003FF800
00003FF000
00007FE000
0000FFE000
0000FFC000
0001FF8000
0001FF0000
0003FE0000
0003FC0000
0000000000
0000000000
0007FFE000
003FFFFF80
01FFFFFFE0
0FFFFFFFE0
1FFFFFFFE0
3FFFFFFFC0
3FFFFFFFC0
1FFFFFFF80
1FFFFFFF80
1FFFFFFF00
1FFFFFFF00
1FFFFFFF00
1FFFFFFE00
1FFFFFFE00
1FFFFFFC00
1FFFFFFE00
1FFFFFFE00
1FFFFFFC00
1FFFFFF800
1FFFE00000
1FFFC00000
1FFF800000
1FFF800000
1FFFC00000
1FFFC00000
1FFFC1F000
1FFFFFF000
1FFFFFE000
1FFFFFE000
1FFFFFE000
1FFFFFE000
3FFFFFE000
3FFFFFE000
3FFFFFE000
3FFFFEE000
3FFF800000
3FFF800000
3FFF800000
3FFF800300
3FFFFFFF80
3FFFFFFF80
3FFFFFFF80
7FFFFFFF80
3FFFFFFF80
3FFFFFFF80
3FFFFFFF80
3FFFFFFF80
7FFFFFFF80
7FFFFFFF80
7FFFFFFF80
7FFFFFFF80
7FFFFFFF80
7FFFFFFF80
7FFFFFFF80
FFFFFFFF80
FFFFFFFF00
FFFFFFF800
FFFFFF0000
FFFFF00000
FFFF000000
7FE0000000
7000000000
ENDCHAR
STARTCHAR 00EA
ENCODING 234
SWIDTH 495 0
DWIDTH 44 0
BBX 35 78 11 0
BITMAP
00003C0000
0000FF0000
0001FF8000
0007FFC000
000FFFF000
001FFFF800
007FFFFC00
00FFFFFE00
01FFFFFF00
03FFCFFF00
07FF87FE00
07FE03FE00
0FFC01F000
07F8000000
03C0000000
0000000000
0007FFE000
003FFFFF80
01FFFFFFE0
0FFFFFFFE0
1FFFFFFFE0
3FFFFFFFC0
3FFFFFFFC0
1FFFFFFF80
1FFFFFFF80
1FFFFFFF00
1FFFFFFF00
1FFFFFFF00
1FFFFFFE00
1FFFFFFE00
1FFFFFFC00
1FFFFFFE00
1FFFFFFE00
1FFFFFFC00
1FFFFFF800
1FFFE00000
1FFFC00000
1FFF800000
1FFF800000
1FFFC00000
1FFFC00000
1FFFC1F000
1FFFFFF000
1FFFFFE000
1FFFFFE000
1FFFFFE000
1FFFFFE000
3FFFFFE000
3FFFFFE000
3FFFFFE000
3FFFFEE000
3FFF800000
3FFF800000
3FFF800000
3FFF800300
3FFFFFFF80
3FFFFFFF80
3FFFFFFF80
7FFFFFFF80
3FFFFFFF80
3FFFFFFF80
3FFFFFFF80
3FFFFFFF80
7FFFFFFF80
7FFFFFFF80
7FFFFFFF80
7FFFFFFF80
7FFFFFFF80
7FFFFFFF80
7FFFFFFF80
FFFFFFFF80
FFFFFFFF00
FFFFFFF800
FFFFFF0000
FFFFF00000
FFFF000000
7FE0000000
7000000000
ENDCHAR
STARTCHAR 00EB
ENCODING 235
SWIDTH 495 0
DWIDTH 44 0
BBX 35 74 11 0
BITMAP
000000F000
000001FC00
007803FE00
00FE07FE00
01FE07FC00
03FE07FC00
03FE07F800
07FE07F800
07FE07F000
07FC00C000
03F8000000
00E0000000
0007FFE000
003FFFFF80
01FFFFFFE0
0FFFFFFFE0
1FFFFFFFE0
3FFFFFFFC0
3FFFFFFFC0
1FFFFFFF80
1FFFFFFF80
1FFFFFFF00
1FFFFFFF00
1FFFFFFF00
1FFFFFFE00
1FFFFFFE00
1FFFFFFC00
1FFFFFFE00
1FFFFFFE00
1FFFFFFC00
1FFFFFF800
1FFFE00000
1FFFC00000
1FFF800000
1FFF800000
1FFFC00000
1FFFC00000
1FFFC1F000
1FFFFFF000
1FFFFFE000
1FFFFFE000
1FFFFFE000
1FFFFFE000
3FFFFFE000
3FFFFFE000
3FFFFFE000
3FFFFEE000
3FFF800000
3FFF800000
3FFF800000
3FFF800300
3FFFFFFF80
3FFFFFFF80
3FFFFFFF80
7FFFFFFF80
3FFFFFFF80
3FFFFFFF80
3FFFFFFF80
3FFFFFFF80
7FFFFFFF80
7FFFFFFF80
7FFFFFFF80
7FFFFFFF80
7FFFFFFF80
7FFFFFFF80
7FFFFFFF80
FFFFFFFF80
FFFFFFFF00
FFFFFFF800
FFFFFF0000
FFFFF00000
FFFF000000
7FE0000000
7000000000
ENDCHAR
STARTCHAR 00EC
ENCODING 236
SWIDTH 326 0
DWIDTH 29 0
BBX 39 77 2 0
BITMAP
000007FF00
00000FFF00
00000FFF00
00000FFF80
000007FF80
000003FFC0
000003FFC0
000001FFC0
000000FFE0
0000007FE0
0000007FE0
0000003FE0
0000003FE0
0000001F80
0000000000
0000000000
0000000000
000007FFC0
00001FFFFE
00003FFFFE
00003FFFFC
00003FFFF8
00003FFFF8
00003FFFF0
00003FFFF0
00007FFFF0
00007FFFE0
0000FFFFE0
0000FFFFE0
0000FFFFC0
0001FFFFC0
0001FFFFC0
0001FFFF80
0003FFFF80
0003FFFF80
0003FFFF00
0007FFFF00
0007FFFF00
0007FFFF00
000FFFFE00
000FFFFE00
000FFFFE00
001FFFFC00
001FFFFC00
001FFFFC00
001FFFFC00
003FFFF800
003FFFF800
003FFFF800
007FFFF800
007FFFF000
007FFFF000
007FFFF000
00FFFFF000
00FFFFF000
00FFFFE000
00FFFFE000
01FFFFE000
01FFFFE000
01FFFFE000
01FFFFE000
03FFFFC000
03FFFFC000
03FFFFC000
03FFFFC000
07FFFFC000
07FFFF0000
07FFFF0000
0FFFFE0000
0FFFFE0000
0FFFFE0000
1FFFFE0000
1FFFFE0000
3FFFF80000
7FFFE00000
FFF8000000
FC00000000
ENDCHAR
STARTCHAR 00ED
ENCODING 237
SWIDTH 326 0
DWIDTH 29 0
BBX 46 77 2 0
BITMAP
000000001FFC
000000003FFC
000000003FFC
000000007FF8
00000000FFF0
00000001FFE0
00000003FFC0
00000003FF80
00000007FF00
0000000FFE00
0000001FF800
0000001FF000
0000003FF000
00000007E000
000000000000
000000000000
000000000000
000007FFC000
00001FFFFE00
00003FFFFE00
00003FFFFC00
00003FFFF800
00003FFFF800
00003FFFF000
00003FFFF000
00007FFFF000
00007FFFE000
0000FFFFE000
0000FFFFE000
0000FFFFC000
0001FFFFC000
0001FFFFC000
0001FFFF8000
0003FFFF8000
0003FFFF8000
0003FFFF0000
0007FFFF0000
0007FFFF0000
0007FFFF0000
000FFFFE0000
000FFFFE0000
000FFFFE0000
001FFFFC0000
001FFFFC0000
001FFFFC0000
001FFFFC0000
003FFFF80000
003FFFF80000
003FFFF80000
007FFFF80000
007FFFF00000
007FFFF00000
007FFFF00000
00FFFFF00000
00FFFFF00000
00FFFFE00000
00FFFFE00000
01FFFFE00000
01FFFFE00000
01FFFFE00000
01FFFFE00000
03FFFFC00000
03FFFFC00000
03FFFFC00000
03FFFFC00000
07FFFFC00000
07FFFF000000
07FFFF000000
0FFFFE000000
0FFFFE000000
0FFFFE000000
1FFFFE000000
1FFFFE000000
3FFFF8000000
7FFFE0000000
FFF800000000
FC0000000000
ENDCHAR
STARTCHAR 00EE
ENCODING 238
SWIDTH 326 0
DWIDTH 29 0
BBX 44 77 2 0
BITMAP
00000000F000
00000003F800
0000000FFC00
0000003FFE00
000000FFFF00
000001FFFF80
000003FFFFC0
000007FFFFE0
00001FFFFFE0
00003FFEFFF0
00007FFC7FF0
00007FF03FF0
00003FE01FE0
00001E000FC0
000000000000
000000000000
000000000000
000007FFC000
00001FFFFE00
00003FFFFE00
00003FFFFC00
00003FFFF800
00003FFFF800
00003FFFF000
00003FFFF000
00007FFFF000
00007FFFE000
0000FFFFE000
0000FFFFE000
0000FFFFC000
0001FFFFC000
0001FFFFC000
0001FFFF8000
0003FFFF8000
0003FFFF8000
0003FFFF0000
0007FFFF0000
0007FFFF0000
0007FFFF0000
000FFFFE0000
000FFFFE0000
000FFFFE0000
001FFFFC0000
001FFFFC0000
001FFFFC0000
001FFFFC0000
003FFFF80000
003FFFF80000
003FFFF80000
007FFFF80000
007FFFF00000
007FFFF00000
007FFFF00000
00FFFFF00000
00FFFFF00000
00FFFFE00000
00FFFFE00000
01FFFFE00000
01FFFFE00000
01FFFFE00000
01FFFFE00000
03FFFFC00000
03FFFFC00000
03FFFFC00000
03FFFFC00000
07FFFFC00000
07FFFF000000
07FFFF000000
0FFFFE000000
0FFFFE000000
0FFFFE000000
1FFFFE000000
1FFFFE000000
3FFFF8000000
7FFFE0000000
FFF800000000
FC0000000000
ENDCHAR
STARTCHAR 00EF
ENCODING 239
SWIDTH 326 0
DWIDTH 29 0
BBX 44 72 2 0
BITMAP
000001C007C0
000007F00FE0
00000FF81FF0
00000FF83FF0
00001FF83FF0
00001FF03FE0
00001FF03FE0
00001FE03FC0
00000FE01F00
000003800000
000000000000
000000000000
000007FFC000
00001FFFFE00
00003FFFFE00
00003FFFFC00
00003FFFF800
00003FFFF800
00003FFFF000
00003FFFF000
00007FFFF000
00007FFFE000
0000FFFFE000
0000FFFFE000
0000FFFFC000
0001FFFFC000
0001FFFFC000
0001FFFF8000
0003FFFF8000
0003FFFF8000
0003FFFF0000
0007FFFF0000
0007FFFF0000
0007FFFF0000
000FFFFE0000
000FFFFE0000
000FFFFE0000
001FFFFC0000
001FFFFC0000
001FFFFC0000
001FFFFC0000
003FFFF80000
003FFFF80000
003FFFF80000
007FFFF80000
007FFFF00000
007FFFF00000
007FFFF00000
00FFFFF00000
00FFFFF00000
00FFFFE00000
00FFFFE00000
01FFFFE00000
01FFFFE00000
01FFFFE00000
01FFFFE00000
03FFFFC00000
03FFFFC00000
03FFFFC00000
03FFFFC00000
07FFFFC00000
07FFFF000000
07FFFF000000
0FFFFE000000
0FFFFE000000
0FFFFE000000
1FFFFE000000
1FFFFE000000
3FFFF8000000
7FFFE0000000
FFF800000000
FC0000000000
ENDCHAR
STARTCHAR 00F0
ENCODING 240
SWIDTH 483 0
DWIDTH 43 0
BBX 44 61 6 0
BITMAP
0000FE000000
0003FFF80000
000FFFFE0000
001FFFFFC000
003FFFFFF000
003FFFFFF800
003FFFFFFC00
003FFFFFFE00
007FFFFFFE00
007FFFFFFF00
007FFFFFFF80
007FFFFFFF80
007FFFFFFFC0
00FFFFFFFFC0
00FFFFFFFFE0
00FFFFFFFFE0
00FFFFFFFFE0
00FFFF87FFF0
00FFFF01FFF0
01FFFF00FFF0
01FFFFF87FF0
01FFFFF87FF0
01FFFFF87FF0
3FFFFFF87FF0
3FFFFFF0FFF0
3FFFFFF0FFF0
3FFFFFF0FFF0
7FFFFFF1FFF0
7FFFFFF1FFE0
7FFFFFF3FFE0
7FFFFFF7FFC0
7FFFFFC7FFC0
7FFFFC0FFF80
7FFFF81FFF00
FFFFF83FFF00
03FFF8FFFE00
03FFFFFFFC00
03FFFFFFFC00
03FFFFFFF800
03FFFFFFF000
03FFFFFFF000
03FFFFFFE000
03FFFFFFC000
03FFFFFF8000
03FFFFFF0000
03FFFFFF0000
03FFFFFE0000
03FFFFFC0000
03FFFFF80000
03FFFFF00000
03FFFFE00000
03FFFFC00000
03FFFF800000
03FFFE000000
03FFF8000000
03FFF0000000
03FFC0000000
03FE00000000
03F800000000
01E000000000
010000000000
ENDCHAR
STARTCHAR 00F1
ENCODING 241
SWIDTH 562 0
DWIDTH 50 0
BBX 59 75 2 1
BITMAP
000000001F01FF00
000000007F81FF00
00000000FFC1FF00
00000001FFE3FE00
00000003FFFFFE00
00000007FFFFFE00
00000007FFFFFE00
00000007FFFFFC00
0000000FFFFFF800
0000000FFFFFF000
0000000FE3FFE000
0000000FE1FF8000
0000001FE07F0000
0000000000000000
0000000000000000
0000000000000000
0000000000000000
000007FC0001FF00
00003FFFC007FFC0
00007FFFE03FFFC0
00007FFFE07FFFE0
0000FFFFE07FFFE0
0000FFFFC07FFFC0
0000FFFFC07FFFC0
0001FFFFC07FFFC0
0001FFFFC0FFFF80
0001FFFFC0FFFF80
0003FFFF80FFFF80
0003FFFF80FFFF00
0003FFFF81FFFF00
0007FFFF81FFFF00
0007FFFF81FFFE00
000FFFFF83FFFE00
000FFFFF83FFFE00
000FFFFFC3FFFC00
001FFFFFC3FFFC00
001FFFFFC3FFFC00
001FFFFFC7FFF800
003FFFFFC7FFF800
003FFFFFC7FFF800
003FFFFFC7FFF000
007FFFFFCFFFF000
007FFFFFCFFFF000
007FFFFFCFFFE000
00FFFFFFCFFFE000
00FFFFFFDFFFE000
00FFFFFFDFFFC000
00FFFFFFDFFFC000
01FFFFFFFFFFC000
01FFFFFFFFFFC000
01FFFF7FFFFF8000
03FFFF7FFFFF8000
03FFFF7FFFFF8000
03FFFE7FFFFF0000
03FFFE7FFFFF0000
07FFFE7FFFFF0000
07FFFE7FFFFF0000
07FFFC3FFFFE0000
07FFFC3FFFFE0000
0FFFFC3FFFFE0000
0FFFFC3FFFFE0000
0FFFF83FFFFC0000
1FFFF83FFFFC0000
1FFFF83FFFFC0000
1FFFF01FFFFC0000
1FFFF01FFFF80000
3FFFF01FFFF80000
3FFFF01FFFF80000
3FFFE01FFFF80000
7FFFE03FFFF00000
7FFFE03FFFF00000
7FFFE03FFFF00000
FFFFC03FFFE00000
FFFF003FFFC00000
FFE00000F0000000
ENDCHAR
STARTCHAR 00F2
ENCODING 242
SWIDTH 528 0
DWIDTH 47 0
BBX 46 78 7 -1
BITMAP
000FFE000000
001FFE000000
001FFE000000
000FFF000000
000FFF000000
0007FF800000
0003FF800000
0003FFC00000
0001FFC00000
0000FFC00000
0000FFC00000
00007FC00000
00007FE00000
00003F000000
000000000000
000007E00000
00000FF80000
00001FFE0000
00003FFF0000
00007FFFC000
0000FFFFE000
0001FFFFF800
0003FFFFFC00
0003FFFFFE00
0007FFFFFF00
000FFFFFFF80
000FFFFFFF80
001FFFFFFFC0
003FFFFFFFC0
003FFFFFFFE0
007FFFFFFFE0
00FFFFFFFFE0
00FFFFFFFFF0
01FFFFFFFFF0
03FFFFFFFFF0
03FFFFFFFFF8
07FFFFFFFFF8
07FFFFFFFFF8
0FFFFC1FFFF8
0FFFF807FFF8
1FFFF007FFFC
1FFFF007FFFC
3FFFE007FFFC
3FFFC007FFFC
7FFFC007FFFC
7FFFC007FFFC
7FFF8007FFFC
7FFF800FFFFC
7FFF800FFFF8
FFFF800FFFF8
FFFFC01FFFF8
FFFFC03FFFF8
FFFFE07FFFF8
FFFFF0FFFFF0
FFFFFFFFFFF0
FFFFFFFFFFE0
FFFFFFFFFFE0
FFFFFFFFFFE0
FFFFFFFFFFC0
FFFFFFFFFFC0
FFFFFFFFFF80
FFFFFFFFFF80
7FFFFFFFFF00
7FFFFFFFFF00
7FFFFFFFFE00
7FFFFFFFFE00
3FFFFFFFFC00
3FFFFFFFFC00
3FFFFFFFF800
1FFFFFFFF800
1FFFFFFFF000
0FFFFFFFE000
07FFFFFF8000
03FFFFFF0000
00FFFFFC0000
003FFFF00000
000FFFC00000
0000F8000000
ENDCHAR
STARTCHAR 00F3
ENCODING 243
SWIDTH 528 0
DWIDTH 47 0
BBX 46 78 7 -1
BITMAP
00000003FF80
00000007FF80
0000000FFF80
0000001FFF00
0000001FFE00
0000003FFC00
0000007FF000
000000FFE000
000001FFC000
000001FF8000
000003FF0000
000003FE0000
000007FC0000
000001F80000
000000000000
000007E00000
00000FF80000
00001FFE0000
00003FFF0000
00007FFFC000
0000FFFFE000
0001FFFFF800
0003FFFFFC00
0003FFFFFE00
0007FFFFFF00
000FFFFFFF80
000FFFFFFF80
001FFFFFFFC0
003FFFFFFFC0
003FFFFFFFE0
007FFFFFFFE0
00FFFFFFFFE0
00FFFFFFFFF0
01FFFFFFFFF0
03FFFFFFFFF0
03FFFFFFFFF8
07FFFFFFFFF8
07FFFFFFFFF8
0FFFFC1FFFF8
0FFFF807FFF8
1FFFF007FFFC
1FFFF007FFFC
3FFFE007FFFC
3FFFC007FFFC
7FFFC007FFFC
7FFFC007FFFC
7FFF8007FFFC
7FFF800FFFFC
7FFF800FFFF8
FFFF800FFFF8
FFFFC01FFFF8
FFFFC03FFFF8
FFFFE07FFFF8
FFFFF0FFFFF0
FFFFFFFFFFF0
FFFFFFFFFFE0
FFFFFFFFFFE0
FFFFFFFFFFE0
FFFFFFFFFFC0
FFFFFFFFFFC0
FFFFFFFFFF80
FFFFFFFFFF80
7FFFFFFFFF00
7FFFFFFFFF00
7FFFFFFFFE00
7FFFFFFFFE00
3FFFFFFFFC00
3FFFFFFFFC00
3FFFFFFFF800
1FFFFFFFF800
1FFFFFFFF000
0FFFFFFFE000
07FFFFFF8000
03FFFFFF0000
00FFFFFC0000
003FFFF00000
000FFFC00000
0000F8000000
ENDCHAR
STARTCHAR 00F4
ENCODING 244
SWIDTH 528 0
DWIDTH 47 0
BBX 46 78 7 -1
BITMAP
000000F80000
000003FC0000
000007FF0000
00001FFF8000
00003FFFC000
0000FFFFE000
0001FFFFF000
0003FFFFF800
000FFFFFF800
001FFE7FFC00
001FFC1FFC00
001FF01FFC00
000FE007F000
000080000000
000000000000
000007E00000
00000FF80000
00001FFE0000
00003FFF0000
00007FFFC000
0000FFFFE000
0001FFFFF800
0003FFFFFC00
0003FFFFFE00
0007FFFFFF00
000FFFFFFF80
000FFFFFFF80
001FFFFFFFC0
003FFFFFFFC0
003FFFFFFFE0
007FFFFFFFE0
00FFFFFFFFE0
00FFFFFFFFF0
01FFFFFFFFF0
03FFFFFFFFF0
03FFFFFFFFF8
07FFFFFFFFF8
07FFFFFFFFF8
0FFFFC1FFFF8
0FFFF807FFF8
1FFFF007FFFC
1FFFF007FFFC
3FFFE007FFFC
3FFFC007FFFC
7FFFC007FFFC
7FFFC007FFFC
7FFF8007FFFC
7FFF800FFFFC
7FFF800FFFF8
FFFF800FFFF8
FFFFC01FFFF8
FFFFC03FFFF8
FFFFE07FFFF8
FFFFF0FFFFF0
FFFFFFFFFFF0
FFFFFFFFFFE0
FFFFFFFFFFE0
FFFFFFFFFFE0
FFFFFFFFFFC0
FFFFFFFFFFC0
FFFFFFFFFF80
FFFFFFFFFF80
7FFFFFFFFF00
7FFFFFFFFF00
7FFFFFFFFE00
7FFFFFFFFE00
3FFFFFFFFC00
3FFFFFFFFC00
3FFFFFFFF800
1FFFFFFFF800
1FFFFFFFF000
0FFFFFFFE000
07FFFFFF8000
03FFFFFF0000
00FFFFFC0000
003FFFF00000
000FFFC00000
0000F8000000
ENDCHAR
STARTCHAR 00F5
ENCODING 245
SWIDTH 528 0
DWIDTH 47 0
BBX 46 78 7 -1
BITMAP
00000003FC00
00001C07FC00
0000FE07FC00
0001FF87FC00
0003FFFFFC00
0007FFFFFC00
000FFFFFF800
000FFFFFF800
000FFFFFF000
001FFFFFE000
001FFFFFC000
001FE7FF8000
001FC1FE0000
001FC0000000
001E00000000
000007E00000
00000FF80000
00001FFE0000
00003FFF0000
00007FFFC000
0000FFFFE000
0001FFFFF800
0003FFFFFC00
0003FFFFFE00
0007FFFFFF00
000FFFFFFF80
000FFFFFFF80
001FFFFFFFC0
003FFFFFFFC0
003FFFFFFFE0
007FFFFFFFE0
00FFFFFFFFE0
00FFFFFFFFF0
01FFFFFFFFF0
03FFFFFFFFF0
03FFFFFFFFF8
07FFFFFFFFF8
07FFFFFFFFF8
0FFFFC1FFFF8
0FFFF807FFF8
1FFFF007FFFC
1FFFF007FFFC
3FFFE007FFFC
3FFFC007FFFC
7FFFC007FFFC
7FFFC007FFFC
7FFF8007FFFC
7FFF800FFFFC
7FFF800FFFF8
FFFF800FFFF8
FFFFC01FFFF8
FFFFC03FFFF8
FFFFE07FFFF8
FFFFF0FFFFF0
FFFFFFFFFFF0
FFFFFFFFFFE0
FFFFFFFFFFE0
FFFFFFFFFFE0
FFFFFFFFFFC0
FFFFFFFFFFC0
FFFFFFFFFF80
FFFFFFFFFF80
7FFFFFFFFF00
7FFFFFFFFF00
7FFFFFFFFE00
7FFFFFFFFE00
3FFFFFFFFC00
3FFFFFFFFC00
3FFFFFFFF800
1FFFFFFFF800
1FFFFFFFF000
0FFFFFFFE000
07FFFFFF8000
03FFFFFF0000
00FFFFFC0000
003FFFF00000
000FFFC00000
0000F8000000
ENDCHAR
STARTCHAR 00F6
ENCODING 246
SWIDTH 528 0
DWIDTH 47 0
BBX 46 73 7 -1
BITMAP
0000E003E000
0001F807F000
0003FC0FF800
0007FC0FF800
000FFC1FF800
000FFC1FF000
000FF81FF000
000FF81FE000
0007F00FC000
0001C0000000
000007E00000
00000FF80000
00001FFE0000
00003FFF0000
00007FFFC000
0000FFFFE000
0001FFFFF800
0003FFFFFC00
0003FFFFFE00
0007FFFFFF00
000FFFFFFF80
000FFFFFFF80
001FFFFFFFC0
003FFFFFFFC0
003FFFFFFFE0
007FFFFFFFE0
00FFFFFFFFE0
00FFFFFFFFF0
01FFFFFFFFF0
03FFFFFFFFF0
03FFFFFFFFF8
07FFFFFFFFF8
07FFFFFFFFF8
0FFFFC1FFFF8
0FFFF807FFF8
1FFFF007FFFC
1FFFF007FFFC
3FFFE007FFFC
3FFFC007FFFC
7FFFC007FFFC
7FFFC007FFFC
7FFF8007FFFC
7FFF800FFFFC
7FFF800FFFF8
FFFF800FFFF8
FFFFC01FFFF8
FFFFC03FFFF8
FFFFE07FFFF8
FFFFF0FFFFF0
FFFFFFFFFFF0
FFFFFFFFFFE0
FFFFFFFFFFE0
FFFFFFFFFFE0
FFFFFFFFFFC0
FFFFFFFFFFC0
FFFFFFFFFF80
FFFFFFFFFF80
7FFFFFFFFF00
7FFFFFFFFF00
7FFFFFFFFE00
7FFFFFFFFE00
3FFFFFFFFC00
3FFFFFFFFC00
3FFFFFFFF800
1FFFFFFFF800
1FFFFFFFF000
0FFFFFFFE000
07FFFFFF8000
03FFFFFF0000
00FFFFFC0000
003FFFF00000
000FFFC00000
0000F8000000
ENDCHAR
STARTCHAR 00F7
ENCODING 247
SWIDTH 472 0
DWIDTH 42 0
BBX 42 47 7 8
BITMAP
000000E00000
000003FC0000
000007FF0000
00000FFF0000
00001FFF0000
00003FFF0000
00003FFF0000
00007FFF0000
00007FFE0000
00007FFE0000
00007FFE0000
00007FFC0000
00003FF80000
00001FF00000
000003C00000
000000000000
000000000000
000C00380000
1FFFFFFFFFC0
3FFFFFFFFFC0
3FFFFFFFFF80
3FFFFFFFFF80
3FFFFFFFFF80
7FFFFFFFFF80
7FFFFFFFFF80
7FFFFFFFFF80
7FFFFFFFFF00
FFFFFFFFFF00
FFFFFFFE0000
1FF000000000
000000000000
000000000000
000000000000
0001FC000000
0003FE000000
000FFF000000
000FFF800000
001FFF800000
001FFF800000
003FFF800000
003FFF800000
003FFF000000
003FFE000000
003FFE000000
003FFC000000
001FF8000000
0007E0000000
ENDCHAR
STARTCHAR 00F8
ENCODING 248
SWIDTH 528 0
DWIDTH 47 0
BBX 61 64 0 -1
BITMAP
000000000000F038
0000000FC001FFF8
0000001FF003FFF8
0000003FFC07FFF0
0000007FFE07FFE0
000000FFFF8FFFC0
000001FFFFDFFFC0
000003FFFFFFFF80
000007FFFFFFFF00
000007FFFFFFFE00
00000FFFFFFFFC00
00001FFFFFFFFC00
00001FFFFFFFF800
00003FFFFFFFF000
00007FFFFFFFE000
00007FFFFFFFC000
0000FFFFFFFFC000
0001FFFFFFFFC000
0001FFFFFFFFE000
0003FFFFFFFFE000
0007FFFFFFFFE000
0007FFFFFFFFF000
000FFFFFFFFFF000
000FFFFFFFFFF000
001FFFE7FFFFF000
001FFF8FFFFFF000
003FFF1FFFFFF800
003FFE1FFFFFF800
007FFC3FFFFFF800
007FFC7FFFFFF800
00FFF8FFFBFFF800
00FFF8FFF3FFF800
00FFF1FFE3FFF800
00FFF3FFE3FFF800
00FFF7FFC7FFF000
01FFF7FF87FFF000
01FFFFFF0FFFF000
01FFFFFE0FFFF000
01FFFFFC1FFFF000
01FFFFFC3FFFE000
01FFFFF8FFFFE000
01FFFFF1FFFFC000
01FFFFFFFFFFC000
01FFFFFFFFFFC000
01FFFFFFFFFF8000
01FFFFFFFFFF8000
01FFFFFFFFFF0000
01FFFFFFFFFF0000
00FFFFFFFFFE0000
00FFFFFFFFFE0000
00FFFFFFFFFC0000
00FFFFFFFFFC0000
01FFFFFFFFF80000
01FFFFFFFFF80000
03FFFFFFFFF00000
07FFFFFFFFF00000
0FFFFFFFFFE00000
1FFFFFFFFFC00000
3FFFFFFFFF000000
7FFBFFFFFE000000
FFF1FFFFF8000000
FFE07FFFE0000000
C3C00FFF80000000
018001F000000000
ENDCHAR
STARTCHAR 00F9
ENCODING 249
SWIDTH 551 0
DWIDTH 49 0
BBX 52 75 7 2
BITMAP
000003FF800000
000003FFC00000
000007FFC00000
000003FFC00000
000001FFE00000
000001FFE00000
000000FFE00000
0000007FF00000
0000007FF00000
0000003FF00000
0000001FF80000
0000001FF80000
0000000FF80000
0000000FC00000
00000000000000
00000000000000
0007C000000000
0007FE0001FFE0
000FFFC003FFF0
000FFFC003FFF0
001FFF8007FFF0
001FFF8007FFF0
003FFF0003FFF0
003FFE0003FFE0
003FFE0003FFE0
007FFE0003FFE0
007FFE0007FFE0
00FFFC0007FFC0
00FFFC0007FFC0
01FFFC000FFFC0
01FFF8000FFFC0
03FFF8000FFF80
03FFF8001FFF80
03FFF0001FFF80
07FFF0001FFF80
07FFF0003FFF80
0FFFE0003FFF00
0FFFE0003FFF00
0FFFE0007FFF00
1FFFE0007FFF00
1FFFE0007FFF00
1FFFC000FFFF00
3FFFC000FFFF00
3FFFC001FFFE00
3FFFC001FFFE00
7FFFE001FFFE00
7FFFE003FFFE00
7FFFE003FFFE00
7FFFF007FFFC00
7FFFF807FFFC00
7FFFFC0FFFF800
FFFFFFFFFFF800
FFFFFFFFFFF000
FFFFFFFFFFF000
FFFFFFFFFFE000
FFFFFFFFFFC000
FFFFFFFFFFC000
FFFFFFFFFF8000
FFFFFFFFFF8000
FFFFFFFFFF0000
FFFFFFFFFF0000
FFFFFFFFFE0000
7FFFFFFFFE0000
7FFFFFFFFC0000
7FFFFFFFF80000
3FFFFFFFF00000
3FFFFFFFE00000
3FFFFFFFC00000
3FFFFFFF800000
1FFFFFFE000000
1FFFFFFC000000
0FFFFFF8000000
03FFFFF0000000
00FFFFE0000000
001FFFC0000000
ENDCHAR
STARTCHAR 00FA
ENCODING 250
SWIDTH 551 0
DWIDTH 49 0
BBX 52 75 7 2
BITMAP
0000000001FFC0
0000000001FFC0
0000000003FFE0
0000000007FF80
000000000FFF00
000000001FFE00
000000003FFC00
000000003FF800
000000007FF000
00000000FFE000
00000000FFC000
00000001FF0000
00000003FF0000
000000007E0000
00000000000000
00000000000000
0007C000000000
0007FE0001FFE0
000FFFC003FFF0
000FFFC003FFF0
001FFF8007FFF0
001FFF8007FFF0
003FFF0003FFF0
003FFE0003FFE0
003FFE0003FFE0
007FFE0003FFE0
007FFE0007FFE0
00FFFC0007FFC0
00FFFC0007FFC0
01FFFC000FFFC0
01FFF8000FFFC0
03FFF8000FFF80
03FFF8001FFF80
03FFF0001FFF80
07FFF0001FFF80
07FFF0003FFF80
0FFFE0003FFF00
0FFFE0003FFF00
0FFFE0007FFF00
1FFFE0007FFF00
1FFFE0007FFF00
1FFFC000FFFF00
3FFFC000FFFF00
3FFFC001FFFE00
3FFFC001FFFE00
7FFFE001FFFE00
7FFFE003FFFE00
7FFFE003FFFE00
7FFFF007FFFC00
7FFFF807FFFC00
7FFFFC0FFFF800
FFFFFFFFFFF800
FFFFFFFFFFF000
FFFFFFFFFFF000
FFFFFFFFFFE000
FFFFFFFFFFC000
FFFFFFFFFFC000
FFFFFFFFFF8000
FFFFFFFFFF8000
FFFFFFFFFF0000
FFFFFFFFFF0000
FFFFFFFFFE0000
7FFFFFFFFE0000
7FFFFFFFFC0000
7FFFFFFFF80000
3FFFFFFFF00000
3FFFFFFFE00000
3FFFFFFFC00000
3FFFFFFF800000
1FFFFFFE000000
1FFFFFFC000000
0FFFFFF8000000
03FFFFF0000000
00FFFFE0000000
001FFFC0000000
ENDCHAR
STARTCHAR 00FB
ENCODING 251
SWIDTH 551 0
DWIDTH 49 0
BBX 52 75 7 2
BITMAP
000000000E0000
000000007F0000
00000001FF8000
00000003FFC000
0000000FFFE000
0000001FFFF000
0000007FFFF800
000000FFFFFC00
000001FFFFFE00
000003FFEFFF00
000007FF87FF00
000007FF03FF00
000007FC01FE00
000001E000FC00
00000000000000
00000000000000
0007C000000000
0007FE0001FFE0
000FFFC003FFF0
000FFFC003FFF0
001FFF8007FFF0
001FFF8007FFF0
003FFF0003FFF0
003FFE0003FFE0
003FFE0003FFE0
007FFE0003FFE0
007FFE0007FFE0
00FFFC0007FFC0
00FFFC0007FFC0
01FFFC000FFFC0
01FFF8000FFFC0
03FFF8000FFF80
03FFF8001FFF80
03FFF0001FFF80
07FFF0001FFF80
07FFF0003FFF80
0FFFE0003FFF00
0FFFE0003FFF00
0FFFE0007FFF00
1FFFE0007FFF00
1FFFE0007FFF00
1FFFC000FFFF00
3FFFC000FFFF00
3FFFC001FFFE00
3FFFC001FFFE00
7FFFE001FFFE00
7FFFE003FFFE00
7FFFE003FFFE00
7FFFF007FFFC00
7FFFF807FFFC00
7FFFFC0FFFF800
FFFFFFFFFFF800
FFFFFFFFFFF000
FFFFFFFFFFF000
FFFFFFFFFFE000
FFFFFFFFFFC000
FFFFFFFFFFC000
FFFFFFFFFF8000
FFFFFFFFFF8000
FFFFFFFFFF0000
FFFFFFFFFF0000
FFFFFFFFFE0000
7FFFFFFFFE0000
7FFFFFFFFC0000
7FFFFFFFF80000
3FFFFFFFF00000
3FFFFFFFE00000
3FFFFFFFC00000
3FFFFFFF800000
1FFFFFFE000000
1FFFFFFC000000
0FFFFFF8000000
03FFFFF0000000
00FFFFE0000000
001FFFC0000000
ENDCHAR
STARTCHAR 00FC
ENCODING 252
SWIDTH 551 0
DWIDTH 49 0
BBX 52 70 7 2
BITMAP
0000003E003800
000000FF01FC00
000001FF03FE00
000001FF03FE00
000001FF03FE00
000001FF03FE00
000001FF07FE00
000001FE03FC00
000000F803F800
0000000001E000
00000000000000
0007C000000000
0007FE0001FFE0
000FFFC003FFF0
000FFFC003FFF0
001FFF8007FFF0
001FFF8007FFF0
003FFF0003FFF0
003FFE0003FFE0
003FFE0003FFE0
007FFE0003FFE0
007FFE0007FFE0
00FFFC0007FFC0
00FFFC0007FFC0
01FFFC000FFFC0
01FFF8000FFFC0
03FFF8000FFF80
03FFF8001FFF80
03FFF0001FFF80
07FFF0001FFF80
07FFF0003FFF80
0FFFE0003FFF00
0FFFE0003FFF00
0FFFE0007FFF00
1FFFE0007FFF00
1FFFE0007FFF00
1FFFC000FFFF00
3FFFC000FFFF00
3FFFC001FFFE00
3FFFC001FFFE00
7FFFE001FFFE00
7FFFE003FFFE00
7FFFE003FFFE00
7FFFF007FFFC00
7FFFF807FFFC00
7FFFFC0FFFF800
FFFFFFFFFFF800
FFFFFFFFFFF000
FFFFFFFFFFF000
FFFFFFFFFFE000
FFFFFFFFFFC000
FFFFFFFFFFC000
FFFFFFFFFF8000
FFFFFFFFFF8000
FFFFFFFFFF0000
FFFFFFFFFF0000
FFFFFFFFFE0000
7FFFFFFFFE0000
7FFFFFFFFC0000
7FFFFFFFF80000
3FFFFFFFF00000
3FFFFFFFE00000
3FFFFFFFC00000
3FFFFFFF800000
1FFFFFFE000000
1FFFFFFC000000
0FFFFFF8000000
03FFFFF0000000
00FFFFE0000000
001FFFC0000000
ENDCHAR
STARTCHAR 00FD
ENCODING 253
SWIDTH 607 0
DWIDTH 54 0
BBX 53 77 13 0
BITMAP
000000003FF800
000000007FF800
00000000FFF800
00000001FFF000
00000001FFE000
00000003FFC000
00000007FF8000
0000000FFF0000
0000001FFC0000
0000001FF80000
0000003FF00000
0000003FE00000
0000007FC00000
0000000F800000
00000000000000
00000000000000
000000000038F8
0000000001FFF8
000C000007FFF0
003E000007FFE0
07FE000007FFC0
3FFF00000FFF80
FFFF00001FFF80
FFFF80003FFF80
FFFF80007FFF00
FFFF80007FFE00
FFFFC0007FFE00
7FFFC000FFFC00
7FFFC001FFF800
7FFFC003FFF800
7FFFE003FFF000
3FFFE007FFE000
3FFFE00FFFC000
1FFFE01FFFC000
1FFFF01FFF8000
1FFFF03FFF0000
1FFFF07FFF0000
0FFFF0FFFE0000
0FFFF0FFFC0000
0FFFF9FFFC0000
07FFFBFFF80000
07FFFBFFF00000
07FFFFFFF00000
07FFFFFFE00000
03FFFFFFC00000
03FFFFFFC00000
03FFFFFF800000
01FFFFFF000000
01FFFFFF000000
01FFFFFE000000
01FFFFFC000000
00FFFFFC000000
00FFFFF8000000
00FFFFF0000000
007FFFF0000000
007FFFE0000000
007FFFC0000000
003FFF80000000
003FFF80000000
003FFF80000000
001FFF80000000
001FFF00000000
001FFF00000000
003FFF00000000
003FFF00000000
003FFF00000000
003FFF00000000
007FFF00000000
007FFF00000000
007FFF00000000
007FFF00000000
007FFF00000000
007FFF00000000
00FFFE00000000
00FFFE00000000
00FFF800000000
007F0000000000
ENDCHAR
STARTCHAR 00FE
ENCODING 254
SWIDTH 506 0
DWIDTH 45 0
BBX 44 61 5 0
BITMAP
007FFF000000
007FFF000000
007FFF000000
007FFF000000
007FFF000000
00FFFF000000
00FFFF000000
00FFFF000000
00FFFFF00000
00FFFFFF0000
00FFFFFFF800
00FFFFFFFC00
01FFFFFFFF00
01FFFFFFFF00
01FFFFFFFF80
01FFFFFFFFC0
03FFFFFFFFC0
03FFFFFFFFC0
03FFFFFFFFE0
03FFFFFFFFE0
03FFFFFFFFE0
03FFF80FFFE0
03FFF801FFF0
03FFF801FFF0
07FFF800FFF0
07FFF800FFF0
07FFF800FFF0
07FFF000FFF0
07FFF000FFF0
07FFF001FFF0
0FFFF001FFF0
0FFFF003FFF0
0FFFF003FFE0
0FFFF007FFF0
0FFFF007FFE0
0FFFF00FFFE0
0FFFF01FFFE0
0FFFF03FFFE0
1FFFF0FFFFE0
1FFFFFFFFFE0
1FFFFFFFFFE0
1FFFFFFFFFC0
1FFFFFFFFF00
3FFFFFFFFE00
3FFFFFFFFC00
3FFFFFFFF800
3FFFFFFFE000
3FFFFFFFC000
7FFFFFFF0000
7FFFE0000000
7FFFE0000000
7FFFC0000000
7FFFE0000000
7FFFC0000000
7FFFC0000000
FFFFC0000000
FFFF80000000
FFFF80000000
FFFF80000000
FFFF80000000
7FFE00000000
ENDCHAR
STARTCHAR 00FF
ENCODING 255
SWIDTH 607 0
DWIDTH 54 0
BBX 53 72 13 0
BITMAP
000007003F0000
00001FC07F8000
00003FC0FFC000
00007FC0FFC000
00007FC0FF8000
00007FC0FF8000
0000FFC0FF0000
00007F80FE0000
00003F007C0000
00001E00000000
00000000000000
000000000038F8
0000000001FFF8
000C000007FFF0
003E000007FFE0
07FE000007FFC0
3FFF00000FFF80
FFFF00001FFF80
FFFF80003FFF80
FFFF80007FFF00
FFFF80007FFE00
FFFFC0007FFE00
7FFFC000FFFC00
7FFFC001FFF800
7FFFC003FFF800
7FFFE003FFF000
3FFFE007FFE000
3FFFE00FFFC000
1FFFE01FFFC000
1FFFF01FFF8000
1FFFF03FFF0000
1FFFF07FFF0000
0FFFF0FFFE0000
0FFFF0FFFC0000
0FFFF9FFFC0000
07FFFBFFF80000
07FFFBFFF00000
07FFFFFFF00000
07FFFFFFE00000
03FFFFFFC00000
03FFFFFFC00000
03FFFFFF800000
01FFFFFF000000
01FFFFFF000000
01FFFFFE000000
01FFFFFC000000
00FFFFFC000000
00FFFFF8000000
00FFFFF0000000
007FFFF0000000
007FFFE0000000
007FFFC0000000
003FFF80000000
003FFF80000000
003FFF80000000
001FFF80000000
001FFF00000000
001FFF00000000
003FFF00000000
003FFF00000000
003FFF00000000
003FFF00000000
007FFF00000000
007FFF00000000
007FFF00000000
007FFF00000000
007FFF00000000
007FFF00000000
00FFFE00000000
00FFFE00000000
00FFF800000000
007F0000000000
ENDCHAR
STARTCHAR 0100
ENCODING 256
SWIDTH 630 0
DWIDTH 56 0
BBX 57 73 1 -2
BITMAP
00000001FFFFFF80
00000001FFFFFF80
00000001FFFFFF80
00000001FFFFFF80
00000003FFFFFF80
00000003FFFFFF00
00000003FFFFFF00
00000001FC000000
0000000000000000
0000000000000000
0000000000000000
00000000007C0000
0000000007FC0000
0000000007FC0000
000000000FFE0000
000000001FFE0000
000000001FFE0000
000000003FFE0000
000000003FFE0000
000000007FFE0000
000000007FFE0000
00000000FFFE0000
00000001FFFE0000
00000001FFFE0000
00000003FFFE0000
00000003FFFE0000
00000007FFFE0000
0000000FFFFE0000
0000000FFFFE0000
0000001FFFFE0000
0000001FFFFE0000
0000003FFFFE0000
0000007FFFFF0000
0000007FFFFF0000
000000FFFFFF0000
000000FFFFFF0000
000001FFFFFF0000
000003FFFFFF0000
000003FFFFFF0000
000007FFFFFF0000
00000FFFFFFF0000
00000FFFFFFF0000
00001FFFFFFF0000
00003FF0FFFF0000
00003FF0FFFF8000
00007FE0FFFF8000
0000FFC0FFFF8000
0000FF807FFF8000
0001FF007FFF8000
0003FF007FFF8000
0003FE00FFFF8000
0007FC07FFFFC000
000FFFFFFFFFC000
000FFFFFFFFFC000
001FFFFFFFFFC000
001FFFFFFFFFC000
003FFFFFFFFFC000
007FFFFFFFFFE000
007FFFFDFFFFE000
00FFFF81FFFFE000
01FFFE01FFFFE000
01FFF801FFFFE000
03FFF001FFFFF000
07FFF001FFFFF000
07FFE001FFFFF000
0FFFE001FFFFF000
1FFFC001FFFFF800
1FFFC001FFFFF800
3FFFC000FFFFF800
7FFFC000FFFFFC00
7FFFC000FFFFFC00
FFFF0000F8007000
FE00000000000000
ENDCHAR
STARTCHAR 0101
ENCODING 257
SWIDTH 630 0
DWIDTH 56 0
BBX 57 73 1 -2
BITMAP
00000001FFFFFF80
00000001FFFFFF80
00000001FFFFFF80
00000001FFFFFF80
00000003FFFFFF80
00000003FFFFFF00
00000003FFFFFF00
00000001FC000000
0000000000000000
0000000000000000
0000000000000000
00000000007C0000
0000000007FC0000
0000000007FC0000
000000000FFE0000
000000001FFE0000
000000001FFE0000
000000003FFE0000
000000003FFE0000
000000007FFE0000
000000007FFE0000
00000000FFFE0000
00000001FFFE0000
00000001FFFE0000
00000003FFFE0000
00000003FFFE0000
00000007FFFE0000
0000000FFFFE0000
0000000FFFFE0000
0000001FFFFE0000
0000001FFFFE0000
0000003FFFFE0000
0000007FFFFF0000
0000007FFFFF0000
000000FFFFFF0000
000000FFFFFF0000
000001FFFFFF0000
000003FFFFFF0000
000003FFFFFF0000
000007FFFFFF0000
00000FFFFFFF0000
00000FFFFFFF0000
00001FFFFFFF0000
00003FF0FFFF0000
00003FF0FFFF8000
00007FE0FFFF8000
0000FFC0FFFF8000
0000FF807FFF8000
0001FF007FFF8000
0003FF007FFF8000
0003FE00FFFF8000
0007FC07FFFFC000
000FFFFFFFFFC000
000FFFFFFFFFC000
001FFFFFFFFFC000
001FFFFFFFFFC000
003FFFFFFFFFC000
007FFFFFFFFFE000
007FFFFDFFFFE000
00FFFF81FFFFE000
01FFFE01FFFFE000
01FFF801FFFFE000
03FFF001FFFFF000
07FFF001FFFFF000
07FFE001FFFFF000
0FFFE001FFFFF000
1FFFC001FFFFF800
1FFFC001FFFFF800
3FFFC000FFFFF800
7FFFC000FFFFFC00
7FFFC000FFFFFC00
FFFF0000F8007000
FE00000000000000
ENDCHAR
STARTCHAR 0102
ENCODING 258
SWIDTH 630 0
DWIDTH 56 0
BBX 58 78 1 -2
BITMAP
00000001FC003FC0
00000001FC007FC0
00000001FE00FF80
00000001FF01FF80
00000000FFDFFF00
00000000FFFFFF00
00000000FFFFFE00
00000000FFFFFC00
000000007FFFF800
000000007FFFE000
000000003FFFC000
000000000FFF8000
0000000007FC0000
0000000000000000
0000000000000000
0000000000000000
00000000007C0000
0000000007FC0000
0000000007FC0000
000000000FFE0000
000000001FFE0000
000000001FFE0000
000000003FFE0000
000000003FFE0000
000000007FFE0000
000000007FFE0000
00000000FFFE0000
00000001FFFE0000
00000001FFFE0000
00000003FFFE0000
00000003FFFE0000
00000007FFFE0000
0000000FFFFE0000
0000000FFFFE0000
0000001FFFFE0000
0000001FFFFE0000
0000003FFFFE0000
0000007FFFFF0000
0000007FFFFF0000
000000FFFFFF0000
000000FFFFFF0000
000001FFFFFF0000
000003FFFFFF0000
000003FFFFFF0000
000007FFFFFF0000
00000FFFFFFF0000
00000FFFFFFF0000
00001FFFFFFF0000
00003FF0FFFF0000
00003FF0FFFF8000
00007FE0FFFF8000
0000FFC0FFFF8000
0000FF807FFF8000
0001FF007FFF8000
0003FE007FFF8000
0003FE00FFFF8000
0007FC07FFFFC000
000FFFFFFFFFC000
000FFFFFFFFFC000
001FFFFFFFFFC000
001FFFFFFFFFC000
003FFFFFFFFFC000
007FFFFFFFFFE000
007FFFFDFFFFE000
00FFFF81FFFFE000
01FFFE01FFFFE000
01FFF801FFFFE000
03FFF001FFFFF000
07FFF001FFFFF000
07FFE001FFFFF000
0FFFE001FFFFF000
1FFFC001FFFFF800
1FFFC001FFFFF800
3FFFC000FFFFF800
7FFFC000FFFFFC00
7FFFC000FFFFFC00
FFFF0000F8007000
FE00000000000000
ENDCHAR
STARTCHAR 0103
ENCODING 259
SWIDTH 630 0
DWIDTH 56 0
BBX 58 78 1 -2
BITMAP
00000001FC003FC0
00000001FC007FC0
00000001FE00FF80
00000001FF01FF80
00000000FFDFFF00
00000000FFFFFF00
00000000FFFFFE00
00000000FFFFFC00
000000007FFFF800
000000007FFFE000
000000003FFFC000
000000000FFF8000
0000000007FC0000
0000000000000000
0000000000000000
0000000000000000
00000000007C0000
0000000007FC0000
0000000007FC0000
000000000FFE0000
000000001FFE0000
000000001FFE0000
000000003FFE0000
000000003FFE0000
000000007FFE0000
000000007FFE0000
00000000FFFE0000
00000001FFFE0000
00000001FFFE0000
00000003FFFE0000
00000003FFFE0000
00000007FFFE0000
0000000FFFFE0000
0000000FFFFE0000
0000001FFFFE0000
0000001FFFFE0000
0000003FFFFE0000
0000007FFFFF0000
0000007FFFFF0000
000000FFFFFF0000
000000FFFFFF0000
000001FFFFFF0000
000003FFFFFF0000
000003FFFFFF0000
000007FFFFFF0000
00000FFFFFFF0000
00000FFFFFFF0000
00001FFFFFFF0000
00003FF0FFFF0000
00003FF0FFFF8000
00007FE0FFFF8000
0000FFC0FFFF8000
0000FF807FFF8000
0001FF007FFF8000
0003FE007FFF8000
0003FE00FFFF8000
0007FC07FFFFC000
000FFFFFFFFFC000
000FFFFFFFFFC000
001FFFFFFFFFC000
001FFFFFFFFFC000
003FFFFFFFFFC000
007FFFFFFFFFE000
007FFFFDFFFFE000
00FFFF81FFFFE000
01FFFE01FFFFE000
01FFF801FFFFE000
03FFF001FFFFF000
07FFF001FFFFF000
07FFE001FFFFF000
0FFFE001FFFFF000
1FFFC001FFFFF800
1FFFC001FFFFF800
3FFFC000FFFFF800
7FFFC000FFFFFC00
7FFFC000FFFFFC00
FFFF0000F8007000
FE00000000000000
ENDCHAR
STARTCHAR 0104
ENCODING 260
SWIDTH 630 0
DWIDTH 56 0
BBX 54 75 1 -15
BITMAP
00000000007C00
0000000007FC00
0000000007FC00
000000000FFE00
000000001FFE00
000000001FFE00
000000003FFE00
000000003FFE00
000000007FFE00
000000007FFE00
00000000FFFE00
00000001FFFE00
00000001FFFE00
00000003FFFE00
00000003FFFE00
00000007FFFE00
0000000FFFFE00
0000000FFFFE00
0000001FFFFE00
0000001FFFFE00
0000003FFFFE00
0000007FFFFF00
0000007FFFFF00
000000FFFFFF00
000000FFFFFF00
000001FFFFFF00
000003FFFFFF00
000003FFFFFF00
000007FFFFFF00
00000FFFFFFF00
00000FFFFFFF00
00001FFFFFFF00
00003FF0FFFF00
00003FF0FFFF80
00007FE0FFFF80
0000FFC0FFFF80
0000FF807FFF80
0001FF007FFF80
0003FE007FFF80
0003FE00FFFF80
0007FC07FFFFC0
000FFFFFFFFFC0
000FFFFFFFFFC0
001FFFFFFFFFC0
001FFFFFFFFFC0
003FFFFFFFFFC0
007FFFFFFFFFE0
007FFFFDFFFFE0
00FFFF81FFFFE0
01FFFE01FFFFE0
01FFF801FFFFE0
03FFF001FFFFF0
07FFF001FFFFF0
07FFE001FFFFF0
0FFFE001FFFFF0
1FFFC001FFFFF8
1FFFC001FFFFF8
3FFFC001FFFFF8
7FFFC000FFFFFC
7FFFC001FFFFFC
FFFF0003F80070
FE000007F80000
0000000FF00000
0000001FE00000
0000001FE00000
0000003FE00000
0000003FE00000
0000007FE01F00
0000007FFFFF00
0000007FFFFF00
0000007FFFFF00
0000007FFFFF00
0000003FFFFE00
0000001FFFFE00
00000001FFF000
ENDCHAR
STARTCHAR 0105
ENCODING 261
SWIDTH 630 0
DWIDTH 56 0
BBX 54 75 1 -15
BITMAP
00000000007C00
0000000007FC00
0000000007FC00
000000000FFE00
000000001FFE00
000000001FFE00
000000003FFE00
000000003FFE00
000000007FFE00
000000007FFE00
00000000FFFE00
00000001FFFE00
00000001FFFE00
00000003FFFE00
00000003FFFE00
00000007FFFE00
0000000FFFFE00
0000000FFFFE00
0000001FFFFE00
0000001FFFFE00
0000003FFFFE00
0000007FFFFF00
0000007FFFFF00
000000FFFFFF00
000000FFFFFF00
000001FFFFFF00
000003FFFFFF00
000003FFFFFF00
000007FFFFFF00
00000FFFFFFF00
00000FFFFFFF00
00001FFFFFFF00
00003FF0FFFF00
00003FF0FFFF80
00007FE0FFFF80
0000FFC0FFFF80
0000FF807FFF80
0001FF007FFF80
0003FE007FFF80
0003FE00FFFF80
0007FC07FFFFC0
000FFFFFFFFFC0
000FFFFFFFFFC0
001FFFFFFFFFC0
001FFFFFFFFFC0
003FFFFFFFFFC0
007FFFFFFFFFE0
007FFFFDFFFFE0
00FFFF81FFFFE0
01FFFE01FFFFE0
01FFF801FFFFE0
03FFF001FFFFF0
07FFF001FFFFF0
07FFE001FFFFF0
0FFFE001FFFFF0
1FFFC001FFFFF8
1FFFC001FFFFF8
3FFFC001FFFFF8
7FFFC000FFFFFC
7FFFC001FFFFFC
FFFF0003F80070
FE000007F80000
0000000FF00000
0000001FE00000
0000001FE00000
0000003FE00000
0000003FE00000
0000007FE01F00
0000007FFFFF00
0000007FFFFF00
0000007FFFFF00
0000007FFFFF00
0000003FFFFE00
0000001FFFFE00
00000001FFF000
ENDCHAR
STARTCHAR 0106
ENCODING 262
SWIDTH 483 0
DWIDTH 43 0
BBX 50 76 7 1
BITMAP
0000000001FFC0
0000000003FFC0
0000000007FFC0
000000000FFF80
000000000FFF00
000000001FFE00
000000003FFC00
000000007FF000
00000000FFE000
00000000FFC000
00000001FF8000
00000001FF0000
00000003FE0000
00000000FC0000
00000000000000
00000000000000
00000001000000
0000001FFC0000
000000FFFF8000
000007FFFFC000
00003FFFFFF000
0000FFFFFFF800
0003FFFFFFFC00
0007FFFFFFFC00
000FFFFFFFFE00
003FFFFFFFFC00
007FFFFFFFFC00
007FFFFFFFFC00
00FFFFFFFFF800
01FFFFFFFFF800
01FFFFFFFFF800
03FFFFFFFFF000
07FFFFFFFFF000
07FFFFFFC66000
0FFFFFF8000000
0FFFFFC0000000
1FFFFF00000000
1FFFFE00000000
1FFFFC00000000
1FFFF800000000
1FFFF000000000
3FFFF000000000
3FFFF000000000
3FFFE000000000
7FFFE000000000
7FFFE000000000
7FFFE000000000
7FFFE000000000
7FFFF000000000
FFFFF800020000
FFFFFC00FF0000
FFFFFEFFFF0000
FFFFFFFFFF0000
FFFFFFFFFF0000
FFFFFFFFFE0000
FFFFFFFFFE0000
FFFFFFFFFE0000
FFFFFFFFFE0000
FFFFFFFFFC0000
FFFFFFFFFC0000
FFFFFFFFFC0000
FFFFFFFFFC0000
7FFFFFFFF80000
7FFFFFFFF80000
7FFFFFFFF80000
7FFFFFFFF80000
3FFFFFFFF00000
3FFFFFFFE00000
3FFFFFFFC00000
1FFFFFFF000000
1FFFFFFF000000
1FFFFFFE000000
0FFFFFF8000000
00FFFFE0000000
007FFF80000000
0000FC00000000
ENDCHAR
STARTCHAR 0107
ENCODING 263
SWIDTH 483 0
DWIDTH 43 0
BBX 50 76 7 1
BITMAP
0000000001FFC0
0000000003FFC0
0000000007FFC0
000000000FFF80
000000000FFF00
000000001FFE00
000000003FFC00
000000007FF000
00000000FFE000
00000000FFC000
00000001FF8000
00000001FF0000
00000003FE0000
00000000FC0000
00000000000000
00000000000000
00000001000000
0000001FFC0000
000000FFFF8000
000007FFFFC000
00003FFFFFF000
0000FFFFFFF800
0003FFFFFFFC00
0007FFFFFFFC00
000FFFFFFFFE00
003FFFFFFFFC00
007FFFFFFFFC00
007FFFFFFFFC00
00FFFFFFFFF800
01FFFFFFFFF800
01FFFFFFFFF800
03FFFFFFFFF000
07FFFFFFFFF000
07FFFFFFC66000
0FFFFFF8000000
0FFFFFC0000000
1FFFFF00000000
1FFFFE00000000
1FFFFC00000000
1FFFF800000000
1FFFF000000000
3FFFF000000000
3FFFF000000000
3FFFE000000000
7FFFE000000000
7FFFE000000000
7FFFE000000000
7FFFE000000000
7FFFF000000000
FFFFF800020000
FFFFFC00FF0000
FFFFFEFFFF0000
FFFFFFFFFF0000
FFFFFFFFFF0000
FFFFFFFFFE0000
FFFFFFFFFE0000
FFFFFFFFFE0000
FFFFFFFFFE0000
FFFFFFFFFC0000
FFFFFFFFFC0000
FFFFFFFFFC0000
FFFFFFFFFC0000
7FFFFFFFF80000
7FFFFFFFF80000
7FFFFFFFF80000
7FFFFFFFF80000
3FFFFFFFF00000
3FFFFFFFE00000
3FFFFFFFC00000
1FFFFFFF000000
1FFFFFFF000000
1FFFFFFE000000
0FFFFFF8000000
00FFFFE0000000
007FFF80000000
0000FC00000000
ENDCHAR
STARTCHAR 0108
ENCODING 264
SWIDTH 483 0
DWIDTH 43 0
BBX 47 76 7 1
BITMAP
000000001C00
00000000FE00
00000003FF80
00000007FFC0
0000001FFFE0
0000003FFFF0
0000007FFFF8
000001FFFFF8
000003FFFFFC
000007FFDFFE
00000FFF0FFE
00000FFE07FE
00000FF803FC
000003C001F8
000000000000
000000000000
000000010000
0000001FFC00
000000FFFF80
000007FFFFC0
00003FFFFFF0
0000FFFFFFF8
0003FFFFFFFC
0007FFFFFFFC
000FFFFFFFFE
003FFFFFFFFC
007FFFFFFFFC
007FFFFFFFFC
00FFFFFFFFF8
01FFFFFFFFF8
01FFFFFFFFF8
03FFFFFFFFF0
07FFFFFFFFF0
07FFFFFFC660
0FFFFFF80000
0FFFFFC00000
1FFFFF000000
1FFFFE000000
1FFFFC000000
1FFFF8000000
1FFFF0000000
3FFFF0000000
3FFFF0000000
3FFFE0000000
7FFFE0000000
7FFFE0000000
7FFFE0000000
7FFFE0000000
7FFFF0000000
FFFFF8000200
FFFFFC00FF00
FFFFFEFFFF00
FFFFFFFFFF00
FFFFFFFFFF00
FFFFFFFFFE00
FFFFFFFFFE00
FFFFFFFFFE00
FFFFFFFFFE00
FFFFFFFFFC00
FFFFFFFFFC00
FFFFFFFFFC00
FFFFFFFFFC00
7FFFFFFFF800
7FFFFFFFF800
7FFFFFFFF800
7FFFFFFFF800
3FFFFFFFF000
3FFFFFFFE000
3FFFFFFFC000
1FFFFFFF0000
1FFFFFFF0000
1FFFFFFE0000
0FFFFFF80000
00FFFFE00000
007FFF800000
0000FC000000
ENDCHAR
STARTCHAR 0109
ENCODING 265
SWIDTH 483 0
DWIDTH 43 0
BBX 47 76 7 1
BITMAP
000000001C00
00000000FE00
00000003FF80
00000007FFC0
0000001FFFE0
0000003FFFF0
0000007FFFF8
000001FFFFF8
000003FFFFFC
000007FFDFFE
00000FFF0FFE
00000FFE07FE
00000FF803FC
000003C001F8
000000000000
000000000000
000000010000
0000001FFC00
000000FFFF80
000007FFFFC0
00003FFFFFF0
0000FFFFFFF8
0003FFFFFFFC
0007FFFFFFFC
000FFFFFFFFE
003FFFFFFFFC
007FFFFFFFFC
007FFFFFFFFC
00FFFFFFFFF8
01FFFFFFFFF8
01FFFFFFFFF8
03FFFFFFFFF0
07FFFFFFFFF0
07FFFFFFC660
0FFFFFF80000
0FFFFFC00000
1FFFFF000000
1FFFFE000000
1FFFFC000000
1FFFF8000000
1FFFF0000000
3FFFF0000000
3FFFF0000000
3FFFE0000000
7FFFE0000000
7FFFE0000000
7FFFE0000000
7FFFE0000000
7FFFF0000000
FFFFF8000200
FFFFFC00FF00
FFFFFEFFFF00
FFFFFFFFFF00
FFFFFFFFFF00
FFFFFFFFFE00
FFFFFFFFFE00
FFFFFFFFFE00
FFFFFFFFFE00
FFFFFFFFFC00
FFFFFFFFFC00
FFFFFFFFFC00
FFFFFFFFFC00
7FFFFFFFF800
7FFFFFFFF800
7FFFFFFFF800
7FFFFFFFF800
3FFFFFFFF000
3FFFFFFFE000
3FFFFFFFC000
1FFFFFFF0000
1FFFFFFF0000
1FFFFFFE0000
0FFFFFF80000
00FFFFE00000
007FFF800000
0000FC000000
ENDCHAR
STARTCHAR 010A
ENCODING 266
SWIDTH 483 0
DWIDTH 43 0
BBX 47 71 7 1
BITMAP
00000000F000
00000001F800
00000003FC00
00000007FC00
0000000FFC00
0000000FFC00
0000000FF800
0000000FF800
00000007F000
00000001C000
000000000000
000000010000
0000001FFC00
000000FFFF80
000007FFFFC0
00003FFFFFF0
0000FFFFFFF8
0003FFFFFFFC
0007FFFFFFFC
000FFFFFFFFE
003FFFFFFFFC
007FFFFFFFFC
007FFFFFFFFC
00FFFFFFFFF8
01FFFFFFFFF8
01FFFFFFFFF8
03FFFFFFFFF0
07FFFFFFFFF0
07FFFFFFC660
0FFFFFF80000
0FFFFFC00000
1FFFFF000000
1FFFFE000000
1FFFFC000000
1FFFF8000000
1FFFF0000000
3FFFF0000000
3FFFF0000000
3FFFE0000000
7FFFE0000000
7FFFE0000000
7FFFE0000000
7FFFE0000000
7FFFF0000000
FFFFF8000200
FFFFFC00FF00
FFFFFEFFFF00
FFFFFFFFFF00
FFFFFFFFFF00
FFFFFFFFFE00
FFFFFFFFFE00
FFFFFFFFFE00
FFFFFFFFFE00
FFFFFFFFFC00
FFFFFFFFFC00
FFFFFFFFFC00
FFFFFFFFFC00
7FFFFFFFF800
7FFFFFFFF800
7FFFFFFFF800
7FFFFFFFF800
3FFFFFFFF000
3FFFFFFFE000
3FFFFFFFC000
1FFFFFFF0000
1FFFFFFF0000
1FFFFFFE0000
0FFFFFF80000
00FFFFE00000
007FFF800000
0000FC000000
ENDCHAR
STARTCHAR 010B
ENCODING 267
SWIDTH 483 0
DWIDTH 43 0
BBX 47 71 7 1
BITMAP
00000000F000
00000001F800
00000003FC00
00000007FC00
0000000FFC00
0000000FFC00
0000000FF800
0000000FF800
00000007F000
00000001C000
000000000000
000000010000
0000001FFC00
000000FFFF80
000007FFFFC0
00003FFFFFF0
0000FFFFFFF8
0003FFFFFFFC
0007FFFFFFFC
000FFFFFFFFE
003FFFFFFFFC
007FFFFFFFFC
007FFFFFFFFC
00FFFFFFFFF8
01FFFFFFFFF8
01FFFFFFFFF8
03FFFFFFFFF0
07FFFFFFFFF0
07FFFFFFC660
0FFFFFF80000
0FFFFFC00000
1FFFFF000000
1FFFFE000000
1FFFFC000000
1FFFF8000000
1FFFF0000000
3FFFF0000000
3FFFF0000000
3FFFE0000000
7FFFE0000000
7FFFE0000000
7FFFE0000000
7FFFE0000000
7FFFF0000000
FFFFF8000200
FFFFFC00FF00
FFFFFEFFFF00
FFFFFFFFFF00
FFFFFFFFFF00
FFFFFFFFFE00
FFFFFFFFFE00
FFFFFFFFFE00
FFFFFFFFFE00
FFFFFFFFFC00
FFFFFFFFFC00
FFFFFFFFFC00
FFFFFFFFFC00
7FFFFFFFF800
7FFFFFFFF800
7FFFFFFFF800
7FFFFFFFF800
3FFFFFFFF000
3FFFFFFFE000
3FFFFFFFC000
1FFFFFFF0000
1FFFFFFF0000
1FFFFFFE0000
0FFFFFF80000
00FFFFE00000
007FFF800000
0000FC000000
ENDCHAR
STARTCHAR 010C
ENCODING 268
SWIDTH 483 0
DWIDTH 43 0
BBX 49 76 7 1
BITMAP
00000018000400
000001FE00FF00
000003FE03FF80
000003FF07FF80
000003FF9FFF00
000003FFFFFE00
000001FFFFFC00
000000FFFFF800
0000007FFFE000
0000003FFFC000
0000001FFF8000
0000000FFE0000
00000007F80000
00000003E00000
00000000000000
00000000000000
00000001000000
0000001FFC0000
000000FFFF8000
000007FFFFC000
00003FFFFFF000
0000FFFFFFF800
0003FFFFFFFC00
0007FFFFFFFC00
000FFFFFFFFE00
003FFFFFFFFC00
007FFFFFFFFC00
007FFFFFFFFC00
00FFFFFFFFF800
01FFFFFFFFF800
01FFFFFFFFF800
03FFFFFFFFF000
07FFFFFFFFF000
07FFFFFFC66000
0FFFFFF8000000
0FFFFFC0000000
1FFFFF00000000
1FFFFE00000000
1FFFFC00000000
1FFFF800000000
1FFFF000000000
3FFFF000000000
3FFFF000000000
3FFFE000000000
7FFFE000000000
7FFFE000000000
7FFFE000000000
7FFFE000000000
7FFFF000000000
FFFFF800020000
FFFFFC00FF0000
FFFFFEFFFF0000
FFFFFFFFFF0000
FFFFFFFFFF0000
FFFFFFFFFE0000
FFFFFFFFFE0000
FFFFFFFFFE0000
FFFFFFFFFE0000
FFFFFFFFFC0000
FFFFFFFFFC0000
FFFFFFFFFC0000
FFFFFFFFFC0000
7FFFFFFFF80000
7FFFFFFFF80000
7FFFFFFFF80000
7FFFFFFFF80000
3FFFFFFFF00000
3FFFFFFFE00000
3FFFFFFFC00000
1FFFFFFF000000
1FFFFFFF000000
1FFFFFFE000000
0FFFFFF8000000
00FFFFE0000000
007FFF80000000
0000FC00000000
ENDCHAR
STARTCHAR 010D
ENCODING 269
SWIDTH 483 0
DWIDTH 43 0
BBX 49 76 7 1
BITMAP
00000018000400
000001FE00FF00
000003FE03FF80
000003FF07FF80
000003FF9FFF00
000003FFFFFE00
000001FFFFFC00
000000FFFFF800
0000007FFFE000
0000003FFFC000
0000001FFF8000
0000000FFE0000
00000007F80000
00000003E00000
00000000000000
00000000000000
00000001000000
0000001FFC0000
000000FFFF8000
000007FFFFC000
00003FFFFFF000
0000FFFFFFF800
0003FFFFFFFC00
0007FFFFFFFC00
000FFFFFFFFE00
003FFFFFFFFC00
007FFFFFFFFC00
007FFFFFFFFC00
00FFFFFFFFF800
01FFFFFFFFF800
01FFFFFFFFF800
03FFFFFFFFF000
07FFFFFFFFF000
07FFFFFFC66000
0FFFFFF8000000
0FFFFFC0000000
1FFFFF00000000
1FFFFE00000000
1FFFFC00000000
1FFFF800000000
1FFFF000000000
3FFFF000000000
3FFFF000000000
3FFFE000000000
7FFFE000000000
7FFFE000000000
7FFFE000000000
7FFFE000000000
7FFFF000000000
FFFFF800020000
FFFFFC00FF0000
FFFFFEFFFF0000
FFFFFFFFFF0000
FFFFFFFFFF0000
FFFFFFFFFE0000
FFFFFFFFFE0000
FFFFFFFFFE0000
FFFFFFFFFE0000
FFFFFFFFFC0000
FFFFFFFFFC0000
FFFFFFFFFC0000
FFFFFFFFFC0000
7FFFFFFFF80000
7FFFFFFFF80000
7FFFFFFFF80000
7FFFFFFFF80000
3FFFFFFFF00000
3FFFFFFFE00000
3FFFFFFFC00000
1FFFFFFF000000
1FFFFFFF000000
1FFFFFFE000000
0FFFFFF8000000
00FFFFE0000000
007FFF80000000
0000FC00000000
ENDCHAR
STARTCHAR 010E
ENCODING 270
SWIDTH 461 0
DWIDTH 41 0
BBX 39 78 9 0
BITMAP
00000007C0
0000001FE0
003F007FE0
007FC0FFE0
00FFE3FFC0
00FFF7FF80
00FFFFFF00
007FFFFE00
003FFFFC00
001FFFF800
000FFFE000
0007FFC000
0001FF8000
0000FE0000
0000380000
0000000000
0000000000
001F800000
00FFFE0000
03FFFF8000
07FFFFF000
0FFFFFFC00
0FFFFFFF00
0FFFFFFF00
0FFFFFFF80
0FFFFFFFC0
1FFFFFFFC0
1FFFFFFFE0
1FFFFFFFE0
1FFFFFFFF0
1FFFFFFFF0
3FFFFFFFF8
3FFFFFFFF8
3FFFFFFFFC
3FFFE1FFFC
3FFFC07FFC
3FFFC01FFC
3FFF801FFC
7FFF801FFE
7FFF801FFE
7FFF001FFE
7FFF801FFC
7FFF803FFC
7FFF803FFC
7FFF003FFC
7FFF007FFC
7FFF00FFF8
7FFF00FFF0
7FFF01FFF0
7FFF03FFE0
FFFF07FFE0
FFFF0FFFC0
FFFF1FFF80
FFFFFFFF80
FFFFFFFF00
FFFFFFFE00
FFFFFFFC00
FFFFFFFC00
FFFFFFF800
FFFFFFF000
FFFFFFE000
FFFFFFE000
FFFFFFC000
FFFFFF8000
FFFFFF0000
FFFFFE0000
FFFFFC0000
FFFFF80000
FFFFF00000
FFFFE00000
FFFFC00000
FFFF000000
7FFC000000
7FF0000000
7F80000000
7E00000000
7800000000
4000000000
ENDCHAR
STARTCHAR 010F
ENCODING 271
SWIDTH 461 0
DWIDTH 41 0
BBX 39 78 9 0
BITMAP
00000007C0
0000001FE0
003F007FE0
007FC0FFE0
00FFE3FFC0
00FFF7FF80
00FFFFFF00
007FFFFE00
003FFFFC00
001FFFF800
000FFFE000
0007FFC000
0001FF8000
0000FE0000
0000380000
0000000000
0000000000
001F800000
00FFFE0000
03FFFF8000
07FFFFF000
0FFFFFFC00
0FFFFFFF00
0FFFFFFF00
0FFFFFFF80
0FFFFFFFC0
1FFFFFFFC0
1FFFFFFFE0
1FFFFFFFE0
1FFFFFFFF0
1FFFFFFFF0
3FFFFFFFF8
3FFFFFFFF8
3FFFFFFFFC
3FFFE1FFFC
3FFFC07FFC
3FFFC01FFC
3FFF801FFC
7FFF801FFE
7FFF801FFE
7FFF001FFE
7FFF801FFC
7FFF803FFC
7FFF803FFC
7FFF003FFC
7FFF007FFC
7FFF00FFF8
7FFF00FFF0
7FFF01FFF0
7FFF03FFE0
FFFF07FFE0
FFFF0FFFC0
FFFF1FFF80
FFFFFFFF80
FFFFFFFF00
FFFFFFFE00
FFFFFFFC00
FFFFFFFC00
FFFFFFF800
FFFFFFF000
FFFFFFE000
FFFFFFE000
FFFFFFC000
FFFFFF8000
FFFFFF0000
FFFFFE0000
FFFFFC0000
FFFFF80000
FFFFF00000
FFFFE00000
FFFFC00000
FFFF000000
7FFC000000
7FF0000000
7F80000000
7E00000000
7800000000
4000000000
ENDCHAR
STARTCHAR 0110
ENCODING 272
SWIDTH 483 0
DWIDTH 43 0
BBX 44 61 6 0
BITMAP
0000FE000000
0003FFF80000
000FFFFE0000
001FFFFFC000
003FFFFFF000
003FFFFFF800
003FFFFFFC00
003FFFFFFE00
007FFFFFFE00
007FFFFFFF00
007FFFFFFF80
007FFFFFFF80
007FFFFFFFC0
00FFFFFFFFC0
00FFFFFFFFE0
00FFFFFFFFE0
00FFFFFFFFE0
00FFFF87FFF0
00FFFF01FFF0
01FFFF00FFF0
01FFFFF87FF0
01FFFFF87FF0
01FFFFF87FF0
3FFFFFF87FF0
3FFFFFF0FFF0
3FFFFFF0FFF0
3FFFFFF0FFF0
7FFFFFF1FFF0
7FFFFFF1FFE0
7FFFFFF3FFE0
7FFFFFF7FFC0
7FFFFFC7FFC0
7FFFFC0FFF80
7FFFF81FFF00
FFFFF83FFF00
03FFF8FFFE00
03FFFFFFFC00
03FFFFFFFC00
03FFFFFFF800
03FFFFFFF000
03FFFFFFF000
03FFFFFFE000
03FFFFFFC000
03FFFFFF8000
03FFFFFF0000
03FFFFFF0000
03FFFFFE0000
03FFFFFC0000
03FFFFF80000
03FFFFF00000
03FFFFE00000
03FFFFC00000
03FFFF800000
03FFFE000000
03FFF8000000
03FFF0000000
03FFC0000000
03FE00000000
03F800000000
01E000000000
010000000000
ENDCHAR
STARTCHAR 0111
ENCODING 273
SWIDTH 483 0
DWIDTH 43 0
BBX 44 61 6 0
BITMAP
0000FE000000
0003FFF80000
000FFFFE0000
001FFFFFC000
003FFFFFF000
003FFFFFF800
003FFFFFFC00
003FFFFFFE00
007FFFFFFE00
007FFFFFFF00
007FFFFFFF80
007FFFFFFF80
007FFFFFFFC0
00FFFFFFFFC0
00FFFFFFFFE0
00FFFFFFFFE0
00FFFFFFFFE0
00FFFF87FFF0
00FFFF01FFF0
01FFFF00FFF0
01FFFFF87FF0
01FFFFF87FF0
01FFFFF87FF0
3FFFFFF87FF0
3FFFFFF0FFF0
3FFFFFF0FFF0
3FFFFFF0FFF0
7FFFFFF1FFF0
7FFFFFF1FFE0
7FFFFFF3FFE0
7FFFFFF7FFC0
7FFFFFC7FFC0
7FFFFC0FFF80
7FFFF81FFF00
FFFFF83FFF00
03FFF8FFFE00
03FFFFFFFC00
03FFFFFFFC00
03FFFFFFF800
03FFFFFFF000
03FFFFFFF000
03FFFFFFE000
03FFFFFFC000
03FFFFFF8000
03FFFFFF0000
03FFFFFF0000
03FFFFFE0000
03FFFFFC0000
03FFFFF80000
03FFFFF00000
03FFFFE00000
03FFFFC00000
03FFFF800000
03FFFE000000
03FFF8000000
03FFF0000000
03FFC0000000
03FE00000000
03F800000000
01E000000000
010000000000
ENDCHAR
STARTCHAR 0112
ENCODING 274
SWIDTH 495 0
DWIDTH 44 0
BBX 35 73 11 0
BITMAP
0000003E00
0000FFFE00
01FFFFFE00
07FFFFFE00
07FFFFFE00
07FFFFFE00
07FFFFFE00
07FFFFC000
0FFFF00000
0FF8000000
0000000000
0007FFE000
003FFFFF80
01FFFFFFE0
0FFFFFFFE0
1FFFFFFFE0
3FFFFFFFC0
3FFFFFFFC0
1FFFFFFF80
1FFFFFFF80
1FFFFFFF00
1FFFFFFF00
1FFFFFFF00
1FFFFFFE00
1FFFFFFE00
1FFFFFFC00
1FFFFFFE00
1FFFFFFE00
1FFFFFFC00
1FFFFFF800
1FFFE00000
1FFFC00000
1FFF800000
1FFF800000
1FFFC00000
1FFFC00000
1FFFC1F000
1FFFFFF000
1FFFFFE000
1FFFFFE000
1FFFFFE000
1FFFFFE000
3FFFFFE000
3FFFFFE000
3FFFFFE000
3FFFFEE000
3FFF800000
3FFF800000
3FFF800000
3FFF800300
3FFFFFFF80
3FFFFFFF80
3FFFFFFF80
7FFFFFFF80
3FFFFFFF80
3FFFFFFF80
3FFFFFFF80
3FFFFFFF80
7FFFFFFF80
7FFFFFFF80
7FFFFFFF80
7FFFFFFF80
7FFFFFFF80
7FFFFFFF80
7FFFFFFF80
FFFFFFFF80
FFFFFFFF00
FFFFFFF800
FFFFFF0000
FFFFF00000
FFFF000000
7FE0000000
7000000000
ENDCHAR
STARTCHAR 0113
ENCODING 275
SWIDTH 495 0
DWIDTH 44 0
BBX 35 73 11 0
BITMAP
0000003E00
0000FFFE00
01FFFFFE00
07FFFFFE00
07FFFFFE00
07FFFFFE00
07FFFFFE00
07FFFFC000
0FFFF00000
0FF8000000
0000000000
0007FFE000
003FFFFF80
01FFFFFFE0
0FFFFFFFE0
1FFFFFFFE0
3FFFFFFFC0
3FFFFFFFC0
1FFFFFFF80
1FFFFFFF80
1FFFFFFF00
1FFFFFFF00
1FFFFFFF00
1FFFFFFE00
1FFFFFFE00
1FFFFFFC00
1FFFFFFE00
1FFFFFFE00
1FFFFFFC00
1FFFFFF800
1FFFE00000
1FFFC00000
1FFF800000
1FFF800000
1FFFC00000
1FFFC00000
1FFFC1F000
1FFFFFF000
1FFFFFE000
1FFFFFE000
1FFFFFE000
1FFFFFE000
3FFFFFE000
3FFFFFE000
3FFFFFE000
3FFFFEE000
3FFF800000
3FFF800000
3FFF800000
3FFF800300
3FFFFFFF80
3FFFFFFF80
3FFFFFFF80
7FFFFFFF80
3FFFFFFF80
3FFFFFFF80
3FFFFFFF80
3FFFFFFF80
7FFFFFFF80
7FFFFFFF80
7FFFFFFF80
7FFFFFFF80
7FFFFFFF80
7FFFFFFF80
7FFFFFFF80
FFFFFFFF80
FFFFFFFF00
FFFFFFF800
FFFFFF0000
FFFFF00000
FFFF000000
7FE0000000
7000000000
ENDCHAR
STARTCHAR 0114
ENCODING 276
SWIDTH 495 0
DWIDTH 44 0
BBX 35 79 11 0
BITMAP
0000000040
0000003F80
0000007F80
03F8007F80
03FC00FF80
03FC03FF00
01FF0FFE00
01FFFFFE00
01FFFFFC00
01FFFFF800
00FFFFF000
00FFFFE000
007FFFC000
003FFF8000
000FFC0000
0000000000
0000000000
0007FFE000
003FFFFF80
01FFFFFFE0
0FFFFFFFE0
1FFFFFFFE0
3FFFFFFFC0
3FFFFFFFC0
1FFFFFFF80
1FFFFFFF80
1FFFFFFF00
1FFFFFFF00
1FFFFFFF00
1FFFFFFE00
1FFFFFFE00
1FFFFFFC00
1FFFFFFE00
1FFFFFFE00
1FFFFFFC00
1FFFFFF800
1FFFE00000
1FFFC00000
1FFF800000
1FFF800000
1FFFC00000
1FFFC00000
1FFFC1F000
1FFFFFF000
1FFFFFE000
1FFFFFE000
1FFFFFE000
1FFFFFE000
3FFFFFE000
3FFFFFE000
3FFFFFE000
3FFFFEE000
3FFF800000
3FFF800000
3FFF800000
3FFF800300
3FFFFFFF80
3FFFFFFF80
3FFFFFFF80
7FFFFFFF80
3FFFFFFF80
3FFFFFFF80
3FFFFFFF80
3FFFFFFF80
7FFFFFFF80
7FFFFFFF80
7FFFFFFF80
7FFFFFFF80
7FFFFFFF80
7FFFFFFF80
7FFFFFFF80
FFFFFFFF80
FFFFFFFF00
FFFFFFF800
FFFFFF0000
FFFFF00000
FFFF000000
7FE0000000
7000000000
ENDCHAR
STARTCHAR 0115
ENCODING 277
SWIDTH 495 0
DWIDTH 44 0
BBX 35 79 11 0
BITMAP
0000000040
0000003F80
0000007F80
03F8007F80
03FC00FF80
03FC03FF00
01FF0FFE00
01FFFFFE00
01FFFFFC00
01FFFFF800
00FFFFF000
00FFFFE000
007FFFC000
003FFF8000
000FFC0000
0000000000
0000000000
0007FFE000
003FFFFF80
01FFFFFFE0
0FFFFFFFE0
1FFFFFFFE0
3FFFFFFFC0
3FFFFFFFC0
1FFFFFFF80
1FFFFFFF80
1FFFFFFF00
1FFFFFFF00
1FFFFFFF00
1FFFFFFE00
1FFFFFFE00
1FFFFFFC00
1FFFFFFE00
1FFFFFFE00
1FFFFFFC00
1FFFFFF800
1FFFE00000
1FFFC00000
1FFF800000
1FFF800000
1FFFC00000
1FFFC00000
1FFFC1F000
1FFFFFF000
1FFFFFE000
1FFFFFE000
1FFFFFE000
1FFFFFE000
3FFFFFE000
3FFFFFE000
3FFFFFE000
3FFFFEE000
3FFF800000
3FFF800000
3FFF800000
3FFF800300
3FFFFFFF80
3FFFFFFF80
3FFFFFFF80
7FFFFFFF80
3FFFFFFF80
3FFFFFFF80
3FFFFFFF80
3FFFFFFF80
7FFFFFFF80
7FFFFFFF80
7FFFFFFF80
7FFFFFFF80
7FFFFFFF80
7FFFFFFF80
7FFFFFFF80
FFFFFFFF80
FFFFFFFF00
FFFFFFF800
FFFFFF0000
FFFFF00000
FFFF000000
7FE0000000
7000000000
ENDCHAR
STARTCHAR 0116
ENCODING 278
SWIDTH 495 0
DWIDTH 44 0
BBX 35 73 11 0
BITMAP
0000FC0000
0001FE0000
0003FE0000
0003FE0000
0007FE0000
0007FC0000
0007FC0000
0007F80000
0001F00000
0000000000
0000000000
0007FFE000
003FFFFF80
01FFFFFFE0
0FFFFFFFE0
1FFFFFFFE0
3FFFFFFFC0
3FFFFFFFC0
1FFFFFFF80
1FFFFFFF80
1FFFFFFF00
1FFFFFFF00
1FFFFFFF00
1FFFFFFE00
1FFFFFFE00
1FFFFFFC00
1FFFFFFE00
1FFFFFFE00
1FFFFFFC00
1FFFFFF800
1FFFE00000
1FFFC00000
1FFF800000
1FFF800000
1FFFC00000
1FFFC00000
1FFFC1F000
1FFFFFF000
1FFFFFE000
1FFFFFE000
1FFFFFE000
1FFFFFE000
3FFFFFE000
3FFFFFE000
3FFFFFE000
3FFFFEE000
3FFF800000
3FFF800000
3FFF800000
3FFF800300
3FFFFFFF80
3FFFFFFF80
3FFFFFFF80
7FFFFFFF80
3FFFFFFF80
3FFFFFFF80
3FFFFFFF80
3FFFFFFF80
7FFFFFFF80
7FFFFFFF80
7FFFFFFF80
7FFFFFFF80
7FFFFFFF80
7FFFFFFF80
7FFFFFFF80
FFFFFFFF80
FFFFFFFF00
FFFFFFF800
FFFFFF0000
FFFFF00000
FFFF000000
7FE0000000
7000000000
ENDCHAR
STARTCHAR 0117
ENCODING 279
SWIDTH 495 0
DWIDTH 44 0
BBX 35 73 11 0
BITMAP
0000FC0000
0001FE0000
0003FE0000
0003FE0000
0007FE0000
0007FC0000
0007FC0000
0007F80000
0001F00000
0000000000
0000000000
0007FFE000
003FFFFF80
01FFFFFFE0
0FFFFFFFE0
1FFFFFFFE0
3FFFFFFFC0
3FFFFFFFC0
1FFFFFFF80
1FFFFFFF80
1FFFFFFF00
1FFFFFFF00
1FFFFFFF00
1FFFFFFE00
1FFFFFFE00
1FFFFFFC00
1FFFFFFE00
1FFFFFFE00
1FFFFFFC00
1FFFFFF800
1FFFE00000
1FFFC00000
1FFF800000
1FFF800000
1FFFC00000
1FFFC00000
1FFFC1F000
1FFFFFF000
1FFFFFE000
1FFFFFE000
1FFFFFE000
1FFFFFE000
3FFFFFE000
3FFFFFE000
3FFFFFE000
3FFFFEE000
3FFF800000
3FFF800000
3FFF800000
3FFF800300
3FFFFFFF80
3FFFFFFF80
3FFFFFFF80
7FFFFFFF80
3FFFFFFF80
3FFFFFFF80
3FFFFFFF80
3FFFFFFF80
7FFFFFFF80
7FFFFFFF80
7FFFFFFF80
7FFFFFFF80
7FFFFFFF80
7FFFFFFF80
7FFFFFFF80
FFFFFFFF80
FFFFFFFF00
FFFFFFF800
FFFFFF0000
FFFFF00000
FFFF000000
7FE0000000
7000000000
ENDCHAR
STARTCHAR 0118
ENCODING 280
SWIDTH 495 0
DWIDTH 44 0
BBX 35 75 11 -13
BITMAP
0007FFE000
003FFFFF80
01FFFFFFE0
0FFFFFFFE0
1FFFFFFFE0
3FFFFFFFC0
3FFFFFFFC0
1FFFFFFF80
1FFFFFFF80
1FFFFFFF00
1FFFFFFF00
1FFFFFFF00
1FFFFFFE00
1FFFFFFE00
1FFFFFFC00
1FFFFFFE00
1FFFFFFE00
1FFFFFFC00
1FFFFFF800
1FFFE00000
1FFFC00000
1FFF800000
1FFF800000
1FFFC00000
1FFFC00000
1FFFC1F000
1FFFFFF000
1FFFFFE000
1FFFFFE000
1FFFFFE000
1FFFFFE000
3FFFFFE000
3FFFFFE000
3FFFFFE000
3FFFFEE000
3FFF800000
3FFF800000
3FFF800000
3FFF800300
3FFFFFFF80
3FFFFFFF80
3FFFFFFF80
7FFFFFFF80
3FFFFFFF80
3FFFFFFF80
3FFFFFFF80
3FFFFFFF80
7FFFFFFF80
7FFFFFFF80
7FFFFFFF80
7FFFFFFF80
7FFFFFFF80
7FFFFFFF80
7FFFFFFF80
FFFFFFFF80
FFFFFFFF00
FFFFFFF800
FFFFFF0000
FFFFF00000
FFFFE00000
7FEFC00000
701FC00000
003F800000
007F800000
007F000000
00FF000000
01FF003C00
01FF01FC00
01FFFFFC00
03FFFFFC00
03FFFFFC00
03FFFFFC00
01FFFFF800
01FFFFE000
00FFFC0000
ENDCHAR
STARTCHAR 0119
ENCODING 281
SWIDTH 495 0
DWIDTH 44 0
BBX 35 75 11 -13
BITMAP
0007FFE000
003FFFFF80
01FFFFFFE0
0FFFFFFFE0
1FFFFFFFE0
3FFFFFFFC0
3FFFFFFFC0
1FFFFFFF80
1FFFFFFF80
1FFFFFFF00
1FFFFFFF00
1FFFFFFF00
1FFFFFFE00
1FFFFFFE00
1FFFFFFC00
1FFFFFFE00
1FFFFFFE00
1FFFFFFC00
1FFFFFF800
1FFFE00000
1FFFC00000
1FFF800000
1FFF800000
1FFFC00000
1FFFC00000
1FFFC1F000
1FFFFFF000
1FFFFFE000
1FFFFFE000
1FFFFFE000
1FFFFFE000
3FFFFFE000
3FFFFFE000
3FFFFFE000
3FFFFEE000
3FFF800000
3FFF800000
3FFF800000
3FFF800300
3FFFFFFF80
3FFFFFFF80
3FFFFFFF80
7FFFFFFF80
3FFFFFFF80
3FFFFFFF80
3FFFFFFF80
3FFFFFFF80
7FFFFFFF80
7FFFFFFF80
7FFFFFFF80
7FFFFFFF80
7FFFFFFF80
7FFFFFFF80
7FFFFFFF80
FFFFFFFF80
FFFFFFFF00
FFFFFFF800
FFFFFF0000
FFFFF00000
FFFFE00000
7FEFC00000
701FC00000
003F800000
007F800000
007F000000
00FF000000
01FF003C00
01FF01FC00
01FFFFFC00
03FFFFFC00
03FFFFFC00
03FFFFFC00
01FFFFF800
01FFFFE000
00FFFC0000
ENDCHAR
STARTCHAR 011A
ENCODING 282
SWIDTH 495 0
DWIDTH 44 0
BBX 35 78 11 0
BITMAP
0000001F00
0000007F80
00FC01FF80
01FF03FF80
03FF8FFF00
03FFDFFE00
03FFFFFC00
01FFFFF800
00FFFFF000
007FFFE000
003FFF8000
001FFF0000
0007FE0000
0003F80000
0000E00000
0000000000
0007FFE000
003FFFFF80
01FFFFFFE0
0FFFFFFFE0
1FFFFFFFE0
3FFFFFFFC0
3FFFFFFFC0
1FFFFFFF80
1FFFFFFF80
1FFFFFFF00
1FFFFFFF00
1FFFFFFF00
1FFFFFFE00
1FFFFFFE00
1FFFFFFC00
1FFFFFFE00
1FFFFFFE00
1FFFFFFC00
1FFFFFF800
1FFFE00000
1FFFC00000
1FFF800000
1FFF800000
1FFFC00000
1FFFC00000
1FFFC1F000
1FFFFFF000
1FFFFFE000
1FFFFFE000
1FFFFFE000
1FFFFFE000
3FFFFFE000
3FFFFFE000
3FFFFFE000
3FFFFEE000
3FFF800000
3FFF800000
3FFF800000
3FFF800300
3FFFFFFF80
3FFFFFFF80
3FFFFFFF80
7FFFFFFF80
3FFFFFFF80
3FFFFFFF80
3FFFFFFF80
3FFFFFFF80
7FFFFFFF80
7FFFFFFF80
7FFFFFFF80
7FFFFFFF80
7FFFFFFF80
7FFFFFFF80
7FFFFFFF80
FFFFFFFF80
FFFFFFFF00
FFFFFFF800
FFFFFF0000
FFFFF00000
FFFF000000
7FE0000000
7000000000
ENDCHAR
ENDFONT
